<svg width="1146" height="466" viewBox="0 0 1146 466" fill="none" xmlns="http://www.w3.org/2000/svg">
<g filter="url(#filter0_d_7_148)">
<path d="M129.4 113.744C129.928 116.736 128.432 122.632 124.912 131.432C122.448 139.352 117.784 151.584 110.92 168.128C97.368 201.568 88.568 230.52 84.52 254.984C83.816 262.552 81.88 266.336 78.712 266.336C75.192 266.336 72.288 264.752 70 261.584C67.888 258.592 66.744 254.896 66.568 250.496C66.216 241.344 72.2 220.576 84.52 188.192C96.84 155.632 104.056 133.632 106.168 122.192C106.696 120.256 103.352 119.288 96.136 119.288C91.56 119.288 84.608 119.816 75.28 120.872C72.64 121.048 70.088 121.312 67.624 121.664C65.336 121.84 63.664 122.016 62.608 122.192H61.288C63.576 123.072 64.808 124.216 64.984 125.624C65.16 126.856 64.808 129.232 63.928 132.752C63.752 133.456 63.576 133.984 63.4 134.336C35.064 216.176 20.896 259.736 20.896 265.016V265.544V266.6C21.072 267.304 21.16 267.832 21.16 268.184C21.16 270.472 20.192 271.616 18.256 271.616C15.792 271.616 12.008 269.768 6.904 266.072C4.968 264.664 4 262.112 4 258.416C4 255.424 10.072 233.424 22.216 192.416C34.184 151.76 40.96 130.024 42.544 127.208C38.32 126.856 35.24 125.712 33.304 123.776C29.784 121.136 28.024 117.44 28.024 112.688C28.024 110.928 28.464 109.872 29.344 109.52C56.096 106.352 69.736 104.768 70.264 104.768C82.232 102.304 92.352 101.072 100.624 101.072C106.08 101.072 110.92 101.688 115.144 102.92C119.016 104.152 122.272 105.824 124.912 107.936C127.552 109.872 129.048 111.808 129.4 113.744ZM196.429 265.544C188.685 266.424 182.085 264.136 176.629 258.68C171.349 253.048 168.357 245.304 167.653 235.448C152.517 251.992 139.493 259.824 128.581 258.944C121.717 258.24 117.141 255.6 114.853 251.024C112.389 246.272 112.037 240.728 113.797 234.392C115.557 227.88 118.373 221.104 122.245 214.064C126.293 207.024 131.045 200.512 136.501 194.528C140.725 189.776 145.389 185.816 150.493 182.648C155.597 179.48 160.965 177.544 166.597 176.84C172.229 175.96 177.421 177.192 182.173 180.536C184.461 177.192 188.597 177.192 194.581 180.536C200.213 183.352 202.149 186.608 200.389 190.304C195.813 198.576 191.941 207.464 188.773 216.968C185.253 227.176 183.493 235.624 183.493 242.312C183.493 245.656 184.197 248.208 185.605 249.968C187.013 251.552 189.213 252.256 192.205 252.08C193.437 252.08 194.933 251.904 196.693 251.552C198.453 251.024 200.213 250.32 201.973 249.44C203.733 248.56 205.581 247.592 207.517 246.536C209.453 245.48 211.213 244.424 212.797 243.368C214.557 242.136 216.229 240.992 217.813 239.936C219.573 238.88 220.981 237.912 222.037 237.032C223.269 236.152 224.237 235.36 224.941 234.656L226.261 233.864C227.493 232.808 228.109 232.808 228.109 233.864C227.933 236.856 224.677 242.312 218.341 250.232C210.597 259.736 203.293 264.84 196.429 265.544ZM129.637 241.256C129.285 242.664 129.197 243.72 129.373 244.424C129.725 244.952 130.429 245.04 131.485 244.688C136.589 243.104 144.685 236.24 155.773 224.096C167.917 210.544 173.989 200.864 173.989 195.056C171.877 192.416 167.917 193.208 162.109 197.432C156.301 201.48 150.229 207.728 143.893 216.176C137.557 224.448 132.805 232.808 129.637 241.256ZM225.721 252.608C222.201 246.624 220.969 238.616 222.025 228.584C223.081 218.376 225.457 208.256 229.153 198.224C233.729 185.552 239.097 172.176 245.257 158.096C266.377 109.696 285.561 85.496 302.809 85.496C311.257 85.496 317.153 89.192 320.497 96.584C322.785 101.336 321.289 110.488 316.009 124.04C310.553 137.768 301.841 151.32 289.873 164.696C287.233 167.688 284.065 170.944 280.369 174.464C278.081 176.752 274.297 180.272 269.017 185.024C263.913 189.6 260.745 192.504 259.513 193.736C258.105 195.144 253.353 198.928 245.257 205.088C242.969 209.84 240.329 217.848 237.337 229.112C248.073 213.096 258.545 202.536 268.753 197.432C273.153 195.144 277.553 194.968 281.953 196.904C286.529 198.84 289.785 202.448 291.721 207.728C293.481 212.48 292.161 219.168 287.761 227.792C285.825 231.488 282.481 235.8 277.729 240.728C272.977 245.48 267.433 250.056 261.097 254.456C254.761 258.68 248.425 260.88 242.089 261.056C235.929 261.232 230.473 258.416 225.721 252.608ZM248.425 187.928L256.345 180.272C261.097 175.52 263.737 172.792 264.265 172.088L270.601 165.488C274.473 161.616 276.849 159.064 277.729 157.832L290.137 141.992C299.641 128.792 305.273 117.528 307.033 108.2C308.089 103.8 308.001 100.72 306.769 98.96C305.713 97.2 303.953 96.848 301.489 97.904C299.201 98.96 297.001 100.896 294.889 103.712C290.489 109.872 283.537 121.312 274.033 138.032C264.177 155.28 255.641 171.912 248.425 187.928ZM259.777 237.56C261.009 236.504 263.033 234.568 265.849 231.752C267.785 229.816 270.249 226.912 273.241 223.04C276.057 219.52 277.025 217.056 276.145 215.648C274.561 212.656 270.161 214.504 262.945 221.192C259.249 224.536 255.641 228.848 252.121 234.128C248.777 240.464 248.337 243.72 250.801 243.896C253.089 244.072 256.081 241.96 259.777 237.56ZM331.484 263.96C322.86 263.96 315.028 261.056 307.988 255.248C304.116 252.08 301.564 248.824 300.332 245.48C299.1 242.136 298.484 237.824 298.484 232.544C298.484 218.992 304.204 206.232 315.644 194.264C327.26 182.296 338.172 176.312 348.38 176.312C351.372 176.312 354.188 177.104 356.828 178.688C360.524 180.8 362.724 184.056 363.428 188.456C363.604 189.16 363.692 190.656 363.692 192.944C363.692 196.992 362.988 201.128 361.58 205.352C359.468 211.688 356.036 217.232 351.284 221.984C346.708 226.736 341.34 229.816 335.18 231.224C334.652 231.4 333.508 231.488 331.748 231.488C325.94 231.488 320.748 229.992 316.172 227C313.18 236.328 313.708 243.104 317.756 247.328C319.868 249.616 323.564 250.76 328.844 250.76C346.092 250.76 362.46 243.016 377.948 227.528C378.124 227.352 378.388 227.616 378.74 228.32C379.268 232.544 377.332 237.384 372.932 242.84L371.876 244.16C367.124 249.616 360.876 254.28 353.132 258.152C345.388 262.024 338.172 263.96 331.484 263.96ZM322.244 215.912C325.764 217.848 330.076 216.352 335.18 211.424C337.644 209.664 341.076 206.144 345.476 200.864C350.228 195.408 352.164 191.888 351.284 190.304C351.108 188.896 348.996 189.512 344.948 192.152C341.076 194.616 336.764 198.224 332.012 202.976C327.436 207.728 324.18 212.04 322.244 215.912ZM436.966 265.808C435.206 265.808 433.182 265.368 430.894 264.488C424.558 261.32 420.334 255.424 418.222 246.8C417.342 242.4 416.902 238.352 416.902 234.656C416.902 231.136 417.166 227.44 417.694 223.568C405.022 245.92 393.23 257.096 382.318 257.096C377.566 257.096 373.342 255.336 369.646 251.816C365.95 248.296 364.102 244.16 364.102 239.408C363.75 235.888 364.806 232.544 367.27 229.376C369.734 226.208 372.726 224.8 376.246 225.152C379.942 225.504 382.846 228.232 384.958 233.336C385.838 235.272 386.894 236.24 388.126 236.24C388.478 236.592 389.094 236.416 389.974 235.712C390.854 234.832 391.91 233.688 393.142 232.28C394.374 230.696 395.166 229.728 395.518 229.376C403.966 219.344 411.182 207.376 417.166 193.472C419.102 188.72 422.71 182.472 427.99 174.728C428.518 174.024 429.222 173.672 430.102 173.672C432.39 173.672 434.942 175.08 437.758 177.896C440.926 180.888 442.51 183.352 442.51 185.288C442.862 188.632 440.838 195.496 436.438 205.88C433.798 213.8 432.478 221.016 432.478 227.528C432.478 232.632 433.27 237.824 434.854 243.104C436.614 249.088 439.606 252.08 443.83 252.08C449.11 252.08 457.91 246.272 470.23 234.656C472.694 232.896 473.926 232.72 473.926 234.128C473.926 236.416 471.814 240.464 467.59 246.272C463.366 252.08 458.614 256.656 453.334 260C447.35 263.872 441.894 265.808 436.966 265.808Z" fill="#834A12"/>
<path d="M672.752 344.12L662.984 380.816C662.104 382.224 660.432 383.016 657.968 383.192C655.504 383.368 652.864 382.488 650.048 380.552C647.408 378.792 646.088 376.504 646.088 373.688C646.088 370.344 646.792 364.888 648.2 357.32C650.136 348.696 651.544 342.976 652.424 340.16L659.024 318.776C661.664 309.8 663.424 304.256 664.304 302.144C656.56 300.032 651.28 298.008 648.464 296.072C645.824 293.96 644.504 291.232 644.504 287.888C644.504 285.952 644.68 284.104 645.032 282.344C645.384 281.112 647.232 281.024 650.576 282.08C656.032 283.312 662.192 284.984 669.056 287.096C671.872 279.88 676.448 266.592 682.784 247.232C689.296 226.816 694.576 211.504 698.624 201.296C702.848 191.088 706.016 186.248 708.128 186.776C712.176 187.656 715.344 188.976 717.632 190.736C719.92 192.496 720.8 194.344 720.272 196.28C719.04 201.032 714.2 215.64 705.752 240.104C703.464 246.792 701.264 253.392 699.152 259.904C697.04 266.416 695.016 272.488 693.08 278.12C691.32 283.576 690.088 287.36 689.384 289.472C704.52 290 718.864 289.208 732.416 287.096C736.112 272.136 743.768 252.952 755.384 229.544C761.016 218.104 767.264 208.688 774.128 201.296C781.168 193.728 787.592 189.944 793.4 189.944C797.096 189.944 800.264 191.528 802.904 194.696C804.664 195.928 805.544 197.336 805.544 198.92C805.72 202.264 801.672 207.016 793.4 213.176C805.544 219.16 813.64 226.288 817.688 234.56C821.56 242.48 823.496 252.776 823.496 265.448C823.496 280.76 819.712 296.776 812.144 313.496C804.224 330.568 795.072 344.472 784.688 355.208C774.128 366.12 764.448 371.576 755.648 371.576C750.896 371.576 746.584 370.168 742.712 367.352C735.32 361.896 730.48 354.768 728.192 345.968C725.728 336.64 725.816 322.208 728.456 302.672C724.056 303.904 709.096 304.872 683.576 305.576C680.408 315.96 676.8 328.808 672.752 344.12ZM754.328 355.208C756.968 355.208 760.312 353.888 764.36 351.248C768.408 348.256 773.336 343.416 779.144 336.728C785.128 329.512 791.464 319.216 798.152 305.84C804.84 292.112 808.184 279.088 808.184 266.768C808.184 259.2 807.04 251.984 804.752 245.12C802.816 239.488 799.912 235.176 796.04 232.184C792.168 229.192 788.12 227.696 783.896 227.696C778.792 227.696 772.984 234.648 766.472 248.552C760.136 261.576 754.68 276.712 750.104 293.96C745.88 310.68 743.768 323.352 743.768 331.976C743.768 347.464 747.288 355.208 754.328 355.208ZM889.56 361.808C887.8 361.808 885.776 361.368 883.488 360.488C877.152 357.32 872.928 351.424 870.816 342.8C869.936 338.4 869.496 334.352 869.496 330.656C869.496 327.136 869.76 323.44 870.288 319.568C857.616 341.92 845.824 353.096 834.912 353.096C830.16 353.096 825.936 351.336 822.24 347.816C818.544 344.296 816.696 340.16 816.696 335.408C816.344 331.888 817.4 328.544 819.864 325.376C822.328 322.208 825.32 320.8 828.84 321.152C832.536 321.504 835.44 324.232 837.552 329.336C838.432 331.272 839.488 332.24 840.72 332.24C841.072 332.592 841.688 332.416 842.568 331.712C843.448 330.832 844.504 329.688 845.736 328.28C846.968 326.696 847.76 325.728 848.112 325.376C856.56 315.344 863.776 303.376 869.76 289.472C871.696 284.72 875.304 278.472 880.584 270.728C881.112 270.024 881.816 269.672 882.696 269.672C884.984 269.672 887.536 271.08 890.352 273.896C893.52 276.888 895.104 279.352 895.104 281.288C895.456 284.632 893.432 291.496 889.032 301.88C886.392 309.8 885.072 317.016 885.072 323.528C885.072 328.632 885.864 333.824 887.448 339.104C889.208 345.088 892.2 348.08 896.424 348.08C901.704 348.08 910.504 342.272 922.824 330.656C925.288 328.896 926.52 328.72 926.52 330.128C926.52 332.416 924.408 336.464 920.184 342.272C915.96 348.08 911.208 352.656 905.928 356C899.944 359.872 894.488 361.808 889.56 361.808ZM934.735 363.92C919.423 361.28 915.639 345.792 923.383 317.456C926.551 306.016 929.895 295.368 933.415 285.512C937.991 273.016 941.511 266.24 943.975 265.184C946.615 264.304 949.871 265.536 953.743 268.88C957.967 272.4 960.079 276.008 960.079 279.704C960.079 281.464 959.463 283.488 958.231 285.776C951.895 297.568 946.175 309.712 941.071 322.208C936.495 336.64 934.999 344.208 936.583 344.912H937.639C937.815 344.912 939.399 343.328 942.391 340.16C948.023 333.296 956.295 323.968 967.207 312.176L973.543 303.992C976.535 300.12 979.527 296.512 982.519 293.168C982.871 292.816 984.103 291.056 986.215 287.888C988.327 284.544 990.439 281.728 992.551 279.44C994.663 276.976 996.247 275.832 997.303 276.008C999.239 275.832 1001.35 276.536 1003.64 278.12C1006.1 279.704 1007.86 281.464 1008.92 283.4C1009.8 284.808 1010.33 286.04 1010.5 287.096C1010.68 287.976 1010.68 288.768 1010.5 289.472C1010.33 290 1009.97 290.968 1009.45 292.376C1009.09 293.784 1008.74 295.104 1008.39 296.336C1004.52 307.072 1001.61 317.016 999.679 326.168C997.215 338.664 998.447 344.912 1003.37 344.912C1010.06 344.912 1019.83 341.216 1032.68 333.824L1040.33 329.6C1041.57 329.072 1042.18 329.16 1042.18 329.864C1042.01 332.68 1038.4 337.696 1031.36 344.912C1022.91 353.712 1015.25 358.464 1008.39 359.168C999.943 359.872 993.167 356.616 988.063 349.4C982.959 342.184 981.903 331.272 984.895 316.664C981.199 320.888 975.743 327.224 968.527 335.672C952.159 355.208 940.895 364.624 934.735 363.92ZM1103.13 359.696C1096.97 360.224 1091.6 358.64 1087.02 354.944C1082.45 351.072 1080.16 345.264 1080.16 337.52C1080.16 331.888 1081.66 324.848 1084.65 316.4C1080.25 324.32 1073.47 333.032 1064.32 342.536C1055.34 351.512 1047.34 356 1040.3 356C1029.03 356 1022.43 350.28 1020.5 338.84C1020.14 336.024 1019.97 334.352 1019.97 333.824C1019.97 326.08 1022.7 322.208 1028.15 322.208C1031.14 322.208 1033.78 324.408 1036.07 328.808C1038.71 333.032 1041.09 335.144 1043.2 335.144C1046.9 335.144 1051.12 333.12 1055.87 329.072L1060.36 325.112L1071.45 314.552C1068.63 315.08 1065.99 315.344 1063.53 315.344C1052.97 315.344 1047.69 311.12 1047.69 302.672C1047.69 295.632 1051.74 288.064 1059.83 279.968C1068.1 271.696 1077.7 267.56 1088.61 267.56C1100.58 267.56 1106.56 271.344 1106.56 278.912C1106.56 283.136 1104.54 287.976 1100.49 293.432C1104.18 292.904 1106.21 292.64 1106.56 292.64C1109.55 292.64 1110.87 293.696 1110.52 295.808C1110.52 296.16 1109.99 297.304 1108.94 299.24C1107.88 301 1106.56 303.2 1104.98 305.84C1103.57 308.48 1102.42 310.768 1101.54 312.704C1097.14 323.792 1094.94 331.888 1094.94 336.992C1094.94 340.512 1096.26 342.976 1098.9 344.384C1100.14 345.088 1101.98 345.44 1104.45 345.44C1108.67 345.44 1113.16 344.296 1117.91 342.008C1120.9 340.776 1124.16 339.104 1127.68 336.992C1131.2 334.88 1134.02 333.12 1136.13 331.712C1138.24 330.304 1139.38 329.6 1139.56 329.6C1140.79 328.896 1141.41 328.896 1141.41 329.6C1141.23 332.24 1137.71 337.08 1130.85 344.12C1121.17 353.8 1111.93 358.992 1103.13 359.696ZM1070.92 303.728C1074.26 303.728 1077.7 302.672 1081.22 300.56C1084.91 298.272 1087.55 295.896 1089.14 293.432C1090.02 289.912 1090.46 287.272 1090.46 285.512C1090.46 282.168 1088.87 280.496 1085.7 280.496C1081.48 280.496 1076.9 282.696 1071.98 287.096C1067.22 291.496 1064.85 295.544 1064.85 299.24C1064.85 302.232 1066.87 303.728 1070.92 303.728Z" fill="#834A12"/>
<mask id="path-3-inside-1_7_148" fill="white">
<path d="M669.936 204.846V215.1C661.635 215.783 655.531 218.469 651.625 223.156C648.402 227.062 645.326 234.875 642.396 246.594C636.244 270.812 626.332 291.174 612.66 307.678C619.691 314.221 625.648 318.859 630.531 321.594C634.633 323.84 638.93 324.963 643.422 324.963C654.75 324.963 663.588 314.807 669.936 294.494L680.482 299.621C676.967 314.367 672.523 325.354 667.152 332.58C660.512 341.467 651.918 345.91 641.371 345.91C632.387 345.91 623.354 342.688 614.271 336.242C609.779 333.117 604.457 328.625 598.305 322.766C590.785 329.504 583.656 334.533 576.918 337.854C565.883 343.225 552.65 345.91 537.221 345.91C517.006 345.91 499.623 341.076 485.072 331.408C465.346 318.42 455.482 300.109 455.482 276.477C455.482 257.531 462.465 241.516 476.43 228.43C484.047 221.301 495.668 213.342 511.293 204.553C499.672 182.58 493.861 164.562 493.861 150.5C493.861 137.902 497.67 127.258 505.287 118.566C514.76 107.727 527.846 102.307 544.545 102.307C553.041 102.307 560.658 103.82 567.396 106.848C583.021 113.977 590.834 126.525 590.834 144.494C590.834 158.947 584.779 171.838 572.67 183.166C564.857 190.49 552.406 198.791 535.316 208.068C543.715 222.229 553.92 237.316 565.932 253.332C579.213 270.91 591.078 285.266 601.527 296.398C610.414 285.07 617.152 272.424 621.742 258.459C624.965 248.791 626.576 240.93 626.576 234.875C626.576 228.234 623.549 223.303 617.494 220.08C613.002 217.736 605.678 216.076 595.521 215.1V204.846H669.936ZM518.471 216.857C504.896 224.768 495.18 232.678 489.32 240.588C482.582 249.67 479.213 261.291 479.213 275.451C479.213 291.564 485.463 304.455 497.963 314.123C509.877 323.498 524.867 328.186 542.934 328.186C558.852 328.186 573.402 322.57 586.586 311.34C578.676 302.453 569.105 290.441 557.875 275.305C542.543 254.699 529.408 235.217 518.471 216.857ZM528.432 195.178C539.857 188.244 549.721 181.164 558.021 173.938C566.322 166.809 570.473 157.189 570.473 145.08C570.473 136.486 568.324 129.553 564.027 124.279C559.242 118.42 552.797 115.49 544.691 115.49C536.195 115.49 529.164 118.273 523.598 123.84C517.348 129.992 514.223 138.488 514.223 149.328C514.223 161.438 518.959 176.721 528.432 195.178Z"/>
</mask>
<path d="M669.936 204.846H675.936V198.846H669.936V204.846ZM669.936 215.1L670.428 221.079L675.936 220.626V215.1H669.936ZM651.625 223.156L647.016 219.315L647.006 219.327L646.997 219.338L651.625 223.156ZM642.396 246.594L648.212 248.071L648.215 248.06L648.217 248.049L642.396 246.594ZM612.66 307.678L608.04 303.85L604.426 308.212L608.573 312.07L612.66 307.678ZM630.531 321.594L627.6 326.829L627.624 326.843L627.649 326.856L630.531 321.594ZM669.936 294.494L672.559 289.098L666.288 286.05L664.209 292.704L669.936 294.494ZM680.482 299.621L686.319 301.013L687.435 296.33L683.106 294.225L680.482 299.621ZM667.152 332.58L671.959 336.172L671.963 336.165L671.968 336.159L667.152 332.58ZM614.271 336.242L617.744 331.349L617.721 331.333L617.698 331.317L614.271 336.242ZM598.305 322.766L602.443 318.421L598.429 314.598L594.301 318.297L598.305 322.766ZM576.918 337.854L579.544 343.248L579.557 343.242L579.57 343.236L576.918 337.854ZM485.072 331.408L488.393 326.411L488.382 326.404L488.372 326.397L485.072 331.408ZM476.43 228.43L472.33 224.049L472.327 224.052L476.43 228.43ZM511.293 204.553L514.235 209.782L519.33 206.916L516.597 201.748L511.293 204.553ZM505.287 118.566L509.799 122.521L509.805 122.515L505.287 118.566ZM567.396 106.848L569.887 101.389L569.871 101.382L569.855 101.375L567.396 106.848ZM572.67 183.166L568.571 178.784L568.566 178.789L572.67 183.166ZM535.316 208.068L532.454 202.795L526.977 205.769L530.156 211.129L535.316 208.068ZM565.932 253.332L561.132 256.932L561.138 256.941L561.144 256.949L565.932 253.332ZM601.527 296.398L597.153 300.505L601.935 305.6L606.248 300.102L601.527 296.398ZM621.742 258.459L616.05 256.562L616.046 256.574L616.042 256.586L621.742 258.459ZM617.494 220.08L620.313 214.784L620.291 214.772L620.27 214.761L617.494 220.08ZM595.521 215.1H589.521V220.55L594.947 221.072L595.521 215.1ZM595.521 204.846V198.846H589.521V204.846H595.521ZM518.471 216.857L523.625 213.787L520.584 208.682L515.45 211.673L518.471 216.857ZM489.32 240.588L494.139 244.163L494.142 244.159L489.32 240.588ZM497.963 314.123L501.673 309.408L501.654 309.392L501.634 309.377L497.963 314.123ZM586.586 311.34L590.477 315.907L595.145 311.931L591.068 307.351L586.586 311.34ZM557.875 275.305L562.694 271.73L562.689 271.723L557.875 275.305ZM528.432 195.178L523.094 197.917L526.036 203.65L531.544 200.307L528.432 195.178ZM558.021 173.938L554.112 169.386L554.097 169.399L554.082 169.412L558.021 173.938ZM564.027 124.279L568.679 120.489L568.675 120.484L564.027 124.279ZM523.598 123.84L527.807 128.116L527.824 128.099L527.84 128.082L523.598 123.84ZM669.936 204.846H663.936V215.1H669.936H675.936V204.846H669.936ZM669.936 215.1L669.443 209.12C660.14 209.886 652.283 212.995 647.016 219.315L651.625 223.156L656.234 226.997C658.78 223.943 663.13 221.68 670.428 221.079L669.936 215.1ZM651.625 223.156L646.997 219.338C642.823 224.397 639.501 233.436 636.576 245.139L642.396 246.594L648.217 248.049C651.151 236.314 653.982 229.728 656.253 226.975L651.625 223.156ZM642.396 246.594L636.581 245.116C630.612 268.615 621.057 288.136 608.04 303.85L612.66 307.678L617.281 311.505C631.607 294.212 641.877 273.01 648.212 248.071L642.396 246.594ZM612.66 307.678L608.573 312.07C615.743 318.743 622.106 323.752 627.6 326.829L630.531 321.594L633.463 316.359C629.191 313.966 623.64 309.699 616.748 303.285L612.66 307.678ZM630.531 321.594L627.649 326.856C632.597 329.566 637.88 330.963 643.422 330.963V324.963V318.963C639.979 318.963 636.669 318.114 633.413 316.331L630.531 321.594ZM643.422 324.963V330.963C651.152 330.963 657.75 327.401 663.073 321.284C668.26 315.323 672.369 306.823 675.662 296.284L669.936 294.494L664.209 292.704C661.154 302.478 657.67 309.212 654.02 313.407C650.505 317.447 647.02 318.963 643.422 318.963V324.963ZM669.936 294.494L667.312 299.89L677.859 305.017L680.482 299.621L683.106 294.225L672.559 289.098L669.936 294.494ZM680.482 299.621L674.646 298.23C671.207 312.653 667.001 322.726 662.337 329.001L667.152 332.58L671.968 336.159C678.046 327.981 682.726 316.082 686.319 301.013L680.482 299.621ZM667.152 332.58L662.346 328.989C656.769 336.451 649.914 339.91 641.371 339.91V345.91V351.91C653.922 351.91 664.254 346.482 671.959 336.172L667.152 332.58ZM641.371 345.91V339.91C633.902 339.91 626.057 337.249 617.744 331.349L614.271 336.242L610.799 341.135C620.65 348.126 630.872 351.91 641.371 351.91V345.91ZM614.271 336.242L617.698 331.317C613.555 328.435 608.48 324.171 602.443 318.421L598.305 322.766L594.167 327.11C600.434 333.079 606.004 337.8 610.845 341.168L614.271 336.242ZM598.305 322.766L594.301 318.297C587.058 324.787 580.379 329.459 574.266 332.471L576.918 337.854L579.57 343.236C586.934 339.607 594.512 334.22 602.309 327.234L598.305 322.766ZM576.918 337.854L574.292 332.459C564.258 337.343 551.968 339.91 537.221 339.91V345.91V351.91C553.332 351.91 567.508 349.107 579.544 343.248L576.918 337.854ZM537.221 345.91V339.91C517.997 339.91 501.812 335.327 488.393 326.411L485.072 331.408L481.752 336.406C497.434 346.825 516.015 351.91 537.221 351.91V345.91ZM485.072 331.408L488.372 326.397C470.332 314.519 461.482 298.093 461.482 276.477H455.482H449.482C449.482 302.126 460.359 322.32 481.773 336.419L485.072 331.408ZM455.482 276.477H461.482C461.482 259.209 467.764 244.773 480.532 232.808L476.43 228.43L472.327 224.052C457.166 238.259 449.482 255.853 449.482 276.477H455.482ZM476.43 228.43L480.53 232.81C487.633 226.162 498.775 218.478 514.235 209.782L511.293 204.553L508.351 199.323C492.561 208.205 480.46 216.44 472.33 224.049L476.43 228.43ZM511.293 204.553L516.597 201.748C505.132 180.07 499.861 163.097 499.861 150.5H493.861H487.861C487.861 166.028 494.212 185.09 505.989 207.358L511.293 204.553ZM493.861 150.5H499.861C499.861 139.216 503.231 130.016 509.799 122.521L505.287 118.566L500.775 114.612C492.109 124.499 487.861 136.589 487.861 150.5H493.861ZM505.287 118.566L509.805 122.515C517.951 113.193 529.271 108.307 544.545 108.307V102.307V96.3066C526.421 96.3066 511.568 102.26 500.769 114.618L505.287 118.566ZM544.545 102.307V108.307C552.32 108.307 559.08 109.689 564.938 112.321L567.396 106.848L569.855 101.375C562.236 97.9515 553.762 96.3066 544.545 96.3066V102.307ZM567.396 106.848L564.906 112.306C571.823 115.462 576.695 119.659 579.881 124.777C583.079 129.913 584.834 136.388 584.834 144.494H590.834H596.834C596.834 134.631 594.683 125.848 590.068 118.435C585.442 111.004 578.595 105.362 569.887 101.389L567.396 106.848ZM590.834 144.494H584.834C584.834 157.036 579.664 168.407 568.571 178.784L572.67 183.166L576.769 187.548C589.895 175.268 596.834 160.858 596.834 144.494H590.834ZM572.67 183.166L568.566 178.789C561.315 185.587 549.396 193.598 532.454 202.795L535.316 208.068L538.179 213.341C555.417 203.984 568.4 195.394 576.774 187.543L572.67 183.166ZM535.316 208.068L530.156 211.129C538.685 225.51 549.017 240.779 561.132 256.932L565.932 253.332L570.732 249.732C558.823 233.854 548.745 218.947 540.477 205.008L535.316 208.068ZM565.932 253.332L561.144 256.949C574.503 274.63 586.509 289.165 597.153 300.505L601.527 296.398L605.902 292.292C595.647 281.366 583.922 267.19 570.719 249.715L565.932 253.332ZM601.527 296.398L606.248 300.102C615.574 288.214 622.639 274.945 627.442 260.332L621.742 258.459L616.042 256.586C611.665 269.902 605.254 281.927 596.807 292.695L601.527 296.398ZM621.742 258.459L627.434 260.356C630.742 250.434 632.576 241.867 632.576 234.875H626.576H620.576C620.576 239.993 619.188 247.148 616.05 256.562L621.742 258.459ZM626.576 234.875H632.576C632.576 230.613 631.594 226.6 629.419 223.057C627.251 219.524 624.108 216.803 620.313 214.784L617.494 220.08L614.675 225.377C616.935 226.579 618.333 227.936 619.192 229.335C620.045 230.723 620.576 232.496 620.576 234.875H626.576ZM617.494 220.08L620.27 214.761C614.699 211.854 606.401 210.118 596.096 209.127L595.521 215.1L594.947 221.072C604.955 222.034 611.305 223.618 614.719 225.4L617.494 220.08ZM595.521 215.1H601.521V204.846H595.521H589.521V215.1H595.521ZM595.521 204.846V210.846H669.936V204.846V198.846H595.521V204.846ZM518.471 216.857L515.45 211.673C501.543 219.777 491.046 228.178 484.499 237.017L489.32 240.588L494.142 244.159C499.314 237.177 508.25 229.758 521.492 222.041L518.471 216.857ZM489.32 240.588L484.502 237.013C476.821 247.365 473.213 260.332 473.213 275.451H479.213H485.213C485.213 262.25 488.343 251.975 494.139 244.163L489.32 240.588ZM479.213 275.451H473.213C473.213 293.379 480.289 308.039 494.292 318.869L497.963 314.123L501.634 309.377C490.636 300.871 485.213 289.75 485.213 275.451H479.213ZM497.963 314.123L494.253 318.838C507.417 329.197 523.789 334.186 542.934 334.186V328.186V322.186C525.946 322.186 512.337 317.799 501.673 309.408L497.963 314.123ZM542.934 328.186V334.186C560.407 334.186 576.31 327.975 590.477 315.907L586.586 311.34L582.695 306.772C570.494 317.166 557.296 322.186 542.934 322.186V328.186ZM586.586 311.34L591.068 307.351C583.323 298.65 573.871 286.795 562.694 271.73L557.875 275.305L553.056 278.88C564.339 294.087 574.028 306.256 582.104 315.329L586.586 311.34ZM557.875 275.305L562.689 271.723C547.455 251.25 534.44 231.939 523.625 213.787L518.471 216.857L513.316 219.928C524.377 238.494 537.631 258.148 553.061 278.886L557.875 275.305ZM528.432 195.178L531.544 200.307C543.203 193.232 553.355 185.956 561.961 178.463L558.021 173.938L554.082 169.412C546.087 176.373 536.512 183.256 525.319 190.048L528.432 195.178ZM558.021 173.938L561.931 178.489C571.71 170.09 576.473 158.729 576.473 145.08H570.473H564.473C564.473 155.65 560.934 163.527 554.112 169.386L558.021 173.938ZM570.473 145.08H576.473C576.473 135.477 574.057 127.09 568.679 120.489L564.027 124.279L559.376 128.069C562.592 132.016 564.473 137.496 564.473 145.08H570.473ZM564.027 124.279L568.675 120.484C562.66 113.119 554.451 109.49 544.691 109.49V115.49V121.49C551.143 121.49 555.825 123.721 559.38 128.075L564.027 124.279ZM544.691 115.49V109.49C534.743 109.49 526.141 112.811 519.355 119.597L523.598 123.84L527.84 128.082C532.187 123.736 537.647 121.49 544.691 121.49V115.49ZM523.598 123.84L519.389 119.564C511.734 127.099 508.223 137.284 508.223 149.328H514.223H520.223C520.223 139.693 522.961 132.886 527.807 128.116L523.598 123.84ZM514.223 149.328H508.223C508.223 162.844 513.455 179.138 523.094 197.917L528.432 195.178L533.77 192.438C524.463 174.304 520.223 160.031 520.223 149.328H514.223Z" fill="#834A12" mask="url(#path-3-inside-1_7_148)"/>
</g>
<defs>
<filter id="filter0_d_7_148" x="0" y="85.496" width="1145.41" height="305.96" filterUnits="userSpaceOnUse" color-interpolation-filters="sRGB">
<feFlood flood-opacity="0" result="BackgroundImageFix"/>
<feColorMatrix in="SourceAlpha" type="matrix" values="0 0 0 0 0 0 0 0 0 0 0 0 0 0 0 0 0 0 127 0" result="hardAlpha"/>
<feOffset dy="4"/>
<feGaussianBlur stdDeviation="2"/>
<feComposite in2="hardAlpha" operator="out"/>
<feColorMatrix type="matrix" values="0 0 0 0 0 0 0 0 0 0 0 0 0 0 0 0 0 0 0.25 0"/>
<feBlend mode="normal" in2="BackgroundImageFix" result="effect1_dropShadow_7_148"/>
<feBlend mode="normal" in="SourceGraphic" in2="effect1_dropShadow_7_148" result="shape"/>
</filter>
</defs>
</svg>
