<svg version="1.0" xmlns="http://www.w3.org/2000/svg" width="512.000000pt" height="512.000000pt" viewBox="0 0 512.000000 512.000000" preserveAspectRatio="xMidYMid meet" style="max-width: 100%; max-height: 100%; width: auto; height: auto; transform: scale(1);">

<g transform="translate(0.000000,512.000000) scale(0.100000,-0.100000)" fill="#02281c" stroke="none" data-element-index="0" style="cursor: pointer; fill: rgb(2, 40, 28);">
<path d="M2395 4634 c-157 -18 -228 -31 -340 -59 -487 -125 -923 -427 -1204
-835 l-51 -74 0 143 c0 137 -1 143 -25 166 -15 16 -36 25 -55 25 -19 0 -40 -9
-55 -25 l-25 -24 0 -296 0 -295 -80 0 -80 0 0 295 0 296 -25 24 c-32 33 -78
33 -110 0 l-25 -24 0 -296 0 -295 -80 0 -80 0 0 295 0 296 -25 24 c-15 16 -36
25 -55 25 -19 0 -40 -9 -55 -25 l-25 -24 0 -514 c0 -598 -3 -579 100 -732 l60
-90 0 -964 c0 -727 3 -974 12 -1005 26 -86 136 -166 228 -166 92 0 202 80 228
166 9 30 12 186 12 575 l0 534 44 -90 c168 -353 461 -676 797 -881 608 -371
1364 -403 1998 -84 224 112 371 218 552 399 134 134 226 251 311 395 l53 89 5
-464 c6 -524 3 -505 86 -578 118 -103 290 -69 367 74 l22 40 3 1057 2 1057 74
72 c162 155 199 318 132 579 -66 260 -201 483 -332 550 -68 35 -160 35 -228 0
-57 -29 -140 -115 -191 -200 -21 -34 -41 -58 -45 -53 -4 4 -32 42 -63 83 -347
469 -881 771 -1466 830 -96 9 -297 11 -366 4z m470 -178 c359 -64 674 -211
944 -439 134 -114 288 -293 376 -438 l35 -56 -25 -99 c-67 -268 -32 -427 131
-584 l74 -71 0 -378 0 -377 -29 -87 c-129 -382 -394 -723 -745 -958 -728 -490
-1674 -426 -2342 159 -100 86 -204 204 -296 333 -84 117 -206 360 -252 499
-58 178 -95 406 -96 580 l0 75 60 90 c91 135 100 175 100 421 l0 204 41 82
c265 528 764 911 1338 1028 57 11 135 25 174 30 104 13 406 4 512 -14z m1837
-641 c73 -49 168 -223 224 -410 20 -68 27 -113 28 -185 1 -126 -21 -175 -130
-285 -57 -57 -83 -92 -92 -121 -9 -31 -12 -297 -12 -1077 l0 -1035 -26 -31
c-33 -39 -74 -41 -109 -6 l-25 24 0 1042 c0 780 -3 1052 -12 1083 -9 30 -33
62 -90 118 -109 108 -133 161 -132 288 3 248 192 620 314 620 14 0 42 -11 62
-25z m-4062 -744 c0 -151 -8 -179 -80 -286 -28 -42 -58 -94 -66 -117 -12 -34
-14 -192 -14 -1010 l0 -969 -25 -24 c-32 -33 -78 -33 -110 0 l-25 24 0 969 c0
818 -2 976 -14 1010 -8 23 -38 75 -66 117 -72 107 -80 135 -80 286 l0 129 240
0 240 0 0 -129z" data-element-index="1" style="cursor: pointer;"></path>
<path d="M2420 3913 c-533 -57 -983 -422 -1154 -935 -118 -357 -72 -774 121
-1100 l53 -90 0 -122 c0 -194 41 -306 149 -409 103 -98 210 -137 379 -137 94
0 108 -2 148 -26 31 -18 65 -28 109 -32 61 -4 66 -7 86 -38 51 -83 156 -144
249 -144 95 0 197 59 250 145 18 30 25 33 85 37 44 4 78 14 109 32 40 24 54
26 148 26 169 0 276 39 379 137 108 103 149 215 149 409 l0 122 53 90 c258
435 246 988 -31 1417 -275 427 -782 672 -1282 618z m400 -182 c352 -80 651
-315 814 -639 86 -172 121 -328 120 -542 0 -133 -4 -170 -26 -260 -33 -132
-85 -256 -152 -362 l-51 -83 -56 -3 -56 -3 13 53 c8 30 14 104 14 176 0 117
-1 124 -25 147 -24 25 -27 25 -187 25 -224 0 -322 -28 -423 -121 l-43 -40 -44
31 c-91 64 -225 64 -316 0 l-44 -31 -43 40 c-101 93 -199 121 -423 121 -160 0
-163 0 -187 -25 -24 -23 -25 -30 -25 -147 0 -72 6 -146 14 -176 l13 -53 -56 3
-56 3 -51 83 c-67 106 -119 230 -152 362 -23 91 -26 126 -26 265 -1 173 14
268 61 400 106 294 322 539 601 679 93 47 225 90 322 106 41 6 82 13 90 15 42
11 302 -6 380 -24z m-670 -1692 c35 -19 65 -40 67 -45 2 -6 -22 -18 -53 -28
-70 -22 -154 -100 -174 -161 -19 -59 -26 -62 -61 -24 -52 55 -82 132 -87 223
l-5 79 124 -5 c120 -4 127 -5 189 -39z m1128 -37 c-5 -89 -36 -167 -87 -221
-35 -38 -42 -35 -61 24 -20 61 -104 139 -174 161 -31 10 -55 22 -53 27 5 15
103 69 140 77 18 5 79 8 136 9 l104 1 -5 -78z m-639 -30 c25 -18 43 -56 55
-114 9 -41 58 -64 106 -49 108 32 190 -17 190 -114 0 -43 -12 -65 -60 -114
-40 -40 -40 -82 0 -122 48 -49 60 -71 60 -114 -1 -97 -87 -149 -189 -114 -24
8 -39 8 -62 -1 -33 -14 -43 -29 -53 -78 -14 -75 -79 -121 -151 -108 -63 12
-89 45 -109 138 -9 41 -58 63 -106 49 -55 -16 -101 -13 -134 8 -39 26 -55 57
-56 106 0 43 12 65 60 114 40 40 40 82 0 122 -48 49 -60 71 -60 114 0 45 26
92 62 111 29 16 85 18 127 3 24 -8 39 -8 62 1 33 14 43 29 53 79 3 19 13 46
22 59 34 52 129 65 183 24z m-791 -332 c25 -22 74 -54 109 -72 34 -17 63 -35
63 -41 0 -6 -10 -31 -22 -56 -15 -31 -24 -70 -26 -120 l-4 -74 -68 6 c-118 10
-206 67 -260 168 -27 51 -33 75 -38 145 l-5 84 103 0 102 0 46 -40z m1670 -43
c-9 -132 -61 -219 -167 -276 -45 -24 -79 -34 -130 -38 l-69 -6 -4 74 c-2 50
-11 89 -26 120 -12 25 -22 50 -22 56 0 6 29 24 64 42 35 17 83 49 107 71 l44
39 104 1 104 0 -5 -83z" data-element-index="2" style="cursor: pointer;"></path>
<path d="M2480 1747 c-49 -16 -133 -102 -148 -153 -28 -94 -8 -169 63 -239
102 -103 243 -101 338 5 90 100 90 220 0 320 -65 72 -158 97 -253 67z m135
-172 c50 -49 15 -135 -55 -135 -19 0 -40 9 -55 25 -16 15 -25 36 -25 55 0 19
9 40 25 55 15 16 36 25 55 25 19 0 40 -9 55 -25z" data-element-index="3" style="cursor: pointer;"></path>
</g>
</svg>