<svg version="1.0" xmlns="http://www.w3.org/2000/svg" width="512.000000pt" height="512.000000pt" viewBox="0 0 512.000000 512.000000" preserveAspectRatio="xMidYMid meet" style="max-width: 100%; max-height: 100%; width: auto; height: auto; transform: scale(1);">

<g transform="translate(0.000000,512.000000) scale(0.100000,-0.100000)" fill="#02281c" stroke="none" data-element-index="0" style="cursor: pointer; fill: rgb(2, 40, 28);">
<path d="M2918 5073 c-16 -20 -38 -89 -38 -120 0 -53 67 -76 101 -34 10 12 23
46 30 76 11 49 10 57 -6 75 -22 25 -67 26 -87 3z" data-element-index="1" style="cursor: pointer;"></path>
<path d="M1488 4973 c-17 -21 -562 -1710 -578 -1792 -28 -151 -2 -322 72 -471
56 -112 187 -247 296 -303 39 -21 72 -40 72 -43 0 -9 -509 -1586 -514 -1591
-2 -2 -95 25 -207 61 -112 36 -216 66 -231 66 -56 0 -74 -74 -25 -104 45 -28
969 -318 994 -311 32 8 50 47 35 80 -10 21 -42 34 -231 95 l-219 70 42 133
c95 297 470 1462 472 1465 1 2 40 -2 88 -8 224 -30 456 56 617 228 100 107
125 158 225 461 51 152 94 269 97 261 4 -8 72 -220 152 -470 80 -250 161 -486
179 -525 94 -198 275 -344 492 -396 74 -18 107 -20 194 -15 58 3 114 7 124 8
17 3 48 -84 273 -782 139 -432 254 -792 255 -799 2 -11 -53 -33 -206 -83 -115
-37 -217 -75 -228 -84 -37 -34 -10 -94 42 -94 24 0 141 36 713 221 246 80 279
93 287 115 12 31 -6 73 -35 80 -17 4 -412 -113 -446 -132 -6 -3 -523 1595
-517 1600 1 2 30 17 64 35 233 123 384 377 384 648 0 48 -7 117 -16 153 -16
72 -550 1733 -565 1762 -5 10 -20 20 -32 23 -14 4 -165 -40 -407 -118 -212
-68 -386 -123 -387 -123 -1 1 14 51 33 111 36 113 37 147 6 164 -9 5 -123 43
-252 84 -129 42 -418 134 -641 206 -223 72 -417 131 -431 131 -14 0 -32 -8
-40 -17z m667 -303 c314 -100 574 -186 578 -190 7 -7 -223 -743 -236 -756 -3
-3 -252 74 -553 171 -302 97 -564 181 -581 186 -18 6 -33 16 -33 24 0 10 209
671 235 743 3 7 8 11 12 9 5 -2 264 -86 578 -187z m1521 -650 c78 -244 117
-377 110 -381 -6 -4 -267 -89 -581 -189 -313 -100 -573 -184 -576 -186 -3 -2
-23 48 -43 110 l-36 113 108 333 107 332 380 123 c209 68 387 122 395 121 10
-1 52 -116 136 -376z m-1791 -232 c308 -99 563 -183 567 -187 11 -10 -239
-777 -275 -846 -39 -74 -130 -172 -205 -221 -31 -21 -95 -51 -142 -68 -75 -27
-98 -30 -195 -30 -92 1 -123 5 -192 27 -199 66 -357 238 -409 446 -11 46 -15
94 -12 165 4 97 9 117 134 503 119 371 131 402 149 397 11 -4 272 -87 580
-186z m2070 -635 c139 -434 145 -454 145 -558 1 -339 -274 -614 -612 -615
-107 0 -168 15 -275 66 -124 59 -214 148 -272 266 -37 76 -286 827 -277 836 3
2 235 78 518 169 282 91 538 173 568 183 30 10 62 18 71 19 11 1 43 -87 134
-366z" data-element-index="2" style="cursor: pointer;"></path>
<path d="M2535 4965 c-14 -13 -25 -32 -25 -41 0 -27 93 -114 122 -114 31 0 58
29 58 62 0 28 -87 118 -115 118 -9 0 -27 -11 -40 -25z" data-element-index="3" style="cursor: pointer;"></path>
<path d="M3160 4788 c-49 -14 -60 -26 -60 -63 0 -48 20 -59 87 -51 93 11 132
51 99 101 -18 28 -61 32 -126 13z" data-element-index="4" style="cursor: pointer;"></path>
</g>
</svg>