<svg xmlns="http://www.w3.org/2000/svg" width="108.85" height="98.44" viewBox="0 0 108.85 98.44" style="max-width: 100%; max-height: 100%; width: auto; height: auto; transform: scale(1);"> <defs> <style> .a { fill: #472b13; } </style> </defs> <g data-element-index="0" style="cursor: pointer;"> <path class="a selected-element" d="M647.23,270.82c-.24,0-.54-.1-.71,0-.5.33-.81.85-1.49,1.05-.52.15-.84.84-1.51,1-.31.07.07.86-.57.81-.39,0-.58.26-.75.5-.52.72-1.39.92-2.05,1.42-.17.13-.45.13-.6.27a15.55,15.55,0,0,0-1.85,1.87c-.5.67-1.42.66-1.86,1.34s-1.13.77-1.66,1.19-.88,1.08-1.67,1.21c-.26.05-.43.46-.69.64-.5.37-.71,1.1-1.43,1.16s-.74,1-1.52,1c-.23,0-.49.35-.71.57-.85.84-1.75,1.64-2.52,2.55-.44.52-1.06.62-1.52,1s-.81.74-1.21,1.12c-.89-.25-.4.95-1,.95s-.87.62-1.29.95-.51.57-1,.54c-.1,0-.17.57-.36.76s-.63.17-.78.37c-.28.41-1.28,0-1,1a6,6,0,0,1-1.37.71,1.28,1.28,0,0,0-1,.86c-.2.77-.82,1.09-1.31,1.57-.59-.09-.77.48-1.14.73s-.72,1.1-1.42,1.18-.8.9-1.52,1c-.46.08-.83.64-1.29.91a9.74,9.74,0,0,0-1.57.82c-.42.35-1-.12-1.31.32s-.78.38-1.16-.06-.62-.73-1.19-.59c-.08,0-.19,0-.24,0a4.92,4.92,0,0,1-1.81-2c-.19-.6-.39-.1-.6,0a.5.5,0,0,1-.32-.11c.1-.59-.32-1.27.29-1.79a.48.48,0,0,0,.15-.4c-.3-1.05.37-1.66,1.06-2.19.38-.3.93-.34,1-1a.93.93,0,0,1,.67-.59,1.68,1.68,0,0,0,1.45-.59c.28-.36.73-.61.69-1.17,0,0,.24-.17.38-.18.54-.07.77-.47,1-.87l1.52-1.54a10.83,10.83,0,0,0,1.34-1.28c.2-.27-.19-.91.25-1.06a2,2,0,0,0,1-.54,1.08,1.08,0,0,0,.23-.38,2.1,2.1,0,0,1,1.35-1.49c.47-.19.5-.39.63-.77a1.39,1.39,0,0,1,.88-.7c.69-.17.94-.81,1.41-1.2.13-.1.07-.45.06-.68s.1-.55.32-.52c.59.07.82-.72,1.48-.52s.63-.27.61-.72a1,1,0,0,1,.18-.63c.53-.56,1-1.26,2-1.06.13,0,.32-.33.51-.47s.07-.39-.09-.51-.23-.3,0-.33a2.11,2.11,0,0,0,1.16-.69c1.06-1.08,2.2-2.1,3.18-3.25.38-.43,1.22-.26,1.23-.86,0-.88.9-.41,1.15-.93a4.14,4.14,0,0,1,1-1,9.44,9.44,0,0,1,1.2-1.17,7.8,7.8,0,0,0,1.66-1.2c.42-.48.89-.92,1.36-1.36a.65.65,0,0,1,.4-.16c.45,0,.55-.18.21-.52-.56-.55-.55-.54-1.16-.23-.89.45-1.78.89-2,2,0,.08-.25.16-.39.16-.47,0-.44.31-.49.63s-.16.48-.43.14-.56-.43-.8-.21-.75.29-1,.52a8.43,8.43,0,0,1-1.68,1.17.86.86,0,0,0-.4.54c-.07.59-.22.7-.63.21a.23.23,0,0,0-.16-.05c-.54.81-1.61.91-2.19,1.68a5.76,5.76,0,0,1-1.36,1.34,4.67,4.67,0,0,0-1.48,1c-.24.33-.58.19-.88.19s-.51.11-.5.35c0,.82-.55.59-1,.62-.11-.19-.23-.38-.33-.57-.3-.62-.16-.86.46-1.37a3,3,0,0,0,.8-1.48c0-.18-.35-.47-.43-.75s.13-.4.2-.61a1.85,1.85,0,0,1,.33.29c.13.21.24.23.33,0a1.27,1.27,0,0,0,.08-.44c0-.8,0-.8-1-.83a2.07,2.07,0,0,1,1.42-2.37c.34-.15.47-.26.52-.61,0-.2.27-.35.38-.55.26-.45.88-.22,1.18-.66a3.32,3.32,0,0,1,1-1c.31-.18.73-.17,1-.53.09.09.26.17.27.27,0,.47,0,.94.06,1.41a.27.27,0,0,0,.17.16s.11-.06.16-.11c.63-.54.7-.65.3-1.31a1.37,1.37,0,0,1-.08-1.3c1.15-.13,1.49-1.55,2.64-1.68.19-.44.71-.25,1-.51.52-.49,1-1,1.52-1.51-.13-.68.45-.6.79-.85.5-.36,1.06-.54,1.57-.84s.61-.28,1-1.08c.31-.63.77-1,1.47-.84s.95-.42,1.47-.52a1.09,1.09,0,0,0,.9-.93,10,10,0,0,0,1.74-1,3.53,3.53,0,0,1,1.32-.82,2,2,0,0,0,1.14-.71c.28-.38.65-.36,1.05-.36.14,0,.39-.08.4-.14.06-.89.66-.84,1.3-.84.17,0,.34-.31.51-.47a6.1,6.1,0,0,1,2.16-1.7c.29-.09.26-.3.09-.83,0-.09.07-.31.14-.32a4.19,4.19,0,0,1,.71,0c.05.13.08.36.16.38.29.06.34-.15.32-.38.3-.07.64.15.89-.17a4.27,4.27,0,0,1,1.48-1c.46-.24,1.07-.28,1.34-.82s.84-.28,1.18-.66.86-.24,1.16-.66c.05-.08.3,0,.46,0,.63,0,.62-.05,1.3-.84.19-.23.45-.55.7-.57a1.26,1.26,0,0,0,.94-.62,4.76,4.76,0,0,1,2.1-1.31c.49-.19.7-.61,1.07-.89s.87.08.82-.57c.3-.07.58,0,.9-.15,1.92-1.09,3.94-2,5.89-3a1.12,1.12,0,0,1,.41-.17c.61,0,1.28.18,1.71-.48a6.09,6.09,0,0,1,1.42,0c.33.07.12.34,0,.47s-.22.23-.06.35.47.61,1,.59,1.13-.19,1.5.41a1.5,1.5,0,0,0,.33-.23c.28-.32.35,0,.44.15s.16.41.24.61a2.58,2.58,0,0,1,.34-.32c.35-.27.36.09.37.26.06.7.3.53.65.17,0,0,.31.1.31.14,0,.22,0,.5-.17.63-.46.44-.37.78,0,1.18a.83.83,0,0,1,.07.63c0,.22-.18.19-.33.07s-.2-.55-.5-.18a2.38,2.38,0,0,0-.53.73c-.54,1.9-.54,1.9-2.11,2.95-.32.21-.56.55-.88.78s-.58.17-.79.36c-.54.47-1,1-1.54,1.49s-.74,1-1.41,1.21-1.07.88-1.59,1.34c-.16.14-.42.27-.34.57a1.19,1.19,0,0,0-1.44,1.06s0-.06,0-.09-.15,0-.2,0-.35.25-.07.42c0,0,.19-.13.28-.32a1.33,1.33,0,0,0,1.44-1.06c.29-.06.63.14.88-.16.1-.12.21-.28.34-.31.44-.09.89.12,1.3-.33.28-.29.84-.26,1.14-.64.54.18.71-.57,1.22-.49a1,1,0,0,0,1-.36.4.4,0,0,1,.31.13c0,.13.08.37,0,.44a1.63,1.63,0,0,1-.58.27,1,1,0,0,0-.59.49c-.46,0-.72-.07-.91,0a.78.78,0,0,0-.3.5c-.05.31.14.48.33.33s.41-.42.76-.39a.42.42,0,0,0,.33-.24c.07-.45-.31-.11-.21-.22.94,0,1.65.06,2.11-.67a.94.94,0,0,1,.59-.28c.57-.14.29-.32.09-.58-.31-.42-.22-.67.23-.88a8.37,8.37,0,0,0,1.58-.8c.46-.34,1,0,1.51-.45a1.44,1.44,0,0,1,1.72,0c.41.25.48,0,.71-.12a.54.54,0,0,1,.81.15c.2.26.4.17.46-.07s0-.66.44-.66c1.28,0,2.56-.06,3.84,0a4.44,4.44,0,0,1,1.41.61c-.06.1-.1.27-.19.3s-.33,0-.46.05-.35.64-.1.79.52.17.62.07c.32-.3.84-.53.71-1.14a.88.88,0,0,1,.32-.12s.14.12.13.17c0,.37.18.79-.19,1.12s-.29.51.18.51a1,1,0,0,1,.89.69,1.32,1.32,0,0,1-.05,1.1c-.38.65-1.29.93-1.33,1.85-.5.5-1,1-1.51,1.53s-1.48.81-2,1.5a6,6,0,0,1-1.7,1.67c-1,.54-1.63,1.46-2.52,2a4.11,4.11,0,0,0-1.81,1.64c-.33,0-.49.15-.48.59,0,.05,0-.1,0-.1a3,3,0,0,0-.67,0c-.09,0-.17.17-.24.27s.09.13.15.15a.54.54,0,0,0,.76-.32c.33-.1.49-.26.48-.59.65.16,1-.23,1.39-.68s.46-.1.69.09c0,0,.31-.1.31-.13-.11-.73.34-.75.86-.73.35,0,.62.07.59.51a1.12,1.12,0,0,0,.34,1.06c.28.24-.17.31-.23.49a.57.57,0,0,0,0,.16c.13.07.3.21.39.17a2.16,2.16,0,0,0,1.45-1.85c0-.26.11-.53.33-.51.81,0,.64-.51.63-1a1.39,1.39,0,0,0-.14-.42,1.26,1.26,0,0,0-.33.16c-.23.21-.45.44-.68.66,0,0-.12,0-.16-.08a.47.47,0,0,1-.12-.19c-.07-.36.16-.57.39-.79.44-.43,1.1-.43,1.52-1s.52-.5,1,.38c.14.27.55.36.49.76-.33,0-.65,0-1,0a.4.4,0,0,0-.48.38,3.47,3.47,0,0,0,0,.72.64.64,0,0,0,.08.2c.11.19.2.16.34,0,.32-.43.89-.66,1-1.25.13-.06.35-.08.38-.18s0-.46.1-.68c.16-.44-.58-.57-.34-.93.13-.2.55-.2.78-.36s.47-.27.49,0c0,.7.74,1.16.53,2a1.3,1.3,0,0,1-1.21,1.13,1.16,1.16,0,0,0-.83.33,1.49,1.49,0,0,1-1.15.71c-.23,0-.29.56-.06.79s.58.52.88.77a3.92,3.92,0,0,0-.58.59c-.45.74-1.17.68-1.88.67a1.71,1.71,0,0,1,.14-.7c.05-.15-.06-.08-.13,0a.14.14,0,0,0,.2.2,1,1,0,0,0,.22-.28s-.09-.1-.29.07-.5.3-.52.38c-.06.29.15.33.38.32a8.13,8.13,0,0,1-.15.86c0,.13-.21.22-.32.33a5.79,5.79,0,0,1,.57.25c.15.08.53.05.23.39s-.45.42-.65.66a1.26,1.26,0,0,0-.16.5c0,.05,0-.1,0-.1a3,3,0,0,0-.67,0c-.09,0-.17.17-.24.27s.09.13.15.15a.54.54,0,0,0,.76-.32c.24-.11.61,0,.69-.13.48-.66,1.3-.81,1.85-1.33.16-.15.42-.27.34-.57a1.69,1.69,0,0,0,.64,0c.15-.07.22-.3.32-.46a1.69,1.69,0,0,0,.64,0c.15-.07.22-.3.32-.46.16,0,.35.06.47,0a14.74,14.74,0,0,0,2.55-1.34c.17-.14.42-.27.34-.57a3,3,0,0,0,1.92-.49,4.65,4.65,0,0,0,1.88-1.16c.32-.41.48-.06.67.12a1.37,1.37,0,0,1,.17.17,1.61,1.61,0,0,0,1.52.4,2.23,2.23,0,0,0,.58-.28c.16-.15.28-.23.33-.07a1.23,1.23,0,0,1,.07.63c0,.13-.24.21-.3.34s.09.32.11.32c.7-.15.7.38.82.81,0,.09.26.11.61.31.15,0,.08-.06,0-.14a.2.2,0,0,0-.2,0,.18.18,0,0,0,0,.2.83.83,0,0,0,.28.21s.1-.09-.07-.28-.25-.35-.21-.37a2,2,0,0,1,1.77-.15c.19.05.14.2,0,.34-.49.34-.29.87-.28,1.31,0,1.3.06,1.3-.46,1.82s-.7.84-1.32.84c-.19.41-.23.9-.68,1.16-.07,0-.12.17-.17.16-.86-.16-1,1-1.75,1a.55.55,0,0,0-.39.2c-.89,1.12-2.31,1.58-3.22,2.69-.31.39-.89.55-1.3.87s-.65.9-1,1c-.65.09-.86.69-1.33.87a3,3,0,0,0-1.47,1.05c-.34.51-1,.43-1.34.83s-.75,1-1.21,1.1a2.17,2.17,0,0,0-1.12.78,4.8,4.8,0,0,1-1.32.87,7.32,7.32,0,0,0-1.39,1.29c-.84-.16-.93,1.08-1.76,1a15.17,15.17,0,0,1-1.4,1.26,9,9,0,0,1-1.4.66,4.09,4.09,0,0,1-1,.46c-.62.09-.22.89-.55.86-.86-.07-.63,1-1.21,1.06s-.85.66-1.27,1c-.67.51-1,1.4-2,1.52-.56.56-1.11,1.14-1.7,1.68-.15.13-.44.1-.65.15a3.64,3.64,0,0,0-2.56,1.76c-.35.71-.63,1.21-1.48,1.13a.5.5,0,0,0-.4.17c-.34.5-1.1.68-1.08,1.48,0,.11-.56.17-.75.36a2.52,2.52,0,0,0-.35.8c-.48-.13-.76.6-1.14.36s-.45-.29-.7,0c-.48.6-.6,1.52-1.36,1.82-1.23.5-1.9,1.6-2.85,2.39-.48.4-.75,1-1.41,1.22s-1.08.87-1.6,1.33-.83,1.07-1.38,1.32c-1.35.61-2.13,1.82-3.16,2.75a9.48,9.48,0,0,1-1.49,1c-.59.37-1,1.08-1.56,1.46a5.31,5.31,0,0,0-1.48,1.05c-.25.32-.59.1-.89.17-.05-.13-.08-.36-.16-.38-.29-.07-.34.14-.32.48,0,0,0-.06,0-.09s-.15,0-.2,0-.35.25-.07.42c0,0,.19-.13.28-.32a.84.84,0,0,1,.48-.1,1.24,1.24,0,0,1-.31,1.05c-1.57,1.52-3.1,3.07-4.64,4.63a3.06,3.06,0,0,0-.33.56.41.41,0,0,0-.48.48c-.33,0-.49.15-.48.58,0,0,0-.06,0-.09s-.15,0-.2,0-.35.25-.07.42c0,0,.19-.13.28-.32.33-.09.49-.25.48-.58a.41.41,0,0,0,.48-.48c.3-.07.6.11.9-.16a10.58,10.58,0,0,1,2.31-1.93,9.85,9.85,0,0,0,2.06-2,1.19,1.19,0,0,1,.38-.25c.38-.12,1,.3,1.07-.51,0-.46.45-.62.7-.9s.65-.88,1-.94c.57-.08.77-.49,1.13-.76s.54-.81,1.14-.75c.11,0,.25-.16.36-.27l2-2c1-.11,1.34-1,2-1.52.42-.31.91-.53,1.32-.86a12.24,12.24,0,0,0,1-1,14.59,14.59,0,0,1,1.19-1.17c.47-.38,1.08-.51,1.51-1s.72-1.08,1.4-1.22,1-.79,1.43-1.18,1-.33,1.34-.83a3.34,3.34,0,0,1,1.48-1.06c.46-.21.7-.74,1.33-.86.48-.09.62-.9,1.31-.89.17,0,.36-.26.53-.43.46-.44.9-.91,1.36-1.35s.76-.88,1.24-1c.67-.23.92-.84,1.45-1.16a6.57,6.57,0,0,0,1.84-1.35c.5-.58,1.39-.67,1.83-1.37.91.16,1.07-1.15,2-1a4,4,0,0,1,1.67-1.19c.31-.73,1.21-.62,1.69-1.17.33-.38,1-.5,1.28-.89s1-.43,1.35-.82a4.58,4.58,0,0,1,1-1,4.31,4.31,0,0,0,1.33-.87c.34-.4,1-.32,1.31-.86s.89-.23,1.17-.67.59-.11,1.34,0c.38,0,.31-.11.21-.13s-.53-.1-.64,0-.06.43,0,.65.25.24.26.23c.23-.19.44-.41.19-.76a.5.5,0,0,1-.13-.72c.24-.48.89-.24,1.15-.66s.92-.54,1.29-.87.86-.22,1.21-.6c.18-.21.71-.11,1.08-.15.36.68.68.17,1,0,.59-.29,1.33-.34,1.75-.91a1.41,1.41,0,0,1,1.45-.53,1,1,0,0,0,1-.46,1.19,1.19,0,0,1,1.22-.51c.48.08.66-.64,1.23-.49a5.16,5.16,0,0,0,1.18,0c0,.56,0,1.12,0,1.68,0,.05.26.16.31.13a6.61,6.61,0,0,1,1.81-.88c.33-.1.55-.64,1-.42.27.13.46.44.78.76l-.89.75c-.15.12-.11.36.06.32.64-.15.84.76,1.48.55,0,0,.17.25.14.31-.26.46-.55.9-.84,1.34,0,.06-.11.16-.17.16-.8,0-1.08.8-1.72,1.07a7.56,7.56,0,0,0-1.58.8c-.07,0-.12.13-.19.14a1.85,1.85,0,0,1-.47,0c-.51-.05-.75.14-.69.67a.28.28,0,0,1-.13.18c-.13.05-.31,0-.42.12a6.56,6.56,0,0,1-1.3.92c-.31.12-.5.37-.77.47s-.92,0-1.09.21c-.55.71-1.52.78-2.05,1.5-.28.38-.68.67-1,1s-.35-.07-.52-.12a3,3,0,0,0-.65-.17c-.66-.09-1.24-.05-1.29.82-.52.45-.89,1.05-1.66,1.22-.49.11-.88.57-1.35.8-.16.08-.42-.06-.64-.12s-.24-.52-.5-.14-1.06.71-1.06,1.5c0,.27-.33.17-.47,0s-.24-.23-.34-.08c-.52.72-1.46.82-2.08,1.33-1.18,1-2.8,1.29-3.74,2.57-.3.41-.9.2-1.18.67s-.7.53-1.14.7-.54.8-1.09.84-.7.6-1.09.84-.73.14-1,.5c-.53.68-1.52.77-2,1.52-.08.11-.46,0-.7,0,0-.39.22-.9-.53-1-.31,0-.62-.38-.85-.65s-.66-.27-1-.28c.06-.4-.33-.51-.51-.74-.06-.07-.29-.13-.32-.09-.45.52-.57.31-.62-.24,0-.14-.09-.6-.39-.19s-.87.22-1.18.65-.34.36.25.6c.24.1.4.19.38.49s0,.64,0,1a3.36,3.36,0,0,1-.71,0c-.48-.09-.73.21-1,.51a.86.86,0,0,0-.11.33,1.33,1.33,0,0,0,.42.12.82.82,0,0,0,.38-.2c.18-.16.46-.34.49,0a14.43,14.43,0,0,1,0,2.37c0,.28-.53.36-.46.76-.29.06-.61-.13-.89.16s-.67.85-1.31.87c-.25,0-.25.43-.06.79.07.16.56.23.16.49a.71.71,0,0,1-.62,0c-.24-.15-.38-.49-.69-.09s-.74.85-1.39.68a3.51,3.51,0,0,0,0-1.17c-.12-.33-.51-.51-.48-1,0-.24-.55-.36-.77-.16-.44.41-.81.92-1.47,1,0,0-.1.12-.08.15s.1.16.16.17c.23,0,.46,0,.69,0,.61.07.71.3.33.92-.11.18-.34.31,0,.5s.34.56.73.5c0,.31,0,.62,0,.93s-.11.48-.34.49c-.77,0-1.55,0-2.33,0a2.46,2.46,0,0,1-1.66-.48c0-.08,0-.21,0-.23a1.13,1.13,0,0,0,.47-1.21c.24,0,.47,0,.71,0,.06,0,.17-.11.16-.15s-.09-.29-.16-.31a5.35,5.35,0,0,0-.82,0s.07,0,.1,0a.2.2,0,0,0,0-.2c-.12-.16-.25-.36-.42-.07,0,0,.13.18.31.28a.77.77,0,0,1,.11.48,3.33,3.33,0,0,0-.4.16,4.74,4.74,0,0,1-.67.32s.07,0,.1,0a.2.2,0,0,0,0-.2c-.12-.16-.25-.36-.42-.07,0,0,.13.18.31.28s0,.46.13.64.3.21.46.32a2,2,0,0,1-.17.4,3.17,3.17,0,0,1-.28.34,1.3,1.3,0,0,0,.38.21c.32,0,.64,0,.95,0a1.73,1.73,0,0,1,.52.27c-.13.06-.26.19-.39.19-.49,0-.65.4-.92.65-.62.6-.5,0-.58-.32s-.25-.33-.52-.33-.78,0-1,.37a.67.67,0,0,1-.32-.12s0-.14,0-.22c0-.44-.24-.53-.59-.5s-.84-.18-.85.48c-.13.05-.36.08-.38.16a10.17,10.17,0,0,0-.1,1.11c0,.58,0,.58-.64.65-.07,0-.15,0-.23,0-.6.07-.74.37-.41.88a6.22,6.22,0,0,1,.32.56,3.84,3.84,0,0,0-.48,0c-.33,0-.63.41-.47.61a6.47,6.47,0,0,0,.78.88c.17.15.21.22,0,.34-.39.24-.23.42,0,.69s.16.81-.07.78c-.55-.06-.75.55-1.23.54a3.68,3.68,0,0,0,0-.47,2.05,2.05,0,0,0-.16-.41.18.18,0,0,0-.16,0c-.34.33-.69.65-1,1a4.73,4.73,0,0,1-1.47,1,7.41,7.41,0,0,0-1.19,1.13c-.09.09-.29.06-.42.12a1.3,1.3,0,0,0-.88,1c-.55,0-.7.6-1.08.84-.63.39,0,.57.1.86a.76.76,0,0,1-.17.62c-.2.21-.63.07-.76-.21,0-.07,0-.17,0-.24-.15-.41-.15-.41-.54-.13-.06,0-.11.11-.17.17-.08-.12-.21-.23-.24-.36-.09-.37.25-.53.4-.78s0-.76-.47-.77h-.71c-.6,0-.62,0-.66.67,0,.41,0,.69-.57.8s-.88.57-1.48.46-.94,0-.87.72c0,.06-.23.22-.36.22a1.33,1.33,0,0,0-1.26.45c-.37.49-1,.88-1.17,1.42s-1,.8-1,1.5c-.08,0-.18,0-.23,0s-.45-.45-.5-.42c-.26.17-.6.39-.66.66a2.81,2.81,0,0,0,0,1.41c.2.67-.79.84-.53,1.49a1,1,0,0,1-.37.22,1.07,1.07,0,0,1-.47,0c-.52-.1-.73.46-1.23.54s-.28.8-.29,1.22-.22.65-.71.67c-.27,0-.37.56-.76.45a4,4,0,0,1-.74-.44c-.24.35-.62.4-1,.53s-.45.44-.69.65-.27.25-.46-.31a3.84,3.84,0,0,0-.21-.4c-.71.44-1,1.4-2,1.47l-1.69,1.69c-.06.06-.13.17-.17.16-.87-.18-1,.95-1.75,1-.32,0-.66.41-.89.7-.67.85-.68.91-1.46.42-.43-.26-.71-.25-1,.11-.14.18-.23.22-.34,0s-.1-.15-.08-.2a4.67,4.67,0,0,1,.24-.62,3.76,3.76,0,0,0,.72-2.34.5.5,0,0,1,.13-.41c.64-.34.08-1.09.5-1.47a1.52,1.52,0,0,0,.36-.81c.09-.28.43-.46.65-.69.51-.56,1.23-1,1.35-1.83a2.64,2.64,0,0,0,1.81-1.37c1.27-2,3.15-3.49,4.77-5.19s3.28-3.26,4.88-4.93a5.07,5.07,0,0,1,1.34-.83c.07-.89.83-1.28,1.36-1.82,1.67-1.72,3.37-3.39,5.06-5.09.16-.16.42-.27.34-.57a3,3,0,0,0,1.58-1.66c0-.15-.06-.08-.13,0a.14.14,0,0,0,.2.2,1,1,0,0,0,.22-.28s-.09-.1-.29.07c-1.17.27-1.52.63-1.58,1.66a1.14,1.14,0,0,0-1.07.33,4.74,4.74,0,0,1-1.53,1.47,5.28,5.28,0,0,0-1.48,1.08c-.87-.21-1,1-1.76,1a5.67,5.67,0,0,0-1.86,2,2.33,2.33,0,0,1-1.08,1.2,3.71,3.71,0,0,0-1.8,1.41c-.94,1.2-2.43,1.71-3.39,2.86a.52.52,0,0,1-.39.2c-.5,0-.68.7-1.24.49l-1.35,1.35a21.87,21.87,0,0,0-1.85,1.88c-.74.95-2,1.25-2.72,2.17s-1.67,1.71-2.52,2.56c-.88.23-1.3,1.16-2,1.47a8.15,8.15,0,0,0-2,1.58c-.77-.08-1,.85-1.51.94s-.86.8-1.32.87c-.63.1-1,.87-1.67.62-.73.38-1.09-.47-1.72-.52s-.67-1-1.28-.89-.94-.51-1.48-.52a.37.37,0,0,1-.41-.44c.09-.63-.06-1.06-.8-1.09-.06,0-.13-.25-.15-.39-.06-.3.13-.4.38-.48a3.89,3.89,0,0,0,.54-.27c-.7-.43-.22-.77.13-1s.28-.86.66-1.18A16.89,16.89,0,0,0,602,322a.53.53,0,0,0-.12-.81c-.26-.21-.44-.74-.87-.15-.08.12-.46.15-.62.07a7.08,7.08,0,0,0-.77-.45c-.41-.16-.68-.7-1.09-.85a5.79,5.79,0,0,0-1.4-.09.42.42,0,0,1-.28-.31,8.32,8.32,0,0,1,.06-1.41c0-.07.25-.18.39-.17.82,0,.27-1.05.92-1.16.16-.48,1,0,1-.73,0-.15.07-.4.14-.41.92-.1,1.2-.8,1.5-1.51a.81.81,0,0,1,.33-.33c.42-.25,1-.29,1-1,0-.34.86.08.83-.55s.38-.67.64-.94c.72-.75,1.49-1.44,2.19-2.21s1.58-1.29,2-2.29,1.56-1.31,1.91-2.32c.33,0,.49-.15.84-1,.12-.24-.12,0-.35.26a.2.2,0,0,0,0,.21s.14,0,.22,0c.63,0,.9-.27.71-.74,0-.06-.1-.11-.58.26-.69.47-.85.63-.84,1a1.13,1.13,0,0,0-1.21.47s-.15,0-.23,0c.07-.3-.13-.62.16-.89a8.57,8.57,0,0,1,1.38-1.32,6.09,6.09,0,0,0,1.48-1c1-1.08,2.13-2.14,3.2-3.21a.59.59,0,0,1,.81-.18c.34.21.11.58.17.88-.24,0-.56-.1-.69,0-.76.69-1.48,1.42-2.17,2.17-.12.13,0,.46,0,.7-.33,0-.49.15-.48.58,0,0,0-.06,0-.09s-.15,0-.2,0-.35.25-.07.42c0,0,.19-.13.28-.32.33-.09.49-.25.48-.58a13.41,13.41,0,0,0,2.88-2.88c.24,0,.58.1.69,0a11,11,0,0,0,2.19-2.38.41.41,0,0,0,.48-.48,11941971886022.93,11941971886022.93,0,0,1,1-1c.22,0,.52.09.65,0a3.36,3.36,0,0,0,1.27-1.42.41.41,0,0,0,.48-.48.41.41,0,0,0,.48-.48c.24,0,.59.1.7,0,.58-.62,1.37-1.06,1.7-1.9.42,0,1,.21,1-.6,0-.43.53-.24.67-.39a10.07,10.07,0,0,0,2.19-2.37c1-.06,1.39-.41,1.44-1.44a1.18,1.18,0,0,0,1.44-1,.41.41,0,0,0,.48-.48c.22,0,.52.09.65,0a3.36,3.36,0,0,0,1.27-1.42.41.41,0,0,0,.48-.48c.22,0,.52.09.65,0a3.36,3.36,0,0,0,1.27-1.42,11941971886024.43,11941971886024.43,0,0,1,1-1,.41.41,0,0,0,.48-.48,1.69,1.69,0,0,0,.64,0c.15-.07.22-.3.32-.46a.41.41,0,0,0,.48-.48,1.19,1.19,0,0,0,1-1c.24,0,.59.1.7,0,.58-.62,1.37-1.06,1.7-1.9a.41.41,0,0,0,.48-.48c.36,0,.73.07,1-.28s.54-.61.85-.65c.75-.09.48-.6.67-1.21.05-.15-.06-.08-.13,0a.14.14,0,1,0,.2.2,1,1,0,0,0,.22-.28s-.09-.1-.29.07c-.38.22-.72.12-.83.23-.58.63-1.37,1.07-1.71,1.91a.41.41,0,0,0-.48.48c-.24,0-.58-.1-.69,0-.58.63-1.37,1.07-1.71,1.91-.87-.12-1.08.09-1,1a.41.41,0,0,0-.48.48,1.69,1.69,0,0,0-.64,0c-.15.06-.22.3-.32.46a11941971885948.48,11941971885948.48,0,0,1-1,1,.41.41,0,0,0-.48.48c-.22,0-.52-.09-.65,0a3.38,3.38,0,0,0-1.27,1.43.41.41,0,0,0-.48.48c-.22,0-.52-.09-.65,0a3.38,3.38,0,0,0-1.27,1.43.41.41,0,0,0-.48.48,1.18,1.18,0,0,0-1.44,1,2.61,2.61,0,0,0-1.44,1.44c-.29.06-.61-.13-.89.16a16.88,16.88,0,0,1-1.4,1.27c-.07.06-.29,0-.43-.08s-.18-.2,0-.34c.7-.46,1-1.48,2-1.52l1.69-1.69a9.83,9.83,0,0,1,1.89-1.82c1-.55,1.59-1.54,2.51-2a9.16,9.16,0,0,0,2.46-2.11c.45-.49,1.14-.43,1.54-1a2.38,2.38,0,0,1,1.47-1.06c.35-.06,0-1,.8-.9.27,0,.57-.49.87-.73.54-.42.83-1.18,1.67-1.19.45-.45.83-1.11,1.37-1.29a3,3,0,0,0,1.3-.92c.48-.5,1.12-.87,1.36-1.58h1a1.13,1.13,0,0,1-.47,1.21s0,.15,0,.23c-.33,0-.49.15-.48.58,0,0,0-.06,0-.09s-.15,0-.2,0-.35.25-.07.42c0,0,.19-.13.28-.32.33-.09.49-.25.48-.58.22,0,.52.09.65,0a3.36,3.36,0,0,0,1.27-1.42.41.41,0,0,0,.48-.48,1.07,1.07,0,0,0,1.17-.45c.82.1.78-.45.75-1a.41.41,0,0,0,.48-.48,1.69,1.69,0,0,0,.64,0c.15-.07.22-.3.32-.46a7.84,7.84,0,0,0,2.4-1.92,1.69,1.69,0,0,0,.64,0c.15-.07.22-.3.32-.46a5970985943031.24,5970985943031.24,0,0,1,1-1c.22,0,.52.09.65,0a3.36,3.36,0,0,0,1.27-1.42.41.41,0,0,0,.48-.48c.33,0,.49-.15,1-1,.16-.48-.2-.26-.56.24,0,.05,0,.16,0,.24a1,1,0,0,1,.24,0c.6.15.8-.4,1.15-.67-.08-.1-.17-.2-.82.19-.9.47-1.06.63-1,1a.41.41,0,0,0-.48.48,5.4,5.4,0,0,0-.9,0,1.27,1.27,0,0,0-.51.26c.21.57-.58.68-.51,1.17a5970985943031.24,5970985943031.24,0,0,0-1,1,1.69,1.69,0,0,0-.64,0c-.15.06-.21.3-.32.46-.86-.12-1.08.08-1,1a1.18,1.18,0,0,0-1.44,1,1.69,1.69,0,0,0-.64,0c-.15.06-.22.3-.32.46a.41.41,0,0,0-.48.48l-1,.48-1,.48c.06-.29-.14-.63.16-.89s.44-.45.68-.66.11-.23-.09-.34a.41.41,0,0,0-.22,0,.87.87,0,0,0-.41.14,8.62,8.62,0,0,0-1.17,1.17c-.39.53-1.12.49-1.49,1A5.36,5.36,0,0,0,647.23,270.82Zm33.4-7.16a1.49,1.49,0,0,0-.27.23.14.14,0,0,0,.2.2,1,1,0,0,0,.22-.28s-.09-.1-.43.5c0-.07,0-.17,0-.2s-.15,0-.2,0-.35.25-.06.42C680.11,264.54,680.26,264.39,680.63,263.66Zm-54.72-1a1.49,1.49,0,0,0-.27.23.14.14,0,0,0,.2.2,1,1,0,0,0,.22-.28s-.09-.1-.43.5c0-.07,0-.17,0-.2s-.15,0-.2,0-.35.25-.07.42C625.39,263.58,625.54,263.43,625.91,262.7ZM658.27,255a.41.41,0,0,0,.48-.48,1.69,1.69,0,0,0,.64,0c.15-.07.22-.3.32-.46a1.69,1.69,0,0,0,.64,0c.15-.07.22-.3.32-.46a1.69,1.69,0,0,0,.64,0c.15-.07.22-.3.32-.46a1.69,1.69,0,0,0,.64,0c.15-.07.22-.3.32-.46a1.69,1.69,0,0,0,.64,0c.15-.07.22-.3.32-.46a1.18,1.18,0,0,0,1.44-1,1.69,1.69,0,0,0,.64,0c.15-.07.22-.3.32-.46a1.69,1.69,0,0,0,.64,0,17,17,0,0,1,1.81-1.39c-.79-.2-1.1.32-1.48.69a.24.24,0,0,0,0,.23s.15,0,.23,0a4.77,4.77,0,0,0,.65-.17c.2-.08.38-.23.59-.31s.49,0,.31-.35c-.05-.1-.27-.09-1.79.83a1.7,1.7,0,0,0-.64,0c-.15.06-.22.3-.32.46a1.7,1.7,0,0,0-.64,0c-.15.06-.21.3-.32.46a1.18,1.18,0,0,0-1.44,1,1.7,1.7,0,0,0-.64,0c-.15.06-.21.3-.32.46a1.7,1.7,0,0,0-.64,0c-.15.06-.22.3-.32.46a1.7,1.7,0,0,0-.64,0c-.15.06-.22.3-.32.46a1.7,1.7,0,0,0-.64,0c-.15.06-.22.3-.32.46a1.69,1.69,0,0,0-.64,0c-.15.06-.21.3-.32.46a23883943772012,23883943772012,0,0,0-1,1,1.69,1.69,0,0,0-.64,0c-.15.06-.22.3-.32.67,0-.07,0-.17,0-.2s-.15,0-.2,0-.35.25-.07.42c0,0,.19-.13.28-.42a1.69,1.69,0,0,0,.64,0c.15-.07.22-.3.32-.46A.41.41,0,0,0,658.27,255Zm3.16,42.28a1.49,1.49,0,0,0-.27.23.14.14,0,1,0,.2.2,1,1,0,0,0,.22-.28s-.09-.1-.43.5c0-.07,0-.17,0-.2s-.15,0-.2,0-.35.25-.07.42C660.91,298.14,661.06,298,661.43,297.26Zm-18.08-43.92a1.56,1.56,0,0,0-.23-.28.2.2,0,0,0-.2,0,.18.18,0,0,0,0,.2.83.83,0,0,0,.28.21s.1-.09-.51-.42c.22.07.3,0,.22-.22a.3.3,0,0,0-.15-.16.83.83,0,0,0-.4-.09,1.18,1.18,0,0,0-.37.19c.09.09.15.23.26.27A5.71,5.71,0,0,1,643.35,253.34Zm52.84,23.24a1.7,1.7,0,0,0-.64,0c-.15.06-.21.3-.32.67a.43.43,0,0,0,0-.2,3,3,0,0,0-.67,0c-.09,0-.17.17-.24.27s.09.13.15.15c.3.09.58.09.76-.43a1.69,1.69,0,0,0,.64,0c.15-.07.22-.3.6-.9a1.49,1.49,0,0,0-.27.23.14.14,0,1,0,.2.2,1,1,0,0,0,.22-.28S696.53,276.19,696.19,276.58ZM677.07,266c-.08,0-.17,0-.22,0s-.31.16-.32.26c-.07.44.29.2.43.2s.31-.17.47-.26c-.12-.07-.24-.14-.92.49,0-.07,0-.17,0-.2s-.15,0-.2,0-.35.25-.06.42C676.27,266.94,676.42,266.79,677.07,266Zm-13.52-5.55a.43.43,0,0,0,0-.2,3,3,0,0,0-.67,0c-.09,0-.17.17-.24.27s.09.13.15.15c.3.09.58.09,1-.87a1.49,1.49,0,0,0-.27.23.14.14,0,0,0,.2.2A1,1,0,0,0,664,260S663.89,259.87,663.55,260.47Zm.92,36.07a1.56,1.56,0,0,0-.23-.28.2.2,0,0,0-.2,0,.18.18,0,0,0,0,.2,1,1,0,0,0,.28.22s.1-.1-.51-.43c.07,0,.18,0,.21,0a.22.22,0,0,0,0-.21c-.2-.22-.41-.43-.62-.64a.26.26,0,0,0-.15,0c-.07.12-.18.25-.18.37C663.08,296.21,663.16,296.26,664.47,296.54Zm5.8-30.77v-.71a1.31,1.31,0,0,0-.4.17c-.59.54-.58.78.08,1.16.06,0,.28-.06.31-.15s0-.31.29-1.62a1.49,1.49,0,0,0-.27.23s0,.14,0,.21.17,0,.21,0a1,1,0,0,0,.22-.28S670.61,264.67,670.27,265.77Zm-49.44,4.57a1.18,1.18,0,0,0,1.44-1c.24,0,.56.1.7,0,.71-.58,1.23-1.39,2.17-1.69.07,0,0-.45,0-.69.45-.08.92.16,1.35-.15s.52-.75,1.06-.82.82-.66,1.23-1,.77-.9,1.46-1c.24,0,.68-.38,1.38-1.81-.24.24-.48.48-.71.74a.2.2,0,0,0,0,.21s.14,0,.22,0c.63,0,.9-.27.71-.74,0-.07-.1-.11-.94.74h-.47c-.4,0-.86-.13-1.18,0s-.32.64-.53.92-.36.51-.75.49-1-.13-.91.65a8.29,8.29,0,0,1-1.55.77c-.59.16-.3.63-.37,1-.23,0-.58-.1-.69,0a10.82,10.82,0,0,0-2.19,2.39,1.18,1.18,0,0,0-1.44,1c-.33,0-.49.15-1.19.48h-.48c-.44-.05-.77,0-.74.59,0,.12-.16.25-.23.38a1.89,1.89,0,0,0-.13.33c.14.05.33.17.41.12.56-.35,1.3-.43,1.71-1a2,2,0,0,0,.17-.4h0A.41.41,0,0,0,620.83,270.34Zm47-3.36h-1.36c-.51,0-.52,0-.22.58a.6.6,0,0,1,0,.79,2.41,2.41,0,0,0-.33.81c.09-.26,0-.29-.22-.28a2,2,0,0,1-.65-.14c-.16,0-.2-.49-.5-.15s-.55.56-.83.84-.27.6.11,1c.12.11.22.24.34.33a.48.48,0,0,0,.79-.39c-.05-.64.1-1,.81-1,.06,0,.11-.09.16-.39.39-.06,1,.22,1-.55a.37.37,0,0,1,.41-.41c.78,0,.5-.57.83-1.4a1.49,1.49,0,0,0-.27.23.14.14,0,0,0,.2.2,1,1,0,0,0,.22-.28S668.21,266.59,667.87,267Zm12.25-8.64c-.94,0-1.66-.11-2.1.64-.12.2-.39.31-.47.51a.65.65,0,0,0,.05.61c.11.13.5.21.6.12a10.93,10.93,0,0,0,1.95-2.32,1.49,1.49,0,0,0-.27.23.14.14,0,1,0,.2.2,1,1,0,0,0,.22-.28S680.21,258,680.12,258.34ZM670,292.88c.17,0,.4.07.47,0a1.48,1.48,0,0,1,1-.51c.22,0,.23-.22.06-.32-.54-.33-.29-.85-.32-1.3,0,0,.26-.17.31-.13a6,6,0,0,1,.52.49c.27.27.27.26.68,0a.82.82,0,0,1,.41-.15c.47,0,.49-.34.45-.65s-.44-.43-.75-.27c-.13.07-.21.25-.35.31a.32.32,0,0,1-.31-.13.93.93,0,0,1,0-.47.27.27,0,0,1,.16-.17,5.43,5.43,0,0,0,2.49-1.51c1,.23.5-1.05,1.15-1.17-.1-.09-.2-.25-.31-.26-.32,0-.67,0-.61.47a.39.39,0,0,1-.39.47c-.52.05-1.19-.18-1.1.76,0,.06-.25.2-.38.2-.49,0-1,0-1.24.47-.59-.12-.86.35-1.15.69s-.88.22-1.19.65-.33.33,0,.7,1.09.85.24,1.51C669.87,292.6,670,292.79,670,292.88Zm2.15-29.6a2.1,2.1,0,0,0,0,.51c0,.11.19.17.28.26.54-.7,1.63-.3,2.15-1.15a9.22,9.22,0,0,1,1.3-1.36s-.07-.22-.15-.32-.15,0-.22,0c-.4-.06-.55.28-.73.5a2.19,2.19,0,0,1-2.22.95C672.17,262.6,672.18,263,672.19,263.28Zm-23.28,18.59c.13,0,.43,0,.55-.12s.18-.58.36-.77.55-.19.75-.37-.06-.42-.17-.6-.28-.06-.43-.07c-.71,0-.86,0-.79.73s-.43.66-.83.8c-.06,0-.15.11-.14.16a.28.28,0,0,0,.16.16A3.74,3.74,0,0,0,648.91,281.87Zm12.44-11.49c-.06.06-.17.12-.16.17.1.66-.35.72-.83.83-.29.08-.16.42-.15.64,0,.05.27.16.31.13.22-.21.4-.49.7-.08.07.1.25.14.39.18a.29.29,0,0,0,.24,0c.34-.19.27-.53.26-.83S661.59,270.4,661.35,270.38Zm1,28.28c.24-.46.79-.39,1.11-.66.1-.1,0-.42,0-.61a.42.42,0,0,0-.38-.16,1.2,1.2,0,0,0-1,1.06C662.12,298.41,662.27,298.54,662.35,298.66Zm-22.07-41.78c.17,0,.38.07.48,0,.36-.31.67-.68,1-1,.19-.16.22-.25,0-.35s-.36-.12-.44-.06c-.42.35-.82.73-1.22,1.11,0,0,0,.12,0,.16A.52.52,0,0,0,640.28,256.88ZM653.2,304c.09-.1.18-.14.2-.2a1.37,1.37,0,0,1,.47-1,1.09,1.09,0,0,0-.17-.3s-.15,0-.23,0c-.46,0-.58.43-.87.65a1.28,1.28,0,0,0,.16.31C652.9,303.64,653.05,303.8,653.2,304Zm-5,5a.94.94,0,0,0-.18-.17.36.36,0,0,0-.19-.08,1.14,1.14,0,0,0-1.08.95c0,.07,0,.18,0,.22s.27.21.29.19C647.44,309.74,647.82,309.36,648.2,309Zm8.28-7c-.08,0-.17,0-.23,0a2.85,2.85,0,0,0-.37.23,2.16,2.16,0,0,0,.35.24c.19.1.44.12.59.26s.34.21.49,0c0-.06,0-.15,0-.23.05-.29-.13-.42-.37-.47A2.35,2.35,0,0,0,656.48,302ZM629.7,261.23c-.5-.06-.69.11-.71.47a.39.39,0,0,0,.37.47c.38.07.62-.12.58-.48C629.92,261.51,629.76,261.35,629.7,261.23Zm24.16,4.93a1.9,1.9,0,0,0-.4-.14c-.46,0-.57.45-.87.65,0,0,0,.14,0,.15a1,1,0,0,0,.39.15c.47,0,.57-.44.88-.65C653.9,266.31,653.87,266.22,653.86,266.16Zm-15-12.06a1.08,1.08,0,0,0-.79,1.12c0,.06.1.15.15.15a1.08,1.08,0,0,0,.8-1.11C639.05,254.2,639,254.15,638.91,254.1Zm-11.83,10,.39-.17a2.48,2.48,0,0,0-.17-.32c-.1-.12-.21-.22-.32-.33l-.17-.12a1.25,1.25,0,0,0-.21.37C626.56,263.86,626.66,264.12,627.08,264.1Zm47-3.37-.16-.4a2.43,2.43,0,0,0-.32.18,2.5,2.5,0,0,0-.33.32,1.09,1.09,0,0,0-.13.17,1.25,1.25,0,0,0,.37.21C673.87,261.25,674.14,261.15,674.11,260.73Zm-28.77,22.53a1.84,1.84,0,0,0-.49.31.48.48,0,0,0,0,.44c.13.26.32.2.48,0s.22-.22.33-.33l.12-.16Zm0,28.12c-.13-.13-.19-.24-.24-.23-.21,0-.49,0-.61.16s-.05.4,0,.61c0,.05.14.16.15.15C644.82,311.85,645.07,311.62,645.31,311.38ZM656,300.49c.34,0,.41-.33.64-.47a1.21,1.21,0,0,0,.16-.16c-.12-.08-.23-.22-.36-.23-.5-.06-.73.22-.59.68C655.89,300.38,656,300.43,656,300.49Zm-15.85-46.86c0,.05-.15.12-.14.17,0,.21,0,.49.17.6s.41,0,.61,0,.16-.11.16-.16A1.88,1.88,0,0,0,640.18,253.63Zm3-1.47.64-.23s0-.13,0-.15a1.26,1.26,0,0,0-1.27,0s0,.15,0,.15Zm-18.8,74.73a1.85,1.85,0,0,0,.78-.64c0-.05-.09-.15-.15-.16-.21,0-.49-.07-.61,0s-.14.39-.17.61C624.19,326.77,624.29,326.84,624.35,326.89Zm35.12-52.71c.13-.13.24-.2.23-.24,0-.21,0-.49-.16-.61s-.4-.05-.61-.05c0,0-.16.15-.15.15C659,273.69,659.23,273.93,659.47,274.18Zm-33.2,51.27c.34,0,.41-.33.64-.47a1.21,1.21,0,0,0,.16-.16c-.12-.08-.23-.22-.36-.23-.5-.06-.73.22-.59.68C626.13,325.34,626.21,325.39,626.27,325.45Zm8.39-9.84c-.06-.05-.12-.15-.17-.14-.21,0-.49,0-.6.17s0,.4,0,.61.11.16.16.15A1.85,1.85,0,0,0,634.66,315.61Zm-15.23-46.76-.27-.42-.16.14a3.31,3.31,0,0,0-.32.33,1.37,1.37,0,0,0-.16.32c.21.06.45.2.61.13S619.34,269,619.43,268.85Zm9.11-6.12a3.29,3.29,0,0,0-.2-.47s-.12,0-.15,0c-.24.18-.25.69,0,.77C628.28,263.06,628.44,262.82,628.54,262.73Zm43.2,1.92a3.29,3.29,0,0,0-.2-.47s-.12,0-.15,0c-.24.18-.25.69,0,.77C671.48,265,671.64,264.74,671.74,264.65ZM655,265l-.54.28a2.29,2.29,0,0,0,.6.22c.11,0,.24-.14.36-.22Zm22.91-20a.53.53,0,0,0-.8,0,.22.22,0,0,0,0,.16.52.52,0,0,0,.79,0S677.87,245.12,677.88,245.06Zm-16.32,30.11.47-.2s0-.12,0-.16c-.18-.24-.69-.24-.77,0C661.23,274.91,661.47,275.07,661.56,275.17Zm8,16.53a4.68,4.68,0,0,0-.81-.23c-.12,0-.25.15-.37.23.12.08.25.23.37.22A3.71,3.71,0,0,0,669.53,291.7Zm3,.79c-.06,0-.13,0-.16,0a.52.52,0,0,0,0,.79.22.22,0,0,0,.16,0A.53.53,0,0,0,672.51,292.49Zm-28.42,20.33a4.68,4.68,0,0,0-.81-.23c-.12,0-.25.15-.37.23.12.08.25.23.37.22A3.71,3.71,0,0,0,644.09,312.82Zm-10.85,4.39s0-.12,0-.16a.52.52,0,0,0-.79,0,.22.22,0,0,0,0,.16A.53.53,0,0,0,633.24,317.21Zm31.44-44.54.31-.17c0-.06-.12-.16-.16-.15a1.15,1.15,0,0,0-.32.15Zm-4.25.07c0,.05-.16.12-.15.16a2.3,2.3,0,0,0,.15.32c.05-.06.16-.12.15-.16A1.33,1.33,0,0,0,660.43,272.74Zm35,1.51-.17.17a2.3,2.3,0,0,0,.32.15s.11-.1.16-.15Zm-6.17,1.37c-.05.05-.16.12-.15.16a2.3,2.3,0,0,0,.15.32c0-.06.16-.12.15-.16A1,1,0,0,0,689.23,275.62Zm-33.67,1-.17.17a2.3,2.3,0,0,0,.32.15s.11-.1.16-.15Zm-1.3.48-.31.17c0,.05.12.16.16.15a2.3,2.3,0,0,0,.32-.15Zm38.88,1-.31.17c0,.05.12.16.16.15a2.3,2.3,0,0,0,.32-.15Zm-.38,3.12-.17-.31c-.05.05-.16.12-.15.16a2.3,2.3,0,0,0,.15.32Zm-14,3.94.17-.17a1.15,1.15,0,0,0-.32-.15s-.11.09-.16.15Zm-36.86.72-.17-.17a1.87,1.87,0,0,0-.15.32s.1.1.15.16Zm.24,2.3-.17.17a2.3,2.3,0,0,0,.32.15s.11-.1.16-.15Zm-11.62,29,.17.17a1.54,1.54,0,0,0,.15-.32s-.1-.11-.15-.16ZM684,244.83l.17-.17a1.15,1.15,0,0,0-.32-.15s-.11.09-.16.15Zm-23.76,4.7.17.17a1.54,1.54,0,0,0,.15-.32s-.1-.11-.15-.16Zm-4.32,3.22.17.31c0-.06.16-.12.15-.16a1.33,1.33,0,0,0-.15-.32Zm-13.2,1.82-.31.17c.05,0,.12.16.16.15a2.3,2.3,0,0,0,.32-.15Zm8.5,2.26.31-.17c0-.06-.12-.16-.16-.15a1.15,1.15,0,0,0-.32.15Zm-12.24.72-.17-.17a1.87,1.87,0,0,0-.15.32s.1.1.15.16Zm-3,2.16.17-.17a1.15,1.15,0,0,0-.32-.15s-.11.09-.16.15Zm3.94-.24-.17-.17a1.87,1.87,0,0,0-.15.32s.1.1.15.16Zm-2.26,1.58.17.17a1.54,1.54,0,0,0,.15-.32s-.1-.11-.15-.16Zm37.37,2.81c-.05-.06-.12-.16-.16-.15a1.15,1.15,0,0,0-.32.15c0,.05.12.16.16.15A2.3,2.3,0,0,0,675.07,263.86Zm-1.13.31-.31.17c0,.05.12.16.16.15a2.3,2.3,0,0,0,.32-.15Zm4.32,1.78.17-.17a1.15,1.15,0,0,0-.32-.15s-.11.09-.16.15Zm-57.19,1.51c-.05.05-.16.12-.15.16a2.3,2.3,0,0,0,.15.32c0-.06.16-.12.15-.16A1.33,1.33,0,0,0,621.07,267.46Zm30.89.31-.17-.31c0,.05-.16.12-.15.16a2.3,2.3,0,0,0,.15.32Zm15.19,1.61c0,.05-.16.12-.15.16a2.3,2.3,0,0,0,.15.32c.05-.06.16-.12.15-.16A1.33,1.33,0,0,0,667.15,269.38Zm-.07,1-.17.17a2.3,2.3,0,0,0,.32.15s.11-.1.16-.15Z" transform="translate(-596.84 -234.8)" data-element-index="1" style="cursor: pointer; fill: rgb(238, 230, 255);" fill="#eee6ff"></path> <path class="a" d="M672.19,305.86c0,.45.28.45.6.49.13,0,.24.15.35.24-.12.07-.24.2-.37.22-.46.05-.92,0-1.37.1-.07,0-.11.25-.17.39h-.94c-.46,0-.64.36-.42.79.11.2.3.35.39.55s0,.37-.09.41-.57.2-.61.14c-.39-.63-.68-.09-1.06,0a1.33,1.33,0,0,0-1.11,1.1s0-.06,0-.09-.15,0-.2,0-.35.25-.07.42c0,0,.19-.13.28-.32.46.16.63.48.39.69s-.43.65-.9.67c-.19,0-.37.23-.56.33-.35.19-.31-.12-.37-.3-.19-.57-.19-.58-.46-.31l-1,1c.65.38.3.7-.08,1s-.42.69-.9.67c.06-.3-.14-.62.16-.89.12-.12.48-.23.13-.5-.12-.1-.22-.23-.34-.34s-.19-.19,0-.84c0-.05,0-.15,0-.16s-.31-.18-.41-.14a2.64,2.64,0,0,0-1.41,1.53s0-.06,0-.09-.15,0-.2,0-.35.25-.07.42c0,0,.19-.13.28-.32a1,1,0,0,1,1.24.39c.22.28.09.44-.11.45a1.06,1.06,0,0,0-.8.4c-.23.23-.24.22,0,.68.07.13.18.33.13.41a3.1,3.1,0,0,1-.7.89.6.6,0,0,1-.8-.28c-.13-.2-.25-.21-.34,0a1.69,1.69,0,0,0-.07.45c0,.32,0,.64,0,1a.48.48,0,0,1-.27.32c-.13.06-.39.06-.45,0a1.21,1.21,0,0,1-.21-.61c0-.12.15-.27.27-.35s.23-.24,0-.35-.14-.1-.19-.09a6.72,6.72,0,0,1-1.91.59c-.05,0-.11.26-.15.4-.18.66-.81.93-1.22,1.39-.11.12-.46,0-.7,0a4,4,0,0,0,0-.69.46.46,0,0,0-.29-.19c-.28.25-.52.56-.83.79s-.56.17-.77.34-.56.32-.5.71c-.41,0-1-.22-1,.58,0,.24-.16.41-.46.38s-.51.25-.48.58c0,.13.15.25.23.37a1.14,1.14,0,0,0,.16-.15c.26-.42.66-.32,1-.32a1.15,1.15,0,0,1-.9.94,1.23,1.23,0,0,0-1,1.08c-.09.61-.61.31-1.3.38h-.12c.34,0,.32,0,.48-.47s.32-.66.47-1c0-.06,0-.19,0-.22s-.28-.17-.32-.13c-.51.48-1,1-1.51,1.49a.22.22,0,0,0,0,.16c0,.06.11.14.17.15s.32,0,.83,0c.29.07-.95,1-1,.95s-.38,0-.41-.11a4.9,4.9,0,0,0-.61-1.18c-.07-.1.12-.58.21-.58a1.23,1.23,0,0,0,1.21-1.14c.11-.54.66-.22.92-.52.58-.65,1.25-1.22,1.83-1.87a1.11,1.11,0,0,1,1.05-.35c.28,0,.52-.11.5-.33a1.09,1.09,0,0,1,.6-.95c.66-.51,1-1.33,1.93-1.65a3.35,3.35,0,0,0,1.31-1.26c.15-.2,0-.6.48-.62s.84-.72,1.46-.47c0,.33.15.49-.53,1.68s-.27,1.31.07,1a2.67,2.67,0,0,1,1.08-.78c.52-.18.89-.8,1.29-1.26.06-.07,0-.29-.06-.43s-.25-.23-.32,0c-.19.63-1.11,0-1.23.72,0,.05-.27.05-.42.08-.73.11-.76.11-.83,1,0,.43-.26.47-.6.5-.13,0-.24.15-.37.23.13.08.25.16,1.39-1,1-1.53.86-1.69.53-1.68,0-.29,0-.67.17-.85,1-1,2-2,2.93-3,.44-.44.44-.44,2.4-.41,1-.45.87-.59.77-.56-.34.12-.64.4-1,.44s-.47.42-.74.48-.36.07-.22.25.58.54.81.85c.35.49.56.2.84-.07.09-.08.3,0,.45,0,.73-.11.81-.18.78-.54s-.36-.38-.66-.44-.39-.21-.1-.44c.1-.08.15-.21-1,.07-1.18-.09-1.18-.56-1.18-1s0-.45.5-.24c.8.36,1.28.38,1.38-.07s.21-.61.69-.7c.3-.06.61-.48.77-.8a.41.41,0,0,0-.46-.6c0-.43-.2-.94.61-1,.39,0,.71-.56,1.24-.45a.57.57,0,0,0,.42-.11c.3-.26.54-.75.86-.79a1.84,1.84,0,0,0,1-.55c.29-.24.08-.38-.08-.5s-.22-.24,0-.35a.72.72,0,0,1,.2-.09c.47-.07,1.22.28,1.09-.72a2.85,2.85,0,0,0,1.48-1A2.73,2.73,0,0,1,674,299c.2-.09.38-.28.59-.3a4.26,4.26,0,0,0,2.84-1.73c-.08-.79.61-1.12,1.07-1.44s1-.64,1.48-1c.24-.19.73-.08,1.1-.08.06,0,.14.09.16.16s-.06.13-.12.16c-.95.52-1,.52-.46,1.63.08.16.13.35-.06.32-.56-.09-.75.54-1.22.54s-.46.25-.52.59c-.11.62-.36.25-.57,0-.05,0-.15-.12-.16-.11-.31.33-.19.91-.68,1.15.11.08.23.25.33.25.82-.05.58.54.61,1.07,0,0,0-.06,0-.09s-.15,0-.2,0-.35.25-.06.42c0,0,.18-.13.27-.32a7,7,0,0,1,1.44-.1c-.12.88.1,1.08,1,1-.12.95-1.17.8-1.63,1.36,0,0-.2-.13-.31-.18a2,2,0,0,0-.61-.21c-.29,0-.65-.09-.79.26a2,2,0,0,0,0,.69c-.51.09-.85.65-1.48.51-.2,0-.51.31-.73.51a6.49,6.49,0,0,0-1,1c-.3.45-.9.22-1.18.67s-.58.1-.88.17c-.1-.16-.17-.4-.32-.46a1.69,1.69,0,0,0-.64,0c-.05-.13-.08-.36-.16-.38-.29-.07-.34.14-.32.49.08-.11,0-.19-.22-.11a.33.33,0,0,0-.16.15.83.83,0,0,0-.09.4,1.18,1.18,0,0,0,.19.37c.09-.09.23-.15.27-.26a1.88,1.88,0,0,0,0-.55.77.77,0,0,1,.48-.11c.11.16.17.39.32.46A1.7,1.7,0,0,0,672.19,305.86Zm4.7-6.59c-.06,0-.15-.11-.16-.1-.5.49-1,1-1.49,1.49a1.46,1.46,0,0,0-.17.4c.24,0,.56.1.69,0a12,12,0,0,0,1.22-1.35c0-.07-.06-.27-1.91,2.32a4.19,4.19,0,0,1,0-.71c0-.25,0-.33-.25-.24-.06,0-.11.11-.17.17l-.17.16c-.54.57-.47,1,.26,1.48,0,0,.29-.07.31-.14C675.1,302.49,675.07,302.25,676.89,299.27Zm-10.2,9.47a1.18,1.18,0,0,0,1.18-1.08.42.42,0,0,0-.08-.2,1,1,0,0,0-.15-.15c-.38.37-.77.74-1.13,1.13C666.49,308.46,666.63,308.63,666.69,308.74Zm6.85-6.57c-.06-.05-.12-.15-.17-.14-.21,0-.49,0-.6.17s0,.4,0,.61.11.16.16.15A1.85,1.85,0,0,0,673.54,302.17Zm5.2-5.5.17-.17a1.15,1.15,0,0,0-.32-.15s-.11.09-.16.15Zm-7.34,7.2.31-.17c-.05-.06-.12-.16-.16-.15a1.15,1.15,0,0,0-.32.15Zm-15.29,13c-.05.05-.16.12-.15.16a2.3,2.3,0,0,0,.15.32c0-.06.16-.12.15-.16A1.33,1.33,0,0,0,656.11,316.9Z" transform="translate(-596.84 -234.8)" data-element-index="2" style="cursor: pointer; fill: rgb(238, 230, 255);" fill="#eee6ff"></path> <path class="a" d="M693.79,285.7c.06.13.11.27.17.4s.46.24.12.51a4,4,0,0,0-.5.51,1.35,1.35,0,0,0-.19.33,1.46,1.46,0,0,0,.41.16,2.44,2.44,0,0,0,.47,0c0,.16,0,.32,0,.47.05.48.05.47.51.23a2,2,0,0,1,.62-.21c.08,0,.18.18.27.27-.7.54-.28,1.69-1.17,2.15-.35.17-.17.56-.24.85s-.17.52-.29.53c-.83.07-1.09.83-1.63,1.25a1.26,1.26,0,0,1-1.79-.4c0-.08,0-.26.12-.33.38-.3.22-.72.23-1.09,0-.12-.16-.23-.24-.35-.06.06-.16.11-.16.17a1.51,1.51,0,0,1-.68,1.15.22.22,0,0,1-.17,0c-.06,0-.16-.1-.16-.16,0-.4,0-.79,0-1.19s.4-.66.67-.9.58-.09.8.19.39.09.44-.11,0-.93.58-.34a.67.67,0,0,0,.62.15,2.66,2.66,0,0,0,.68-.66,1.62,1.62,0,0,0-.27-.27s-.16,0-.23,0a2.93,2.93,0,0,1-.39-.21,2,2,0,0,1,.33-.26c.2-.1.41-.16.61-.25a3.84,3.84,0,0,0-.69-.65c-.15-.09-.42,0-.63.07s-.13.09-.17.16c-.43.76-1.16.68-1.87.67.06-.29-.14-.62.16-.89.57-.5,1-1.29,1.94-1A9.24,9.24,0,0,1,693.79,285.7Zm-2,6.55-.17-.31c0,.05-.16.12-.15.16a2.3,2.3,0,0,0,.15.32Z" transform="translate(-596.84 -234.8)" data-element-index="3" style="cursor: pointer; fill: rgb(238, 230, 255);" fill="#eee6ff"></path> <path class="a" d="M618.43,296.74a1.13,1.13,0,0,0-1.21.47s-.15,0-.23,0c0-.43-.21-1,.61-1,.23,0,.38-.19.36-.48a.53.53,0,0,1,.18-.39c.25-.15.57-.18.8-.35a28.12,28.12,0,0,1,2.43-2.16,9.92,9.92,0,0,0,2.39-2.23c.43-.53,1.14-.47,1.53-1a.4.4,0,0,1,.31.1.73.73,0,0,1,0,.46c-.1.28-.54.36-.47.76-.24,0-.58-.1-.7,0-.57.63-1.36,1.07-1.7,1.91a.41.41,0,0,0-.48.48.41.41,0,0,0-.48.48c-.22,0-.52-.09-.65,0a3.38,3.38,0,0,0-1.27,1.43,35825915657997.6,35825915657997.6,0,0,0-1.44,1.44Z" transform="translate(-596.84 -234.8)" data-element-index="4" style="cursor: pointer; fill: rgb(238, 230, 255);" fill="#eee6ff"></path> <path class="a" d="M682.75,298.18c.16-.65-.23-1-.67-1.37,0,0-.24.11-.32.21s-.27.23-.33.07a2.28,2.28,0,0,1-.06-.64c0-.06.11-.17.16-.16.76.07,1-.73,1.49-1a3.26,3.26,0,0,1,1.17,0c-.05.57.2,1.22-.44,1.66-.07.05,0,.29,0,.43C683.59,298.14,683.58,298.14,682.75,298.18Z" transform="translate(-596.84 -234.8)" data-element-index="5" style="cursor: pointer; fill: rgb(238, 230, 255);" fill="#eee6ff"></path> <path class="a" d="M698.8,286.76c-.23.14-.42.34-.62.35a.61.61,0,0,1-.52-.28c0-.17.1-.59.18-.59.43,0,.67-.32,1-.5s.6-.07.8-.36c0-.06.12-.15.16-.14a.27.27,0,0,1,.17.16,1.87,1.87,0,0,0,.48,1,1.33,1.33,0,0,1,0,.91c-.08.39-.49.27-.76.36-.06,0-.1.13-.17.16-.46.26-.46.26-.5-.21a5.77,5.77,0,0,0,0-.72C699,286.83,698.85,286.79,698.8,286.76Z" transform="translate(-596.84 -234.8)" data-element-index="6" style="cursor: pointer; fill: rgb(238, 230, 255);" fill="#eee6ff"></path> <path class="a" d="M686.36,295.3h.48c.47,0,.14.32.23.47s.09.28.16.41c.2.35.15.54-.19.84a.56.56,0,0,1-.81.07,10.6,10.6,0,0,1-1-1,.56.56,0,0,1-.07-.43.41.41,0,0,1,.49-.36A5.63,5.63,0,0,0,686.36,295.3Z" transform="translate(-596.84 -234.8)" data-element-index="7" style="cursor: pointer; fill: rgb(238, 230, 255);" fill="#eee6ff"></path> <path class="a" d="M684.67,292.27c0,.15,0,.35-.07.44-.53.65-1.32,1.09-1.53,2,0,.07-.41.08-.61,0s-.21-.28-.17-.37a14.61,14.61,0,0,1,.63-1.4c.31-.6,1.14-.44,1.48-1Z" transform="translate(-596.84 -234.8)" data-element-index="8" style="cursor: pointer; fill: rgb(238, 230, 255);" fill="#eee6ff"></path> <path class="a" d="M642.43,327.94c-.09.59-.87.77-.92,1.26s-.69.83-.6,1.44c0,.19-.2.22-.31,0-.25-.43-.66-.33-1.05-.33a10.82,10.82,0,0,1,2.19-2.39C641.85,327.84,642.2,327.94,642.43,327.94Z" transform="translate(-596.84 -234.8)" data-element-index="9" style="cursor: pointer; fill: rgb(238, 230, 255);" fill="#eee6ff"></path> <path class="a" d="M616.31,270.74a1.17,1.17,0,0,0-.34.83c0,.08-.38.18-.59.19s-.3-.19-.29-.29c0-.37-.17-.78.18-1.1a11.72,11.72,0,0,1,1-1c.15-.12.46,0,.69,0a3.42,3.42,0,0,1-.17.4C616.69,270,616.55,270.29,616.31,270.74Z" transform="translate(-596.84 -234.8)" data-element-index="10" style="cursor: pointer; fill: rgb(238, 230, 255);" fill="#eee6ff"></path> <path class="a" d="M644.71,325.63c0,.17.16.38.11.44-.55.63-1.1,1.27-1.7,1.85-.12.12-.45,0-.69,0,.06-.14.07-.34.17-.39.46-.26.26-.82.62-1.18s.88-.23,1.17-.62C644.45,325.68,644.6,325.67,644.71,325.63Z" transform="translate(-596.84 -234.8)" data-element-index="11" style="cursor: pointer; fill: rgb(238, 230, 255);" fill="#eee6ff"></path> <path class="a" d="M689,294.34c.07-.4-.4-.47-.46-.75s.1-.42.16-.63a1.27,1.27,0,0,1,.33.22c.13.17.21.2.34.08s.45-.61.57,0a2.16,2.16,0,0,0,.41.78c.29.47.06.74-.63.79h-.24A.41.41,0,0,0,689,294.34Z" transform="translate(-596.84 -234.8)" data-element-index="12" style="cursor: pointer; fill: rgb(238, 230, 255);" fill="#eee6ff"></path> <path class="a" d="M693.49,255.94a1.13,1.13,0,0,1,.18.12.23.23,0,0,1,.07.16c0,.07-.11.11-.16.17a3.37,3.37,0,0,1-.51.49c-.11.07-.33,0-.45,0s-.32.34-.52.46-.33-.05-.45,0-.33.34-.52.46a1.17,1.17,0,0,1-.46,0h-.24c0-.08,0-.19,0-.23.21-.23.39-.57.66-.65A24,24,0,0,1,693.49,255.94Z" transform="translate(-596.84 -234.8)" data-element-index="13" style="cursor: pointer; fill: rgb(238, 230, 255);" fill="#eee6ff"></path> <path class="a" d="M639,317.7c-.9.45.24.7.07,1.08-.06.14-.08.28-.15.42s-.12.05-.15,0c-.45-.27-.89-.55-1.33-.83-.06-.05-.16-.11-.16-.17a.63.63,0,0,1,.09-.33c.33-.59.9-.56,1.45-.5C638.89,317.4,638.94,317.59,639,317.7Z" transform="translate(-596.84 -234.8)" data-element-index="14" style="cursor: pointer; fill: rgb(238, 230, 255);" fill="#eee6ff"></path> <path class="a" d="M701.22,270.34c-.23.08-.37-.06-.22-.22a14.28,14.28,0,0,1,1.37-1.21c.07-.05.31,0,.4.11a.5.5,0,0,1,.13.4c-.17.65-.82.89-1.18,1.39Z" transform="translate(-596.84 -234.8)" data-element-index="15" style="cursor: pointer; fill: rgb(238, 230, 255);" fill="#eee6ff"></path> <path class="a" d="M633.31,321.59c0,.15,0,.38-.1.43-.45.24-.93.43-1.41.63,0,0-.15,0-.21,0-.22-.11-.23-.22-.05-.34a.74.74,0,0,0,.33-.81c0-.08,0-.2,0-.23a3,3,0,0,1,1.35.16A.44.44,0,0,1,633.31,321.59Z" transform="translate(-596.84 -234.8)" data-element-index="16" style="cursor: pointer; fill: rgb(238, 230, 255);" fill="#eee6ff"></path> <path class="a" d="M669.31,295.3c-.68,0-1.37,0-2,0a.37.37,0,0,1-.35-.47,1.84,1.84,0,0,0,2-.76.36.36,0,0,1,.3-.07.9.9,0,0,1,.13.4C669.32,294.69,669.31,295,669.31,295.3Z" transform="translate(-596.84 -234.8)" data-element-index="17" style="cursor: pointer; fill: rgb(238, 230, 255);" fill="#eee6ff"></path> <path class="a" d="M688.82,290c-.32,0-.42,0-.47,0a.69.69,0,0,1-.3-.31,1,1,0,0,1,0-.45l1.63-.67c.08,0,.19,0,.23,0a.22.22,0,0,1,0,.22,1.43,1.43,0,0,0-.54,1C689.39,289.92,688.88,290,688.82,290Z" transform="translate(-596.84 -234.8)" data-element-index="18" style="cursor: pointer; fill: rgb(238, 230, 255);" fill="#eee6ff"></path> <path class="a" d="M696.19,287.14c-.29.06-.65-.16-.87.16s-.67.32-1.05.32c.12-.67.79-.88,1.14-1.35a.54.54,0,0,1,.3.16C695.89,286.65,696.25,286.76,696.19,287.14Z" transform="translate(-596.84 -234.8)" data-element-index="19" style="cursor: pointer; fill: rgb(238, 230, 255);" fill="#eee6ff"></path> <path class="a" d="M639.55,330.58c.12.58-.35.84-.69,1.13-.11.1-.45,0-.62-.07s-.17-.76.09-.77a1.6,1.6,0,0,0,1-.52C639.5,330.2,639.63,330.34,639.55,330.58Z" transform="translate(-596.84 -234.8)" data-element-index="20" style="cursor: pointer; fill: rgb(238, 230, 255);" fill="#eee6ff"></path> <path class="a" d="M666,305.61a2.18,2.18,0,0,1-1.31.86c-.21,0-.41.6-.59,0-.09-.29,0-.65.44-.62s.67-.69,1.23-.49c.07,0,.18,0,.22,0S666,305.54,666,305.61Z" transform="translate(-596.84 -234.8)" data-element-index="21" style="cursor: pointer; fill: rgb(238, 230, 255);" fill="#eee6ff"></path> <path class="a" d="M657.8,304.33a1.15,1.15,0,0,1-1,1.05c-.07,0-.19,0-.22,0s-.2-.27-.17-.3c.31-.34.65-.65,1-1,.14-.16.22-.18.32,0A1.43,1.43,0,0,1,657.8,304.33Z" transform="translate(-596.84 -234.8)" data-element-index="22" style="cursor: pointer; fill: rgb(238, 230, 255);" fill="#eee6ff"></path> <path class="a" d="M652.51,306.08a1.18,1.18,0,0,1,0-.46c0-.08.25-.18.3-.14a1.53,1.53,0,0,1,.49.49.78.78,0,0,1,.11.61.73.73,0,0,1-.58.22.37.37,0,0,1-.34-.48A1.92,1.92,0,0,0,652.51,306.08Z" transform="translate(-596.84 -234.8)" data-element-index="23" style="cursor: pointer; fill: rgb(238, 230, 255);" fill="#eee6ff"></path> <path class="a" d="M688,295.3c.45,0,.45-.28.49-.6a.37.37,0,0,1,.47-.36.41.41,0,0,0,.48.48,1.17,1.17,0,0,1-.86.94A.41.41,0,0,1,688,295.3Z" transform="translate(-596.84 -234.8)" data-element-index="24" style="cursor: pointer; fill: rgb(238, 230, 255);" fill="#eee6ff"></path> <path class="a" d="M698.35,283.3a3.72,3.72,0,0,1-.72,0c-.2-.05,0-.43.38-.44s.69-.68,1.23-.51a.47.47,0,0,1,.19.12.27.27,0,0,1,.07.16,2,2,0,0,1-.51.5A2.68,2.68,0,0,1,698.35,283.3Z" transform="translate(-596.84 -234.8)" data-element-index="25" style="cursor: pointer; fill: rgb(238, 230, 255);" fill="#eee6ff"></path> <path class="a" d="M686.11,260.26a1.18,1.18,0,0,1,1.44-1c-.11.19-.22.37-.32.56s-.11.27-.16.4Z" transform="translate(-596.84 -234.8)" data-element-index="26" style="cursor: pointer; fill: rgb(238, 230, 255);" fill="#eee6ff"></path> <path class="a" d="M653,319.3c.65,0,.47.49.47.84a1.59,1.59,0,0,1-.25.59s-.15,0-.23,0h-.47c0-.08,0-.2,0-.23A1.13,1.13,0,0,0,653,319.3Z" transform="translate(-596.84 -234.8)" data-element-index="27" style="cursor: pointer; fill: rgb(238, 230, 255);" fill="#eee6ff"></path> <path class="a" d="M680.83,301.06a1.18,1.18,0,0,1,1.44-1A1.18,1.18,0,0,1,680.83,301.06Z" transform="translate(-596.84 -234.8)" data-element-index="28" style="cursor: pointer; fill: rgb(238, 230, 255);" fill="#eee6ff"></path> <path class="a" d="M631.87,323.86c-.36.23-.5.82-1.08.71-.13,0-.24-.15-.36-.23.35-.26.52-.8,1.08-.71C631.64,323.65,631.75,323.78,631.87,323.86Z" transform="translate(-596.84 -234.8)" data-element-index="29" style="cursor: pointer; fill: rgb(238, 230, 255);" fill="#eee6ff"></path> <path class="a" d="M646.75,324.83a2.36,2.36,0,0,1,0,.46c0,.06-.11.17-.15.16s-.27-.08-.31-.17a4.5,4.5,0,0,1-.17-.63c-.05-.16-.5-.23-.13-.48a.57.57,0,0,1,.43-.06.39.39,0,0,1,.34.49A1.76,1.76,0,0,0,646.75,324.83Z" transform="translate(-596.84 -234.8)" data-element-index="30" style="cursor: pointer; fill: rgb(238, 230, 255);" fill="#eee6ff"></path> <path class="a" d="M637.37,332.74a.59.59,0,0,1-.23,0l-.39-.15a1.71,1.71,0,0,1,.17-.33c.15-.16.42-.46.47-.43a3,3,0,0,1,.65.63s-.12.24-.21.28A1.76,1.76,0,0,1,637.37,332.74Z" transform="translate(-596.84 -234.8)" data-element-index="31" style="cursor: pointer; fill: rgb(238, 230, 255);" fill="#eee6ff"></path> <path class="a" d="M682.75,298.44c0,.53-.12.73-.55.7a.39.39,0,0,1-.41-.41c0-.35.11-.6.5-.54C682.45,298.21,682.78,298,682.75,298.44Z" transform="translate(-596.84 -234.8)" data-element-index="32" style="cursor: pointer; fill: rgb(238, 230, 255);" fill="#eee6ff"></path> <path class="a" d="M688,295.3h-1c0-.16,0-.32,0-.47,0-.39.25-.56.6-.49s.41.19.37.49A2.44,2.44,0,0,0,688,295.3Z" transform="translate(-596.84 -234.8)" data-element-index="33" style="cursor: pointer; fill: rgb(238, 230, 255);" fill="#eee6ff"></path> <path class="a" d="M686.11,291.93c-.05.14-.11.28-.16.41a1.25,1.25,0,0,1-.34-.19,2.22,2.22,0,0,1-.44-.53.49.49,0,0,1,0-.44c.23-.37.35,0,.49.11C686,291.53,686.14,291.72,686.11,291.93Z" transform="translate(-596.84 -234.8)" data-element-index="34" style="cursor: pointer; fill: rgb(238, 230, 255);" fill="#eee6ff"></path> <path class="a" d="M694.23,285.7c-.12-.11-.5.23-.42-.23,0-.1.21-.23.33-.24a6.68,6.68,0,0,1,.89,0,.3.3,0,0,1,.15.15c-.07.11-.15.26-.25.28A4,4,0,0,1,694.23,285.7Z" transform="translate(-596.84 -234.8)" data-element-index="35" style="cursor: pointer; fill: rgb(238, 230, 255);" fill="#eee6ff"></path> <path class="a" d="M617,297.5c-.18.18-.4.38-.62.58,0,0-.15.05-.15,0s-.18-.24-.18-.37c0-.48.08-.53.73-.52.07,0,.18,0,.21,0S617,297.37,617,297.5Z" transform="translate(-596.84 -234.8)" data-element-index="36" style="cursor: pointer; fill: rgb(238, 230, 255);" fill="#eee6ff"></path> <path class="a" d="M699.55,284.26c0,.38-.17.51-.58.47-.13,0-.25-.15-.37-.22l.15-.17a2.42,2.42,0,0,1,.32-.32,3.36,3.36,0,0,1,.33-.16Z" transform="translate(-596.84 -234.8)" data-element-index="37" style="cursor: pointer; fill: rgb(238, 230, 255);" fill="#eee6ff"></path> <path class="a" d="M680.11,298.72l-.63-.23s0-.13,0-.15a1.26,1.26,0,0,1,1.27,0s0,.15,0,.15Z" transform="translate(-596.84 -234.8)" data-element-index="38" style="cursor: pointer; fill: rgb(238, 230, 255);" fill="#eee6ff"></path> <path class="a" d="M646.05,313.08a1.21,1.21,0,0,1,.16.16.56.56,0,0,1-.2.77.63.63,0,0,1-.45,0c-.26-.14-.2-.32,0-.48s.22-.22.33-.33Z" transform="translate(-596.84 -234.8)" data-element-index="39" style="cursor: pointer; fill: rgb(238, 230, 255);" fill="#eee6ff"></path> <path class="a" d="M686.59,291.46h-.48a3.68,3.68,0,0,1,0-.47c.07-.46.36-.62.79-.42.21.09.19.18,0,.33A2.26,2.26,0,0,0,686.59,291.46Z" transform="translate(-596.84 -234.8)" data-element-index="40" style="cursor: pointer; fill: rgb(238, 230, 255);" fill="#eee6ff"></path> <path class="a" d="M666.91,294.82a1.7,1.7,0,0,1-.64,0c-.15-.07-.22-.3-.32-.46a1.85,1.85,0,0,0,.53-.31c.26-.28.37,0,.42.13A2.91,2.91,0,0,1,666.91,294.82Z" transform="translate(-596.84 -234.8)" data-element-index="41" style="cursor: pointer; fill: rgb(238, 230, 255);" fill="#eee6ff"></path> <path class="a" d="M660.19,301.06a1.19,1.19,0,0,1-1,1C659.11,301.14,659.33,300.94,660.19,301.06Z" transform="translate(-596.84 -234.8)" data-element-index="42" style="cursor: pointer; fill: rgb(238, 230, 255);" fill="#eee6ff"></path> <path class="a" d="M690.43,257.86v.48h-1c.11-.16.17-.4.32-.46A1.7,1.7,0,0,1,690.43,257.86Z" transform="translate(-596.84 -234.8)" data-element-index="43" style="cursor: pointer; fill: rgb(238, 230, 255);" fill="#eee6ff"></path> <path class="a" d="M688.51,258.82c.11-.16.17-.4.32-.46a1.7,1.7,0,0,1,.64,0c-.1.16-.17.39-.32.46A1.69,1.69,0,0,1,688.51,258.82Z" transform="translate(-596.84 -234.8)" data-element-index="44" style="cursor: pointer; fill: rgb(238, 230, 255);" fill="#eee6ff"></path> <path class="a" d="M687.55,259.3c.11-.16.17-.4.32-.46a1.7,1.7,0,0,1,.64,0c-.1.16-.17.39-.32.46A1.69,1.69,0,0,1,687.55,259.3Z" transform="translate(-596.84 -234.8)" data-element-index="45" style="cursor: pointer; fill: rgb(238, 230, 255);" fill="#eee6ff"></path> <path class="a" d="M685.15,260.74c.11-.16.17-.4.32-.46a1.7,1.7,0,0,1,.64,0v.48Z" transform="translate(-596.84 -234.8)" data-element-index="46" style="cursor: pointer; fill: rgb(238, 230, 255);" fill="#eee6ff"></path> <path class="a" d="M684.19,261.22c.11-.16.17-.4.32-.46a1.7,1.7,0,0,1,.64,0v.48Z" transform="translate(-596.84 -234.8)" data-element-index="47" style="cursor: pointer; fill: rgb(238, 230, 255);" fill="#eee6ff"></path> <path class="a" d="M615.87,272.66a1.38,1.38,0,0,1-.43.07.26.26,0,1,1,0-.46,1,1,0,0,1,.43.07c.06,0,.15.1.15.16S615.92,272.61,615.87,272.66Z" transform="translate(-596.84 -234.8)" data-element-index="48" style="cursor: pointer; fill: rgb(238, 230, 255);" fill="#eee6ff"></path> <path class="a" d="M697.11,287.42c-.05.21-.44.26-.77.1a.31.31,0,0,1-.14-.16c-.09-.22,0-.29.22-.23s.41.08.61.14C697.07,287.28,697.09,287.37,697.11,287.42Z" transform="translate(-596.84 -234.8)" data-element-index="49" style="cursor: pointer; fill: rgb(238, 230, 255);" fill="#eee6ff"></path> <path class="a" d="M686.43,294.26a.39.39,0,0,1-.16,0,.52.52,0,0,1,0-.79.18.18,0,0,1,.16,0A.52.52,0,0,1,686.43,294.26Z" transform="translate(-596.84 -234.8)" data-element-index="50" style="cursor: pointer; fill: rgb(238, 230, 255);" fill="#eee6ff"></path> <path class="a" d="M670.75,294.82c-.1.16-.17.39-.32.46a1.69,1.69,0,0,1-.64,0c.11-.16.17-.4.32-.46A1.7,1.7,0,0,1,670.75,294.82Z" transform="translate(-596.84 -234.8)" data-element-index="51" style="cursor: pointer; fill: rgb(238, 230, 255);" fill="#eee6ff"></path> <path class="a" d="M668.57,297a3.71,3.71,0,0,1-.81.22c-.12,0-.25-.14-.37-.22.12-.08.25-.23.37-.23A4.68,4.68,0,0,1,668.57,297Z" transform="translate(-596.84 -234.8)" data-element-index="52" style="cursor: pointer; fill: rgb(238, 230, 255);" fill="#eee6ff"></path> <path class="a" d="M665.91,298.46c0,.21-.44.26-.77.1a.31.31,0,0,1-.14-.16c-.09-.22,0-.29.22-.23s.41.08.61.14C665.87,298.32,665.89,298.41,665.91,298.46Z" transform="translate(-596.84 -234.8)" data-element-index="53" style="cursor: pointer; fill: rgb(238, 230, 255);" fill="#eee6ff"></path> <path class="a" d="M680.15,299.18c.21.05.27.44.1.77a.28.28,0,0,1-.16.14c-.22.09-.28,0-.22-.22s.08-.41.13-.61C680,299.22,680.1,299.2,680.15,299.18Z" transform="translate(-596.84 -234.8)" data-element-index="54" style="cursor: pointer; fill: rgb(238, 230, 255);" fill="#eee6ff"></path> <path class="a" d="M652.07,307.36l-.28.42c-.08-.12-.23-.25-.22-.36a2.29,2.29,0,0,1,.22-.6Z" transform="translate(-596.84 -234.8)" data-element-index="55" style="cursor: pointer; fill: rgb(238, 230, 255);" fill="#eee6ff"></path> <path class="a" d="M671.71,307.85l-.2.37c-.09-.16-.25-.32-.26-.48s-.24-.5.2-.43c.1,0,.19.2.26.32S671.71,307.78,671.71,307.85Z" transform="translate(-596.84 -234.8)" data-element-index="56" style="cursor: pointer; fill: rgb(238, 230, 255);" fill="#eee6ff"></path> <path class="a" d="M643.83,315.26c-.05.21-.44.26-.77.1a.31.31,0,0,1-.14-.16c-.09-.22,0-.29.22-.23s.41.08.61.14C643.79,315.12,643.81,315.21,643.83,315.26Z" transform="translate(-596.84 -234.8)" data-element-index="57" style="cursor: pointer; fill: rgb(238, 230, 255);" fill="#eee6ff"></path> <path class="a" d="M616.51,275.35c-.09.08-.24.23-.28.21-.28-.17-.09-.31.07-.42s.17,0,.2,0S616.51,275.28,616.51,275.35Z" transform="translate(-596.84 -234.8)" data-element-index="58" style="cursor: pointer; fill: rgb(238, 230, 255);" fill="#eee6ff"></path> <path class="a" d="M697.63,283.51c-.09.08-.24.23-.27.21-.29-.17-.1-.31.06-.42s.17,0,.2,0S697.63,283.44,697.63,283.51Z" transform="translate(-596.84 -234.8)" data-element-index="59" style="cursor: pointer; fill: rgb(238, 230, 255);" fill="#eee6ff"></path> <path class="a" d="M688,290.81l-.17.17a2.3,2.3,0,0,1-.15-.32s.1-.11.15-.16Z" transform="translate(-596.84 -234.8)" data-element-index="60" style="cursor: pointer; fill: rgb(238, 230, 255);" fill="#eee6ff"></path> <path class="a" d="M695.4,290.57l.31.17c-.05.05-.12.16-.16.15a2.3,2.3,0,0,1-.32-.15Z" transform="translate(-596.84 -234.8)" data-element-index="61" style="cursor: pointer; fill: rgb(238, 230, 255);" fill="#eee6ff"></path> <path class="a" d="M687,291.74c0,.05-.13.15-.15.14a.83.83,0,0,1-.28-.21.18.18,0,0,1,0-.2.2.2,0,0,1,.2,0A1.56,1.56,0,0,1,687,291.74Z" transform="translate(-596.84 -234.8)" data-element-index="62" style="cursor: pointer; fill: rgb(238, 230, 255);" fill="#eee6ff"></path> <path class="a" d="M684.47,294.86c.06.05.16.13.15.15a1,1,0,0,1-.22.28.14.14,0,1,1-.2-.2A1.49,1.49,0,0,1,684.47,294.86Z" transform="translate(-596.84 -234.8)" data-element-index="63" style="cursor: pointer; fill: rgb(238, 230, 255);" fill="#eee6ff"></path> <path class="a" d="M669.79,295.3c0,.23,0,.44-.32.38-.08,0-.11-.25-.16-.38Z" transform="translate(-596.84 -234.8)" data-element-index="64" style="cursor: pointer; fill: rgb(238, 230, 255);" fill="#eee6ff"></path> <path class="a" d="M666.36,296.43l-.17.31c-.05-.06-.16-.12-.15-.16a1.87,1.87,0,0,1,.15-.32Z" transform="translate(-596.84 -234.8)" data-element-index="65" style="cursor: pointer; fill: rgb(238, 230, 255);" fill="#eee6ff"></path> <path class="a" d="M666.12,297.63l-.17-.17a1.15,1.15,0,0,1,.32-.15s.11.09.16.15Z" transform="translate(-596.84 -234.8)" data-element-index="66" style="cursor: pointer; fill: rgb(238, 230, 255);" fill="#eee6ff"></path> <path class="a" d="M685,297.77l.17.17a2.3,2.3,0,0,1-.32.15s-.11-.1-.16-.15Z" transform="translate(-596.84 -234.8)" data-element-index="67" style="cursor: pointer; fill: rgb(238, 230, 255);" fill="#eee6ff"></path> <path class="a" d="M682.55,299.66c.06,0,.16.13.15.15a1,1,0,0,1-.22.28.14.14,0,1,1-.2-.2A1.49,1.49,0,0,1,682.55,299.66Z" transform="translate(-596.84 -234.8)" data-element-index="68" style="cursor: pointer; fill: rgb(238, 230, 255);" fill="#eee6ff"></path> <path class="a" d="M677.91,303.26c0,.05-.13.15-.15.15a1,1,0,0,1-.28-.22.18.18,0,0,1,0-.2.2.2,0,0,1,.2,0A1.56,1.56,0,0,1,677.91,303.26Z" transform="translate(-596.84 -234.8)" data-element-index="69" style="cursor: pointer; fill: rgb(238, 230, 255);" fill="#eee6ff"></path> <path class="a" d="M651.51,304.7c0,.05-.13.15-.15.14a.83.83,0,0,1-.28-.21.18.18,0,0,1,0-.2.2.2,0,0,1,.2,0A1.56,1.56,0,0,1,651.51,304.7Z" transform="translate(-596.84 -234.8)" data-element-index="70" style="cursor: pointer; fill: rgb(238, 230, 255);" fill="#eee6ff"></path> <path class="a" d="M608.35,305.11c-.09.08-.24.23-.28.21-.28-.17-.09-.31.07-.42s.17,0,.2,0S608.35,305,608.35,305.11Z" transform="translate(-596.84 -234.8)" data-element-index="71" style="cursor: pointer; fill: rgb(238, 230, 255);" fill="#eee6ff"></path> <path class="a" d="M650.07,308.06c-.05.05-.13.15-.15.15a1,1,0,0,1-.28-.22.18.18,0,0,1,0-.2.2.2,0,0,1,.2,0A1.56,1.56,0,0,1,650.07,308.06Z" transform="translate(-596.84 -234.8)" data-element-index="72" style="cursor: pointer; fill: rgb(238, 230, 255);" fill="#eee6ff"></path> <path class="a" d="M652.82,307.85l.17.17a2.3,2.3,0,0,1-.32.15s-.11-.1-.16-.15Z" transform="translate(-596.84 -234.8)" data-element-index="73" style="cursor: pointer; fill: rgb(238, 230, 255);" fill="#eee6ff"></path> <path class="a" d="M648.19,311.83c-.09.08-.24.23-.28.21-.28-.17-.09-.31.07-.42s.17,0,.2,0S648.19,311.76,648.19,311.83Z" transform="translate(-596.84 -234.8)" data-element-index="74" style="cursor: pointer; fill: rgb(238, 230, 255);" fill="#eee6ff"></path> <path class="a" d="M663.55,314.23c-.09.08-.24.23-.28.21-.28-.17-.09-.31.07-.42s.17,0,.2,0S663.55,314.16,663.55,314.23Z" transform="translate(-596.84 -234.8)" data-element-index="75" style="cursor: pointer; fill: rgb(238, 230, 255);" fill="#eee6ff"></path> <path class="a" d="M655.39,318.55c-.09.08-.24.23-.28.21-.28-.17-.09-.31.07-.42s.17,0,.2,0S655.39,318.48,655.39,318.55Z" transform="translate(-596.84 -234.8)" data-element-index="76" style="cursor: pointer; fill: rgb(238, 230, 255);" fill="#eee6ff"></path> <path class="a" d="M628.92,325.85l-.17.17a2.3,2.3,0,0,1-.15-.32s.1-.11.15-.16Z" transform="translate(-596.84 -234.8)" data-element-index="77" style="cursor: pointer; fill: rgb(238, 230, 255);" fill="#eee6ff"></path> <path class="a" d="M666,235.13l.17-.31c0,.05.16.12.15.16a1.54,1.54,0,0,1-.15.32Z" transform="translate(-596.84 -234.8)" data-element-index="78" style="cursor: pointer; fill: rgb(238, 230, 255);" fill="#eee6ff"></path> <path class="a" d="M660.47,237.74c.06,0,.16.13.15.15a1,1,0,0,1-.22.28.14.14,0,1,1-.2-.2A1.49,1.49,0,0,1,660.47,237.74Z" transform="translate(-596.84 -234.8)" data-element-index="79" style="cursor: pointer; fill: rgb(238, 230, 255);" fill="#eee6ff"></path> <path class="a" d="M660.19,238.18v.48c-.23,0-.44,0-.38-.32C659.83,238.26,660.06,238.23,660.19,238.18Z" transform="translate(-596.84 -234.8)" data-element-index="80" style="cursor: pointer; fill: rgb(238, 230, 255);" fill="#eee6ff"></path> <path class="a" d="M688,245.55l-.17.31c0-.06-.16-.12-.15-.16a1.87,1.87,0,0,1,.15-.32Z" transform="translate(-596.84 -234.8)" data-element-index="81" style="cursor: pointer; fill: rgb(238, 230, 255);" fill="#eee6ff"></path> <path class="a" d="M646.27,246.82c0-.24,0-.45.32-.38.08,0,.11.25.16.38Z" transform="translate(-596.84 -234.8)" data-element-index="82" style="cursor: pointer; fill: rgb(238, 230, 255);" fill="#eee6ff"></path> <path class="a" d="M672.26,246.51l.17-.17a1.33,1.33,0,0,1,.15.32s-.1.1-.15.16Z" transform="translate(-596.84 -234.8)" data-element-index="83" style="cursor: pointer; fill: rgb(238, 230, 255);" fill="#eee6ff"></path> <path class="a" d="M689.78,253l-.31-.17c0-.06.12-.16.16-.15a1.15,1.15,0,0,1,.32.15Z" transform="translate(-596.84 -234.8)" data-element-index="84" style="cursor: pointer; fill: rgb(238, 230, 255);" fill="#eee6ff"></path> <path class="a" d="M635.5,254c-.08-.1-.23-.24-.21-.28.17-.29.3-.09.42.07a.2.2,0,0,1,0,.2S635.57,254,635.5,254Z" transform="translate(-596.84 -234.8)" data-element-index="85" style="cursor: pointer; fill: rgb(238, 230, 255);" fill="#eee6ff"></path> <path class="a" d="M684.19,261.43c-.09.08-.24.23-.27.21-.29-.17-.1-.31.06-.42s.17,0,.2,0S684.19,261.36,684.19,261.43Z" transform="translate(-596.84 -234.8)" data-element-index="86" style="cursor: pointer; fill: rgb(238, 230, 255);" fill="#eee6ff"></path> <path class="a" d="M668.35,293.11c-.09.08-.24.23-.28.21-.28-.17-.09-.31.07-.42s.17,0,.2,0S668.35,293,668.35,293.11Z" transform="translate(-596.84 -234.8)" data-element-index="87" style="cursor: pointer; fill: rgb(238, 230, 255);" fill="#eee6ff"></path> <path class="a" d="M650.11,270.34a.41.41,0,0,0-.48.48h-1.44a1.52,1.52,0,0,1,0-.22c.67-.17,1.13-.9,1.92-.74Z" transform="translate(-596.84 -234.8)" data-element-index="88" style="cursor: pointer; fill: rgb(238, 230, 255);" fill="#eee6ff"></path> </g> </svg>