<?xml version="1.0" standalone="no"?>
<!DOCTYPE svg PUBLIC "-//W3C//DTD SVG 20010904//EN"
 "http://www.w3.org/TR/2001/REC-SVG-20010904/DTD/svg10.dtd">
<svg version="1.0" xmlns="http://www.w3.org/2000/svg"
 width="512.000000pt" height="512.000000pt" viewBox="0 0 512.000000 512.000000"
 preserveAspectRatio="xMidYMid meet">

<g transform="translate(0.000000,512.000000) scale(0.100000,-0.100000)"
fill="#000000" stroke="none">
<path d="M2223 4943 c-21 -7 -15 -42 28 -163 205 -579 219 -659 233 -1350 l4
-225 -23 90 c-116 443 -387 858 -746 1142 -85 67 -219 153 -238 153 -7 0 75
-87 182 -192 355 -352 544 -654 705 -1128 87 -256 81 -240 102 -240 26 0 33
29 26 108 -4 40 -3 59 2 47 8 -18 9 -18 15 5 11 45 36 312 47 499 12 211 1
419 -29 565 -42 199 -160 510 -241 633 -36 54 -46 63 -67 56z"/>
<path d="M2795 4747 c-69 -72 -133 -190 -161 -297 -20 -80 -24 -254 -5 -288 7
-13 15 -22 17 -19 3 2 18 56 34 118 42 168 85 262 193 428 54 85 58 114 13
119 -25 3 -39 -6 -91 -61z"/>
<path d="M3888 4736 c-137 -48 -370 -190 -548 -333 -104 -83 -282 -260 -369
-367 -225 -275 -399 -628 -447 -907 -27 -156 -14 -158 38 -7 127 367 308 662
583 947 208 216 371 345 679 542 158 102 182 123 156 139 -19 13 -15 13 -92
-14z"/>
<path d="M1770 4702 c294 -230 465 -512 541 -893 13 -62 30 -120 40 -132 17
-21 18 -21 36 -4 15 15 18 34 17 115 -3 347 -249 752 -548 902 -43 22 -88 40
-100 40 -18 -1 -17 -4 14 -28z"/>
<path d="M560 4670 c8 -6 58 -36 110 -67 369 -219 674 -476 951 -803 136 -161
363 -470 344 -470 -3 0 -32 20 -66 45 -140 103 -305 190 -489 258 -210 78
-509 121 -682 99 -153 -19 -148 -46 12 -62 345 -34 555 -89 805 -210 214 -104
395 -237 560 -413 l94 -100 40 26 c23 15 41 31 41 35 0 14 -114 210 -197 336
-170 260 -318 442 -542 667 -259 258 -518 449 -796 584 -141 70 -221 102 -185
75z"/>
<path d="M357 4514 c-3 -11 -9 -35 -12 -56 -5 -24 -13 -38 -26 -41 -24 -7 -25
-24 0 -32 14 -4 20 -19 25 -67 3 -34 10 -66 16 -72 13 -13 30 35 30 83 0 35 3
39 31 45 17 3 46 6 63 6 18 0 40 6 50 13 18 13 18 14 0 21 -10 4 -46 10 -80
13 l-62 6 -5 40 c-6 46 -22 68 -30 41z"/>
<path d="M3953 4345 c-302 -55 -702 -304 -847 -527 -30 -46 -2 -33 123 56 64
47 153 106 197 132 112 67 321 166 439 209 193 69 225 85 225 110 0 38 -22 41
-137 20z"/>
<path d="M2930 4236 c-90 -61 -216 -255 -269 -414 -22 -64 -27 -122 -12 -122
5 0 42 48 82 108 40 59 117 167 171 241 54 73 101 144 104 157 14 56 -19 69
-76 30z"/>
<path d="M4410 4190 c-434 -40 -868 -220 -1225 -507 -119 -96 -318 -298 -396
-403 -113 -151 -257 -411 -246 -443 2 -6 25 22 52 63 268 419 611 731 1040
947 285 143 543 221 893 268 130 17 172 28 172 44 0 6 -8 14 -17 20 -27 14
-177 20 -273 11z"/>
<path d="M602 4070 c-77 -11 -169 -37 -177 -50 -4 -6 21 -10 67 -10 296 0 552
-62 820 -196 134 -67 171 -75 176 -38 4 31 -89 110 -196 167 -97 51 -204 89
-313 112 -90 19 -292 27 -377 15z"/>
<path d="M4245 3790 c-312 -48 -616 -163 -850 -320 -70 -48 -117 -90 -98 -90
5 0 64 24 130 54 407 183 759 262 1245 282 170 7 207 15 195 46 -11 29 -88 40
-297 44 -164 3 -229 -1 -325 -16z"/>
<path d="M905 3404 c-88 -7 -219 -25 -259 -35 -60 -16 -26 -29 79 -29 130 0
346 -18 434 -36 186 -38 366 -118 667 -297 101 -60 198 -111 218 -114 33 -5
36 -3 36 17 0 33 -71 96 -229 201 -215 145 -423 238 -608 273 -84 16 -258 26
-338 20z"/>
<path d="M3945 3311 c-456 -72 -856 -261 -1153 -546 -46 -43 -88 -88 -94 -98
-13 -25 -9 -23 118 69 456 330 920 484 1459 484 193 0 316 -13 535 -56 75 -15
144 -24 153 -21 74 28 -112 112 -353 159 -155 30 -499 35 -665 9z"/>
<path d="M864 3110 c-176 -14 -436 -74 -489 -114 -19 -15 -19 -15 5 -16 14 0
77 7 140 14 363 46 679 25 1066 -70 159 -39 187 -40 192 -8 4 26 -30 49 -130
88 -218 86 -516 126 -784 106z"/>
<path d="M662 2769 c-112 -23 -242 -74 -344 -134 -79 -46 -188 -138 -177 -150
4 -3 67 18 140 48 211 86 327 119 551 157 114 20 148 32 148 55 0 48 -148 60
-318 24z"/>
<path d="M1730 2733 c-256 -26 -541 -103 -722 -194 -204 -102 -403 -269 -514
-430 -99 -142 -174 -324 -174 -419 0 -30 8 -18 48 76 171 394 518 665 1018
794 219 57 478 90 707 90 137 0 147 1 147 19 0 21 -43 45 -110 60 -42 10 -319
12 -400 4z"/>
<path d="M3143 2683 c-53 -5 -56 -20 -5 -29 436 -75 768 -196 1072 -390 227
-145 241 -151 248 -112 11 56 -208 228 -435 342 -203 101 -427 164 -668 186
-109 10 -130 10 -212 3z"/>
<path d="M2090 2613 c-99 -19 -279 -130 -404 -252 -202 -196 -358 -456 -470
-780 -66 -191 -128 -521 -98 -521 6 0 14 15 17 33 26 122 144 439 224 602 206
421 426 669 746 842 50 28 71 45 73 61 3 19 -1 22 -30 21 -18 -1 -44 -4 -58
-6z"/>
<path d="M2844 2531 c4 -5 43 -31 89 -57 359 -206 616 -449 878 -826 73 -106
100 -131 122 -109 13 13 -4 74 -45 156 -177 351 -567 692 -942 821 -72 25
-111 31 -102 15z"/>
<path d="M2194 2495 c-351 -183 -645 -620 -758 -1128 -68 -304 -76 -684 -20
-967 29 -145 69 -240 95 -225 13 9 11 93 -7 240 -23 182 -23 541 -1 703 81
590 301 1026 662 1317 131 105 136 116 29 60z"/>
<path d="M2346 2490 c-110 -122 -220 -360 -267 -578 -30 -140 -37 -441 -15
-619 30 -230 90 -485 122 -518 24 -24 44 -1 44 51 0 24 -13 139 -29 256 -41
298 -54 471 -46 618 14 258 66 464 180 705 30 65 54 120 52 122 -3 2 -21 -15
-41 -37z"/>
<path d="M1450 2476 c-154 -55 -351 -206 -441 -338 -49 -71 -81 -152 -77 -192
3 -30 4 -30 59 44 83 112 185 200 377 327 95 63 176 121 179 130 6 16 -7 45
-23 50 -5 1 -38 -8 -74 -21z"/>
<path d="M2500 2386 c0 -2 25 -72 56 -157 131 -357 182 -597 214 -1003 12
-148 21 -186 44 -186 26 0 37 29 49 125 13 116 -2 331 -34 488 -30 146 -108
375 -169 497 -57 114 -136 240 -151 240 -5 0 -9 -2 -9 -4z"/>
<path d="M2750 2295 c0 -10 52 -109 158 -300 294 -532 401 -793 487 -1196 37
-173 39 -179 61 -179 26 0 36 50 31 155 -20 366 -206 806 -545 1290 -124 177
-192 258 -192 230z"/>
<path d="M4217 1303 c-3 -5 -9 -44 -13 -86 l-7 -76 -46 -6 c-122 -16 -129 -31
-20 -43 l64 -7 6 -160 c3 -88 10 -169 14 -179 8 -18 9 -18 17 5 5 13 12 92 15
176 l6 151 30 6 c16 3 53 6 82 6 90 0 142 17 100 33 -8 4 -59 9 -114 13 l-100
7 -6 72 c-7 72 -18 105 -28 88z"/>
<path d="M715 772 c-44 -21 -110 -49 -147 -61 -72 -24 -84 -37 -44 -47 59 -14
196 37 250 94 48 51 27 55 -59 14z"/>
<path d="M828 693 c-29 -50 -48 -135 -48 -212 0 -78 14 -151 30 -151 4 0 11
30 14 68 3 37 13 121 21 187 8 66 15 123 15 128 0 16 -17 6 -32 -20z"/>
</g>
</svg>
