<?xml version="1.0" standalone="no"?>
  <!DOCTYPE svg PUBLIC "-//W3C//DTD SVG 1.1//EN" "http://www.w3.org/Graphics/SVG/1.1/DTD/svg11.dtd" >
  <svg>
  <metadata>
  Created by font-carrier
  </metadata>
  <defs>
  <font id="Lumios-Marker" horiz-adv-x="1324" vert-adv-y="1324" >
    <font-face
      
      font-family="Lumios Marker"
      
      font-weight="400"
      
      font-stretch="normal"
      
      units-per-em="1000"
      
      ascent="976"
      
      descent="-405"
      
    />
      <missing-glyph />

      

      
      <glyph glyph-name="uni21" unicode="&#x21;" d="M177 185C192 243 215 307 244 378C274 449 299 508 320 554C341 600 352 627 352 636C352 667 319 685 303 685C296 685 291 682 289 676C288 673 263 604 212 469C161 334 135 253 132 224C131 205 138 190 153 179C165 170 173 172 177 185ZM89-10C102-10 116-2 131 13C146 28 154 44 154 59C154 84 142 97 119 97C84 97 56 62 56 34C56 9 69-10 89-10Z"  horiz-adv-x="293" vert-adv-y="1000"  />

      
      <glyph glyph-name="uni22" unicode="&#x22;" d="M181 401C198 394 279 550 279 622C279 637 276 646 270 650C261 661 253 666 245 666C226 666 212 638 191 566C180 531 172 505 165 489C155 467 150 450 150 439C150 422 160 410 181 401ZM322 408C337 408 357 431 380 478C403 525 418 561 425 584C427 589 428 595 428 602C428 629 413 659 396 659C371 659 348 616 326 531C318 506 306 472 302 457C300 450 299 445 299 441C298 436 300 428 305 418C311 408 317 405 322 408Z"  horiz-adv-x="335" vert-adv-y="1000"  />

      
      <glyph glyph-name="uni23" unicode="&#x23;" d="M394 237C378 240 344 242 339 243C358 296 373 334 383 359C396 385 336 397 332 378L308 307L287 246L233 249C253 306 271 352 286 388C299 418 233 433 227 418C211 381 193 325 172 249C74 243 22 233 17 219C6 200 33 179 54 187C63 191 98 195 159 199C156 190 151 169 143 137C64 132 22 122 17 109C8 92 31 73 44 77C57 81 86 85 131 89L110-11C108-26 109-39 113-49C115-53 122-56 134-59C146-62 153-60 154-54C161-16 172 32 187 91L242 91C233 56 228 27 226 6C224-15 262-15 266 6C272 32 280 60 289 89C362 88 404 85 413 81C414 80 415 80 417 81C425 83 429 88 430 95C432 110 407 122 356 130C335 133 318 134 303 135L324 200C409 197 455 194 463 191C464 190 465 190 466 191C471 192 474 195 474 201C476 218 449 230 394 237ZM254 138C245 138 227 139 200 140L218 201L273 201C268 187 262 166 254 138Z"  horiz-adv-x="487" vert-adv-y="1000"  />

      
      <glyph glyph-name="uni24" unicode="&#x24;" d="M158-100C161-100 167-99 176-98C185-95 190-84 197-64C201-51 206-30 211-11C223-14 233-15 241-15C266-15 285-6 296 13C305 29 310 50 310 76C310 85 309 94 308 105C306 132 290 179 260 248C230 317 210 379 201 435C186 513 254 530 281 530C315 530 332 514 332 482C332 470 330 452 325 427C321 402 319 386 319 377C316 314 407 325 405 366C405 449 401 503 392 528C385 549 366 569 336 586C348 641 355 680 357 701C358 708 341 718 326 718C315 718 308 713 306 702C291 639 283 604 281 598C233 598 195 584 166 555C137 526 123 493 123 454C123 411 141 350 176 270C211 190 229 132 229 97C229 80 222 71 208 71C191 71 174 82 157 105C155 108 154 110 154 113C154 120 166 123 118 161C111 166 104 168 97 168C78 168 61 155 61 134C61 103 91 64 150 18C145-21 137-66 138-76C138-92 145-100 158-100Z"  horiz-adv-x="476" vert-adv-y="1000"  />

      
      <glyph glyph-name="uni25" unicode="&#x25;" d="M223-38C230-25 232-18 228-17C224-17 217-15 208-11C199-8 195-1 195 9C198 41 212 85 237 141C263 197 289 249 316 297C343 346 357 373 359 380C372 423 354 447 305 452C282 453 254 453 220 450C187 447 167 445 162 442C141 432 119 405 97 362C75 319 73 287 90 265C101 251 116 247 135 254C151 261 161 267 168 274C176 281 196 299 219 316C240 337 250 370 246 382C273 393 288 394 290 387C293 378 284 354 263 317C242 280 218 236 191 184C164 133 148 89 141 54C138 37 137 20 139 5C144-28 157-49 179-57C198-65 213-59 223-38ZM135 333C138 346 146 357 157 366C166 373 175 377 186 377C193 377 192 371 181 358C165 339 151 327 140 323C133 321 132 324 135 333ZM313 4C342 4 382 30 434 82C455 103 466 127 466 152C466 163 460 177 448 195C437 214 424 223 409 223C353 223 323 170 314 148L311 142C308 137 294 114 290 106C286 98 276 79 275 70C273 53 273 38 288 23C294 17 303 4 313 4ZM356 86C347 93 354 109 377 132C395 151 405 157 406 150C407 145 401 131 388 110C375 89 365 81 356 86Z"  horiz-adv-x="490" vert-adv-y="1000"  />

      
      <glyph glyph-name="uni26" unicode="&#x26;" d="M381-79C411-79 449-67 495-42C541-17 564 5 564 25C564 34 559 42 550 50C543 56 537 59 532 59C523 63 501 34 470 12C434-12 406-24 385-24C369-24 356-17 345-4C334 12 330 22 332 26C351 41 377 63 411 93L500 172C525 194 540 206 544 208C551 211 558 220 555 228C550 248 532 258 502 258C495 258 484 257 468 256C452 255 439 255 430 255C402 255 379 259 360 267C351 271 328 252 328 236C328 231 330 226 335 222C363 205 398 197 440 199C408 171 367 135 351 120L326 99C310 86 305 83 300 83C296 83 290 91 283 106C267 137 247 189 224 262L462 504C468 513 471 522 471 531C471 575 420 614 351 614C306 614 264 598 225 567C186 536 160 486 147 418C146 411 145 400 145 387C145 365 150 333 161 290L144 266L127 242L112 219C103 206 98 198 96 193L83 169C70 145 69 135 61 111C53 87 49 65 46 40C49-29 80-74 132-74C145-74 158-72 171-67C218-59 254-29 279-17C294-50 329-79 381-79ZM214 343C213 359 212 370 212 377C212 480 273 550 360 550C381 550 392 547 392 542C392 539 387 532 377 519C304 444 249 386 214 343ZM154-13C127-13 113 4 113 38C113 90 128 129 175 202C181 191 198 141 248 44C248 35 237 23 215 8C193-6 173-13 154-13Z"  horiz-adv-x="668" vert-adv-y="1000"  />

      
      <glyph glyph-name="uni27" unicode="&#x27;" d="M194 402C219 402 251 449 268 512C270 516 303 580 303 613C303 635 291 650 268 658C265 659 261 660 256 660C240 660 233 642 224 607C219 587 207 546 192 511C182 479 177 453 177 433C177 412 183 402 194 402Z"  horiz-adv-x="205" vert-adv-y="1000"  />

      
      <glyph glyph-name="uni28" unicode="&#x28;" d="M45-268C60-268 70-258 63-241C43-189 42-122 60-40C79 42 107 125 144 210C182 295 222 371 263 438C304 506 338 552 364 575C382 591 340 627 325 610C255 537 193 449 139 346C86 243 46 146 21 54C-4-37-17-117-17-185C-17-240 4-268 45-268Z"  horiz-adv-x="270" vert-adv-y="1000"  />

      
      <glyph glyph-name="uni29" unicode="&#x29;" d="M17-257C110-159 182-24 234 149C287 322 300 472 274 601C271 613 260 617 241 612C222 607 212 601 213 594C230 414 206 214 122 10C81-92 28-179-37-252C-44-261-40-266-26-268C-5-269 9-265 17-257Z"  horiz-adv-x="304" vert-adv-y="1000"  />

      
      <glyph glyph-name="uni2a" unicode="&#x2a;" d="M344 331C321 378 307 410 301 426C302 427 303 427 305 427C334 432 361 438 385 447C420 461 439 475 441 488C442 496 435 500 420 500C399 500 366 501 319 502C344 533 365 562 381 588C385 594 385 599 381 602C373 609 361 608 345 597C324 583 298 560 268 527C265 538 261 555 254 578L242 625C239 631 235 634 230 633C219 630 213 620 211 601C208 576 210 543 217 504C178 505 152 506 138 506C135 506 133 506 131 505C118 501 116 489 126 468C136 448 149 436 166 433C178 430 187 429 194 428C186 414 180 401 176 389C171 373 170 359 175 347C180 336 187 336 196 348L245 414C259 381 276 354 297 333C310 320 323 312 336 311C348 310 351 317 344 331Z"  horiz-adv-x="354" vert-adv-y="1000"  />

      
      <glyph glyph-name="uni2b" unicode="&#x2b;" d="M142 93C147 73 170 84 178 100C181 108 179 126 183 141C190 163 198 186 208 209C249 213 281 218 306 224C314 226 320 233 324 245C328 257 329 265 328 270C322 283 275 271 224 267C229 286 241 315 242 322C243 330 241 342 232 355C226 367 220 371 213 367C203 361 189 328 170 268C157 267 142 267 123 267C104 267 91 267 84 266C77 265 73 263 72 260C48 186 125 202 148 201C148 198 141 176 140 171C140 166 135 147 135 139C135 125 136 107 142 93Z"  horiz-adv-x="353" vert-adv-y="1000"  />

      
      <glyph glyph-name="uni2c" unicode="&#x2c;" d="M85-108C95-107 106-103 117-94C138-79 154-62 165-44C194 4 202 42 191 69C183 88 169 96 148 91C125 86 112 71 108 47C106 30 110-2 91-26C82-41 75-51 70-58C60-73 55-81 55-82C52-102 65-111 85-108Z"  horiz-adv-x="270" vert-adv-y="1000"  />

      
      <glyph glyph-name="uni2d" unicode="&#x2d;" d="M139 172C158 178 199 183 260 187C322 191 367 193 395 193C401 193 402 199 399 211C394 228 387 237 376 239C361 242 288 240 157 235C152 235 147 232 142 226C131 211 127 196 130 181C131 174 134 171 139 172Z"  horiz-adv-x="486" vert-adv-y="1000"  />

      
      <glyph glyph-name="uni2e" unicode="&#x2e;" d="M129-10C142-10 156-2 171 13C186 28 194 44 194 59C194 84 182 97 159 97C124 97 96 62 96 34C96 9 109-10 129-10Z"  horiz-adv-x="293" vert-adv-y="1000"  />

      
      <glyph glyph-name="uni2f" unicode="&#x2f;" d="M26-132C41-132 49-129 52-122C76-75 127-1 205 100L430 389C501 482 543 546 556 582C559 588 560 594 560 601C560 620 548 629 525 629C516 629 511 628 510 626C485 575 431 492 347 377C263 262 185 157 114 61C43-34 6-89 4-103C1-122 9-132 26-132Z"  horiz-adv-x="462" vert-adv-y="1000"  />

      
      <glyph glyph-name="uni30" unicode="&#x30;" d="M153 12C208 12 256 52 299 132C316 167 324 207 324 250C324 290 316 313 299 320C294 322 292 324 292 326C292 327 312 344 307 361C299 388 288 404 252 421C245 425 238 427 229 427C192 427 154 391 115 319C76 248 57 181 57 119C57 69 72 37 102 24C118 16 135 12 153 12ZM137 63C125 63 119 75 119 98C119 107 119 113 120 117C143 259 192 329 221 346C242 361 261 360 261 349C261 344 257 340 249 335C234 324 259 333 265 293C266 284 267 276 267 271C267 207 227 134 175 87C159 71 146 63 137 63Z"  horiz-adv-x="350" vert-adv-y="1000"  />

      
      <glyph glyph-name="uni31" unicode="&#x31;" d="M167 13C171 65 188 131 203 174L239 274C256 319 269 355 279 384C292 421 271 414 258 431C247 451 233 456 206 441C193 434 182 427 171 419C161 412 146 400 127 384L80 348C77 347 48 329 37 320C32 315 27 309 22 302C13 287 28 273 65 261C82 253 110 269 153 304C174 321 188 332 193 335C135 199 106 105 106 52L107 46C111 27 123 14 142 6C158 0 166 2 167 13Z"  horiz-adv-x="281" vert-adv-y="1000"  />

      
      <glyph glyph-name="uni32" unicode="&#x32;" d="M77-6C84-6 91-5 97-2C124 7 165 14 193 17L247 22L291 26C325 30 354 68 342 76C314 93 265 94 204 89C174 87 155 86 147 86C258 201 323 286 323 359C323 364 322 370 321 378C318 390 314 397 308 400C302 403 296 411 290 424C283 438 271 445 252 445C221 445 187 430 148 400C110 371 91 343 91 318C91 295 109 281 145 276C165 276 156 318 170 332C200 362 250 380 254 380C261 380 265 375 265 366C265 361 263 353 260 341C252 313 235 282 208 248C181 214 154 184 127 159C100 134 76 110 54 85C33 60 22 41 22 28C22 15 30 6 47 1C58-4 68-6 77-6Z"  horiz-adv-x="368" vert-adv-y="1000"  />

      
      <glyph glyph-name="uni33" unicode="&#x33;" d="M157-7C203-7 244 4 279 25C314 47 332 79 332 121C332 163 323 193 305 211C293 223 279 233 264 242C300 278 318 315 318 354C318 419 284 449 235 449C199 449 163 437 128 412C93 388 78 366 83 345C87 328 104 314 119 314C126 314 132 317 137 323C148 338 166 352 191 365C216 378 235 385 250 385C259 385 263 382 263 377C266 364 251 340 216 305C181 270 149 248 120 241C85 230 78 225 78 208C78 194 87 183 106 174C113 169 121 166 130 166C138 166 151 170 169 177C188 185 203 189 214 189C225 189 236 186 247 181C264 172 273 161 273 147C273 126 258 104 228 83C198 62 166 52 133 52C112 52 93 57 77 66C66 73 58 77 52 77C45 77 41 73 41 65C41 58 44 48 50 36C53 26 67 16 90 7C114-2 136-7 157-7Z"  horiz-adv-x="394" vert-adv-y="1000"  />

      
      <glyph glyph-name="uni34" unicode="&#x34;" d="M238-31C250-31 258-25 261-12C262-7 267 16 274 55C281 90 286 110 288 113C305 117 320 119 333 119C336 119 342 118 345 118C352 118 355 129 355 152C355 161 354 168 353 173C352 178 348 181 340 181C337 181 314 179 299 179C303 197 312 227 325 268L347 334C350 345 346 358 334 373C323 388 312 398 303 402C298 405 292 400 287 388C284 381 261 309 220 173C173 167 131 162 94 159L142 245C166 286 184 319 196 342C208 365 214 380 214 386C214 393 210 404 201 418C193 432 184 439 175 439C164 439 156 433 151 422C105 328 55 233 2 136C-3 125-6 116-6 107C-6 86 14 74 42 78C54 79 83 85 130 95C177 105 204 110 209 110C209 108 208 98 207 81C206 64 206 52 206 44C206 18 210-3 218-18C222-27 229-31 238-31Z"  horiz-adv-x="384" vert-adv-y="1000"  />

      
      <glyph glyph-name="uni35" unicode="&#x35;" d="M151-31C185-31 219-13 252 24C286 61 303 98 303 135C303 191 273 231 205 231C175 231 146 222 119 204L156 290C173 326 183 349 187 360C270 360 348 381 384 402C402 413 411 422 411 430C411 435 407 439 399 441C395 441 388 455 379 454C284 444 295 442 239 433C224 431 211 430 202 430C177 430 151 438 148 438C144 438 140 436 135 432C124 423 125 395 124 391L92 310C74 263 61 226 52 199C44 172 41 151 42 137C43 120 67 108 90 108C93 108 98 109 103 110C110 112 124 122 147 141C170 160 191 169 208 169C229 169 240 159 240 138C240 115 228 90 204 64C181 38 155 25 126 25C117 25 108 26 101 29C99 30 96 30 93 30C85 30 81 26 81 18C81 1 99-24 119-29L124-30C131-30 142-31 151-31Z"  horiz-adv-x="349" vert-adv-y="1000"  />

      
      <glyph glyph-name="uni36" unicode="&#x36;" d="M156-32C187-32 215-17 240 14C265 45 278 75 278 102C278 150 233 183 182 183C167 183 146 176 119 163C131 220 153 268 185 307C218 346 259 366 310 366C319 366 323 371 323 382C323 406 301 437 274 437C233 437 193 418 156 380C119 343 90 298 69 246C49 194 39 145 39 98C39 44 53 7 82-12C107-25 132-32 156-32ZM130 34C113 34 105 41 105 55C105 75 124 101 159 118C173 123 185 125 196 125C213 125 221 119 221 107C221 87 205 67 172 46C156 38 142 34 130 34Z"  horiz-adv-x="365" vert-adv-y="1000"  />

      
      <glyph glyph-name="uni37" unicode="&#x37;" d="M124-3C131-3 138-19 154 12C182 77 208 126 231 159C282 170 314 182 327 197C329 201 330 209 330 222C334 240 296 229 268 233C304 293 319 342 313 381C304 437 239 450 119 421C54 404 18 383 11 358C9 349 15 340 29 331C43 322 54 319 63 320C71 322 112 346 163 360C223 376 255 378 260 367C261 364 261 359 260 353C257 344 234 300 191 219C164 213 121 207 60 202C58 202 56 201 55 200C46 194 45 183 51 168C62 141 90 130 136 135L119 105C110 89 104 76 100 67C96 58 92 47 89 34C82 10 95-3 124-3Z"  horiz-adv-x="334" vert-adv-y="1000"  />

      
      <glyph glyph-name="uni38" unicode="&#x38;" d="M153-56C182-56 220-43 234-38L240-36C281-5 302 28 302 64C302 88 289 118 277 134C266 150 246 176 243 180C247 187 261 205 285 234C309 263 330 292 349 320C368 348 377 370 377 387C377 403 368 413 349 417C344 433 307 459 264 459C227 459 191 442 156 407C123 378 106 344 106 304C106 263 122 222 155 180C90 103 57 65 56 64C51 73 46 78 41 78C34 78 30 70 30 53C30 24 40 1 60-14C118-57 106-41 122-48C128-53 138-56 153-56ZM192 229C181 252 175 273 175 291C175 311 181 322 190 335C198 344 199 347 210 356L220 366C236 382 254 390 274 390C281 390 286 389 289 388C303 388 311 382 311 378C311 372 296 350 265 312C226 265 202 237 192 229ZM159 1C148 1 137 3 128 6C124 8 122 11 122 15C122 29 149 65 204 123C211 114 230 92 241 76C243 73 244 70 244 66C244 52 236 38 219 23C202 8 182 1 159 1Z"  horiz-adv-x="403" vert-adv-y="1000"  />

      
      <glyph glyph-name="uni39" unicode="&#x39;" d="M215-24C238 29 260 81 283 131L336 249C349 278 359 299 364 313C373 338 376 355 371 364C354 401 342 400 332 395C327 394 316 380 313 379C310 383 303 396 294 408C267 443 201 442 142 415C113 402 89 380 68 351C47 322 39 290 43 255C48 200 78 173 133 173C146 173 167 181 196 197C225 214 246 228 257 239C197 112 166 34 163 3C161-32 210-38 215-24ZM118 233C106 233 100 242 100 260C100 277 111 297 132 320C154 343 179 359 207 367C235 376 262 369 287 348C260 323 229 297 194 271C159 246 134 233 118 233Z"  horiz-adv-x="368" vert-adv-y="1000"  />

      
      <glyph glyph-name="uni3a" unicode="&#x3a;" d="M214 250C227 250 241 258 256 273C271 288 279 304 279 319C279 344 267 357 244 357C209 357 181 322 181 294C181 269 194 250 214 250ZM129-10C142-10 156-2 171 13C186 28 194 44 194 59C194 84 182 97 159 97C124 97 96 62 96 34C96 9 109-10 129-10Z"  horiz-adv-x="273" vert-adv-y="1000"  />

      
      <glyph glyph-name="uni3b" unicode="&#x3b;" d="M56-108C66-107 77-103 88-94C109-79 125-62 136-44C165 4 173 42 162 69C154 88 140 96 119 91C96 86 83 71 79 47C77 30 81-2 62-26C53-41 46-51 41-58C31-73 26-81 26-82C23-102 36-111 56-108Z"  horiz-adv-x="271" vert-adv-y="1000"  />

      
      <glyph glyph-name="uni3d" unicode="&#x3d;" d="M123 229C124 229 142 230 176 232C210 234 245 236 282 239C319 242 338 245 341 246C359 259 334 257 337 275C337 290 256 293 93 284C76 283 71 253 79 236C90 214 114 232 123 229ZM140 124C170 127 215 133 276 143C285 150 288 155 287 158C283 179 292 184 282 188C270 191 229 191 159 188C90 185 54 181 51 176C30 149 35 125 64 125C69 124 95 124 140 124Z"  horiz-adv-x="356" vert-adv-y="1000"  />

      
      <glyph glyph-name="uni3f" unicode="&#x3f;" d="M167 164C177 153 216 168 203 186C187 209 207 235 242 264C268 288 300 315 332 345C425 436 481 507 481 584C481 659 443 715 374 715C334 715 293 694 252 652C211 611 190 561 190 503C190 479 202 450 221 438C239 429 266 443 261 455C247 499 254 544 281 589C309 634 343 657 383 657C410 657 423 636 423 593C423 560 414 530 397 503C380 476 348 438 303 390C290 376 268 356 237 331C207 306 184 284 169 266C154 248 147 230 147 213C147 198 154 181 167 164ZM128-7C141-7 155 1 170 16C185 31 193 47 193 62C193 87 181 100 158 100C123 100 95 65 95 37C95 12 108-7 128-7Z"  horiz-adv-x="394" vert-adv-y="1000"  />

      
      <glyph glyph-name="uni40" unicode="&#x40;" d="M170-53C193-76 226-88 270-91C315-94 357-90 398-77C439-65 470-49 490-30C513-7 525 10 524 21C524 32 515 34 496 25C421-10 345-33 257-21C214-16 181 1 158 30C129 67 120 108 132 154C144 200 162 241 185 277C209 313 227 334 239 339C274 364 314 382 374 389C404 392 434 389 465 380C506 367 526 321 519 270C514 239 501 207 480 176C459 145 436 129 411 129C398 129 406 159 434 218C439 229 442 235 442 236C452 256 436 255 422 279C411 305 401 292 392 292C378 313 365 324 352 324C323 324 288 301 249 256C210 211 191 171 191 134C191 98 213 77 256 72C297 78 328 103 347 148C347 103 378 78 406 77C439 75 469 88 497 117C525 146 545 178 558 213C571 248 577 277 574 299C571 319 562 345 541 381C520 417 473 446 414 449C388 449 366 459 321 447C261 432 210 405 167 366C125 327 96 283 81 235C66 188 65 138 79 85C94 32 124-14 170-53ZM275 176C257 186 330 256 340 241C342 238 333 224 314 201C295 178 282 170 275 176Z"  horiz-adv-x="600" vert-adv-y="1000"  />

      
      <glyph glyph-name="uni41" unicode="&#x41;" d="M420 230C401 231 383 232 364 232L446 627C458 666 373 687 355 651C248 465 162 324 97 227C33 224-9 220-29 216C-58 209-33 149-10 151C-6 151 28 154 48 157C-12 72-74-5-137-74L-139-76L-142-79C-160-100-151-110-115-110C-84-110-71-102-46-81C-7-48 54 35 138 166L141 166C185 170 232 173 283 176L274 136L266 98C265 91 262 78 258 61L252 27L247-3C245-18 244-27 245-30C246-33 247-41 246-52C247-59 250-66 255-71C267-84 283-87 303-82C316-79 322-74 319-66C313-47 324 34 353 179C419 180 461 179 480 175C485 176 486 182 485 192C479 214 457 227 420 230ZM314 448L344 495C326 418 311 342 299 265L294 233C269 233 231 232 179 231Z"  horiz-adv-x="448" vert-adv-y="1000"  />

      
      <glyph glyph-name="uni42" unicode="&#x42;" d="M51-40C58-40 69-33 82-18C104-17 143-11 199 0C264 11 342 47 395 100C422 127 435 153 435 180C435 213 423 241 398 266C373 291 349 306 325 312C296 320 265 324 230 324C244 332 264 343 289 358L346 391L392 420C411 433 424 443 433 452C464 479 490 519 482 559C477 614 427 640 356 640C335 640 304 638 263 633C252 651 237 660 219 660C198 660 186 655 183 645C180 635 176 617 171 592C166 567 161 547 157 532C138 465 125 419 116 396C108 369 102 350 97 339C66 323 65 314 76 299L79 293C74 283 70 274 69 267C66 259 58 238 55 227C50 212 44 190 38 163L18 77C18 76 15 66 8 46C2 26-1 11-1 2C-1-1 0-5 1-9C6-22 38-40 51-40ZM192 380C201 408 208 427 212 438L247 548C288 571 330 583 373 582C394 582 405 575 405 562C405 545 390 523 361 495C331 466 275 427 192 380ZM96 41C107 123 123 192 142 247C177 260 216 267 261 267C312 267 359 237 359 197C359 182 353 167 340 152C318 126 281 102 229 79C178 56 133 44 96 41Z"  horiz-adv-x="443" vert-adv-y="1000"  />

      
      <glyph glyph-name="uni43" unicode="&#x43;" d="M148-44C216-44 277-12 332 51C361 83 376 108 377 125C378 133 374 134 365 127L320 88L274 54C233 23 197 11 162 11C109 11 76 49 84 133C88 181 103 241 129 312C156 384 188 449 227 506C266 564 302 593 334 593C353 593 363 583 363 563C363 552 357 529 344 493C331 457 321 432 313 417C308 406 312 400 325 397C343 393 359 395 372 403C383 410 395 428 408 459C421 490 427 520 427 550C427 621 390 669 317 669C278 669 236 640 190 581C144 522 105 452 73 371C41 290 23 218 19 154C15 85 26 34 53 3C80-28 112-44 148-44Z"  horiz-adv-x="334" vert-adv-y="1000"  />

      
      <glyph glyph-name="uni44" unicode="&#x44;" d="M71-30C142-30 208-9 275 39C343 88 400 181 429 308C433 325 438 362 429 429C425 462 417 493 405 521C381 578 318 627 227 627C188 627 162 624 148 618C136 613 126 594 126 574C126 569 138 565 163 562C152 530 143 500 136 473C127 436 107 364 76 257C46 151 26 87 16 64C-5 63-21 31-21 15C-21-9 19-30 71-30ZM181 376C191 405 210 467 239 562C352 554 374 483 374 408C374 353 365 303 348 259C325 198 288 145 235 99C183 53 134 33 87 38Z"  horiz-adv-x="423" vert-adv-y="1000"  />

      
      <glyph glyph-name="uni45" unicode="&#x45;" d="M197-51C224-44 258-31 294 1C312 18 322 36 323 55C323 59 313 56 292 45L264 31C221 14 187 5 162 5C122 5 98 29 93 57C90 70 100 116 123 193C126 205 129 214 131 220C142 223 170 229 213 237L250 245C310 260 349 278 367 298C376 309 372 314 355 314C279 314 215 312 162 309C166 326 191 392 220 472L252 558C317 571 384 576 453 573C464 572 474 570 482 567L494 562C501 562 504 566 503 573C501 584 495 594 484 605C469 621 441 633 400 640C359 648 323 650 293 645C271 643 253 639 240 632C225 642 213 647 203 647C183 647 167 632 154 602C150 591 139 578 144 567C147 560 162 553 163 544C164 539 151 501 135 461C128 441 123 429 122 424C123 426 77 299 81 299C57 295 16 285 5 285C0 284-3 278-2 267C-1 256 2 248 7 243C18 233 33 223 51 212C48 201 42 182 33 156C25 130 19 110 16 97C5 46 21 5 62-25C103-55 148-64 197-51Z"  horiz-adv-x="376" vert-adv-y="1000"  />

      
      <glyph glyph-name="uni46" unicode="&#x46;" d="M37-62C61-73 78-71 88-56C91-55 92-46 92-31L92-6C117 99 140 170 159 208C198 214 253 225 324 242C335 245 346 249 357 255C381 269 394 283 396 296C397 305 390 309 375 308C330 305 271 301 238 298C222 297 207 297 193 297C216 385 243 461 272 525C288 531 307 535 328 537C397 544 448 546 481 545C493 544 505 545 517 547C554 554 580 567 595 587C606 601 604 609 590 611C565 615 522 617 459 617C426 620 385 620 338 619C291 618 251 612 218 603C143 582 166 534 187 525C182 497 166 446 139 369L114 294L87 288C70 282 64 266 69 239C71 225 85 208 86 207L68 147L50 86C49 81 35 43 28 22C25 12 23 0 20-13C15-41 21-58 37-62Z"  horiz-adv-x="354" vert-adv-y="1000"  />

      
      <glyph glyph-name="uni47" unicode="&#x47;" d="M407-140C428-145 438-135 438-111C438-58 442 0 449 61C457 122 467 173 478 213C487 217 511 219 518 224C529 232 505 253 504 258C501 268 491 273 472 274C454 275 442 274 437 271C401 268 362 261 313 250L257 238C246 235 223 232 213 227C202 224 198 219 198 214C198 194 224 178 245 175C265 173 289 176 316 184C334 189 379 195 396 204C372 177 349 154 328 137L216 44C203 33 185 22 164 11C143 0 125-5 111-5C108-5 105-5 103-4C80 0 67 29 63 83C58 166 80 254 128 346C176 438 235 509 305 558C314 565 329 574 349 583C369 593 385 598 397 598C410 598 417 589 417 570C417 541 402 502 397 487C397 486 395 481 390 470C386 460 384 452 384 447C384 434 393 422 410 411C415 408 420 406 425 406C441 406 451 427 471 491C480 523 485 546 485 561C485 589 474 612 453 631C432 650 409 660 382 660C332 660 277 631 216 572C155 513 104 440 61 353C18 266-3 184-3 109C-3 74 3 43 15 15C30-22 54-46 89-57C99-60 112-62 127-62C156-62 197-44 252-7C307 29 351 64 385 99C374 44 369-22 369-99C369-128 378-133 407-140Z"  horiz-adv-x="520" vert-adv-y="1000"  />

      
      <glyph glyph-name="uni48" unicode="&#x48;" d="M318-12C338 9 357 66 384 153C397 197 409 232 418 257C419 258 450 263 510 274C515 275 517 278 514 285C505 302 478 312 432 314C449 370 467 425 488 478C509 531 526 571 537 597C548 624 554 639 553 644C551 669 511 701 497 677C480 636 469 609 462 594C454 567 440 529 419 480C402 437 382 379 360 308C324 307 280 301 235 294L196 288L218 353L239 413C244 425 249 440 255 459C268 498 274 512 279 536L287 568L287 572C286 587 277 602 259 617C241 632 230 632 227 617C214 564 202 523 192 494C171 419 148 347 123 278L89 268C73 263 61 259 52 255C27 242-4 230 17 195C26 172 31 166 42 169C43 170 60 176 92 189C87 174 71 130 62 101C57 86 54 75 53 66C52 49 53 33 58 20C65-1 75-13 88-14C99-15 105-7 106 9C109 64 130 131 169 212C225 228 283 238 342 243C333 218 323 183 310 136C298 89 288 53 280 26C271-10 301-27 318-12Z"  horiz-adv-x="502" vert-adv-y="1000"  />

      
      <glyph glyph-name="uni49" unicode="&#x49;" d="M75-40C87-52 113-34 155-19C167-25 177-28 186-29C212-30 212-20 217-8C228-3 256 3 295 10C315 13 330 16 339 18C357 23 370 28 378 35C387 44 384 51 368 56C323 68 276 71 227 66C238 119 265 211 309 343C354 475 380 555 388 582C434 597 482 609 532 618C539 619 540 623 534 630C522 645 502 653 474 654C433 656 386 654 332 649C279 644 247 635 237 623C229 615 218 595 210 571C207 559 209 551 217 547C221 544 252 549 311 562C244 359 192 190 155 56C130 50 111 44 98 37C62 18 47-5 75-40Z"  horiz-adv-x="351" vert-adv-y="1000"  />

      
      <glyph glyph-name="uni4a" unicode="&#x4a;" d="M160-100C211-100 264-72 321-15C378 42 421 113 450 199C463 236 478 289 495 359C512 429 523 472 528 488C536 515 540 538 540 557C540 586 529 601 508 601C501 601 493 600 486 597C442 583 403 573 370 567C337 562 292 559 233 559C200 559 175 559 156 560C153 560 151 556 151 549C151 525 167 491 186 491C305 491 398 501 465 522C454 466 443 417 432 376C399 243 347 130 276 39C259 18 236-1 206-19C177-38 150-47 126-47C89-47 67-24 61 22C60 34 59 43 59 50C59 69 61 85 65 100C65 101 67 106 71 115C76 124 78 130 78 132C77 151 59 166 43 166C34 166 26 162 20 153C7 134 0 107 0 74C0 40 6 12 19-10C44-54 81-82 128-95C139-98 150-100 160-100Z"  horiz-adv-x="509" vert-adv-y="1000"  />

      
      <glyph glyph-name="uni4b" unicode="&#x4b;" d="M398-97C446-118 478-115 493-87C498-76 480-67 451-58L424-50C386-30 342 6 292 57C276 73 257 99 242 119L212 163L178 211C255 272 317 323 364 365C411 408 453 453 492 500L504 516C505 519 513 529 513 532C517 545 519 554 513 569C510 576 506 582 501 589C483 612 471 616 464 601C449 570 428 536 399 501C368 466 325 422 270 371C215 320 167 286 127 269C173 402 206 504 227 574C231 583 247 622 254 643C258 654 260 661 259 665C257 675 247 683 228 690C209 697 197 695 191 682C179 653 165 612 148 559C145 550 133 510 112 437C91 365 74 310 62 273L9 110C-13 40-26-16-31-57C-34-83 34-101 40-80C47-55 60 8 75 64C83 93 93 123 104 154C111 161 125 172 132 179C163 124 203 65 280-11C319-49 359-78 398-97Z"  horiz-adv-x="398" vert-adv-y="1000"  />

      
      <glyph glyph-name="uni4c" unicode="&#x4c;" d="M129-58C146-61 182-42 208-26L244-4L282 19C310 39 336 62 344 71L351 78C351 107 330 82 309 74C292 68 271 60 246 49L204 31C164 15 134 7 113 7C104 7 98 10 94 17C89 27 93 53 106 96C121 147 143 216 172 303C202 390 223 457 236 502C250 546 255 576 252 592C248 607 240 620 228 631C217 642 204 643 191 633C167 623 176 550 172 534C167 515 153 471 129 403C92 292 69 220 59 186C58 183 56 174 51 159C47 145 44 135 43 129L35 100C28 73 30 66 27 42C24 19 30 8 35-8C40-25 51-36 67-44C86-53 106-58 129-58Z"  horiz-adv-x="302" vert-adv-y="1000"  />

      
      <glyph glyph-name="uni4d" unicode="&#x4d;" d="M-69-74C-51-78-12-91-5-74C2-59 10-39 20-14L58 76C108 203 158 323 209 435C216 450 225 473 234 504C227 345 225 255 226 234L228 204C233 99 241 37 251 19C258 7 271 1 292 1C308 1 321 7 330 19C339 31 357 64 382 118C420 201 444 250 441 250C455 280 471 311 489 344L516 395C531 425 545 449 557 467C535 365 520 286 511 230C503 174 499 114 499 50C499 47 498 38 497 22C496 7 496-6 497-16C498-27 501-36 506-44C513-57 525-66 540-72C557-79 566-77 567-66C567-63 566-46 565-15C564 16 565 43 567 67C582 207 600 322 622 413C645 507 659 561 664 575C674 605 595 628 577 603C546 560 512 507 475 445C464 428 450 403 432 370C415 337 403 315 396 303C389 291 378 270 363 239C334 178 313 139 302 139C299 139 296 161 294 204C293 229 302 335 319 521C320 534 329 571 329 584C330 591 328 602 325 615C315 636 294 647 262 647C243 647 227 634 214 609C178 540 145 463 102 364L54 251L-31 60C-54 14-109-65-69-74Z"  horiz-adv-x="639" vert-adv-y="1000"  />

      
      <glyph glyph-name="uni4e" unicode="&#x4e;" d="M364-47C380-69 425-78 427-38C428-22 462 88 529 291C596 495 632 603 635 616C637 623 638 630 637 637C636 660 627 676 608 684C596 690 590 689 589 680C588 670 559 585 502 424C446 264 412 169 399 140C398 146 392 186 379 260C366 334 354 407 343 478C332 549 326 589 326 597C326 609 318 620 302 631C287 642 274 648 264 648C256 648 217 544 147 337C78 130 43 16 43-3C43-5 44-7 45-10C50-26 62-39 80-49C101-60 112-55 115-35C116-27 121-7 130 24C171 163 214 293 259 412C271 445 277 458 277 452C277 434 290 349 315 196C341 43 357-38 364-47Z"  horiz-adv-x="543" vert-adv-y="1000"  />

      
      <glyph glyph-name="uni4f" unicode="&#x4f;" d="M209-49C235-49 275-28 328 15C382 58 409 90 409 111C409 118 407 124 402 129C400 132 406 152 420 189C435 226 450 271 466 325C483 380 491 427 491 468C491 509 482 543 464 568C433 615 397 638 356 638C311 638 264 610 217 555C170 500 132 434 103 355C74 277 60 204 60 137C60 25 108-49 209-49ZM196 4C191 4 188 4 186 5C153 8 125 59 125 136C125 244 169 365 258 498C309 549 350 575 379 575C412 575 428 551 428 502C428 442 416 373 393 295C370 217 339 149 302 91C265 33 230 4 196 4Z"  horiz-adv-x="448" vert-adv-y="1000"  />

      
      <glyph glyph-name="uni50" unicode="&#x50;" d="M75 0C80 9 87 27 97 52L114 96C115 99 122 125 130 142C161 139 204 148 259 167C314 187 359 215 396 252C415 271 434 296 452 329C464 350 471 375 474 402C477 435 477 457 475 470C462 538 413 601 349 628C316 642 280 648 243 645C235 646 220 653 213 654L210 654C203 652 199 652 195 637C182 630 160 617 130 597C121 590 119 582 119 577C120 573 129 556 130 553C137 536 149 528 166 528C163 501 149 453 126 383L57 155C54 142 41 101 33 76C26 52 19 17 28 14C42 0 55-33 75 0ZM141 187C161 251 187 330 202 375L217 423L260 571C316 576 360 564 392 535C433 495 436 426 407 377C392 349 370 321 340 294C321 277 290 250 225 215C193 198 165 189 141 187Z"  horiz-adv-x="403" vert-adv-y="1000"  />

      
      <glyph glyph-name="uni51" unicode="&#x51;" d="M420-143C426-152 437-153 452-144C468-136 474-127 471-116C461-85 445-46 422 3L384 88C398 106 405 118 404 125C403 131 399 139 393 149C508 312 546 443 507 544C492 581 464 610 422 630C380 650 342 651 307 633C258 609 212 555 167 471C132 406 107 323 99 236C91 151 117 70 182 33C217 14 249 8 280 17C291 20 306 25 325 32L356-27L393-97C403-116 412-131 420-143ZM304 92C199 43 145 117 174 281C186 342 208 400 239 455C276 522 333 566 401 567C449 568 463 525 459 472C456 439 449 402 437 359C422 306 394 247 352 180C339 197 340 208 313 211C300 212 287 209 275 203C263 198 260 189 265 178C276 155 289 127 304 92Z"  horiz-adv-x="489" vert-adv-y="1000"  />

      
      <glyph glyph-name="uni52" unicode="&#x52;" d="M449 34C444 39 427 25 409 25C406 25 402 26 397 27C370 34 339 59 306 102C273 146 249 192 234 239C257 250 301 271 327 288C427 355 491 414 491 482C491 519 477 556 450 593C435 612 409 627 371 638C333 650 299 656 270 656C223 656 181 650 145 637C140 636 136 633 132 629C117 616 110 600 110 582C110 565 119 561 136 569C123 522 93 424 45 277C38 277 21 278 16 278C11 278 10 274 12 266C15 255 21 244 28 235L31 232C3 146-19 80-36 35C-39 11-18-11 7-14C19-11 32 42 37 63L94 214C111 213 135 215 168 221C212 74 288-13 381-13C422-13 460 26 449 34ZM119 282C185 467 211 566 197 577C249 598 320 599 375 570C403 556 417 539 417 518C417 460 386 408 324 361C262 315 194 289 119 282Z"  horiz-adv-x="379" vert-adv-y="1000"  />

      
      <glyph glyph-name="uni53" unicode="&#x53;" d="M237-35C297-35 349-4 365 47C369 54 371 64 371 75C371 103 359 148 335 209L264 394C241 456 231 502 232 531C233 566 233 569 241 586C246 595 252 603 261 610C280 623 296 629 308 629C323 629 337 621 348 604C362 581 369 551 369 516C369 495 367 472 364 447C361 439 366 430 379 421C392 412 405 407 416 407C424 407 429 410 431 415C441 442 446 472 446 505C446 552 435 591 412 624C389 657 353 674 304 674C255 674 219 665 197 648C166 625 151 588 151 539C151 505 158 463 172 414C187 365 203 319 220 278C238 237 254 196 268 154C283 112 290 81 290 60C290 16 236-2 215 17C171 32 138 79 126 116C114 155 105 195 100 198C86 208 71 202 63 202C43 202 36 192 36 167C36 132 43 105 58 84C97 5 168-35 237-35Z"  horiz-adv-x="420" vert-adv-y="1000"  />

      
      <glyph glyph-name="uni54" unicode="&#x54;" d="M563 639C503 646 421 648 316 643C212 638 147 630 121 617C98 607 96 542 126 546C183 553 253 562 337 571C331 555 323 531 313 500L286 414L262 336L250 295C212 184 186 86 171 0L171-2C171-14 179-24 196-31C213-38 223-36 226-23C238 40 283 190 361 427C380 484 399 535 419 580L618 602L621 602C652 605 664 610 655 617C643 626 612 634 563 639Z"  horiz-adv-x="399" vert-adv-y="1000"  />

      
      <glyph glyph-name="uni55" unicode="&#x55;" d="M468-40C485-40 495-38 500-33C503-30 505-26 505-22C505-21 504-19 503-16C497-6 490-1 481-1L476-1C446-12 432 78 432 132C432 226 455 328 500 439C505 450 512 461 520 470C530 480 535 488 535 493C535 499 530 505 520 512C508 519 497 523 487 523C463 523 449 503 432 462C429 457 423 442 412 419L382 357C373 338 365 324 358 315C319 250 275 184 224 117C173 51 139 18 120 18C104 18 96 32 96 61C96 114 114 191 149 294C184 397 225 481 271 546C284 564 290 577 290 584C290 603 263 623 244 623C225 623 198 585 162 508C126 432 94 350 66 261C38 173 24 112 24 78C24 61 26 45 31 31C40-4 82-33 121-33C128-33 134-32 140-30C165-26 189-11 214 9C229 21 250 45 262 60C275 75 300 109 312 125L338 161L364 197C364 110 373 49 390 14C400-3 411-16 423-25C431-32 446-37 468-40Z"  horiz-adv-x="529" vert-adv-y="1000"  />

      
      <glyph glyph-name="uni56" unicode="&#x56;" d="M117-22C125-15 135-3 139 5C143 13 155 37 158 41C175 73 187 98 194 117C207 153 227 191 252 240L280 296C317 373 378 487 462 637C465 642 468 656 472 661C473 663 479 671 490 684C501 698 508 709 511 717C515 729 511 739 499 748C488 757 477 760 467 756C451 749 432 721 411 681C400 662 394 651 393 648L376 618L365 598C347 568 323 524 293 467L240 367L170 232L146 185L115 123L111 241C109 290 107 335 104 376C102 417 101 440 101 444C100 468 94 526 83 618C83 620 82 622 81 625C75 638 62 645 42 646C22 648 12 642 11 627C10 604 11 575 16 541L24 490C28 433 31 366 32 287C32 248 33 209 35 169C36 144 33 115 36 71C37 50 40 32 43 18C51-22 92-42 117-22Z"  horiz-adv-x="278" vert-adv-y="1000"  />

      
      <glyph glyph-name="uni57" unicode="&#x57;" d="M82-29C104-29 128-19 154 0C183 27 213 64 246 109C279 155 307 202 329 249C329 170 336 112 349 73C366 25 400-10 444-10C451-10 458-9 465-7C499 2 526 21 547 51C580 94 602 126 613 149L665 271C676 299 687 333 698 374C709 415 715 451 715 482C715 522 707 561 690 598C671 641 648 660 623 656C609 654 602 649 602 641C602 638 606 627 613 610C631 567 639 521 637 471C634 380 601 282 540 177C493 90 459 48 437 50C414 50 408 91 408 105C406 127 405 149 405 171L405 199L405 227C405 235 406 265 406 273C407 281 410 303 413 314C416 326 420 340 427 355C430 363 424 373 409 385C394 397 379 405 362 408C346 412 334 409 325 399L268 295C233 232 211 192 201 177C188 155 169 129 145 99C121 70 106 55 99 55C86 55 80 68 80 93C77 132 89 193 118 276C147 359 173 428 198 482C229 545 262 599 295 645C299 652 295 664 282 680C269 696 257 704 244 704C239 704 234 702 231 699C214 683 194 653 182 630L161 588L144 552C118 500 92 438 66 367C23 250 2 162 2 101C2 49 15 11 42-14C53-24 66-29 82-29Z"  horiz-adv-x="639" vert-adv-y="1000"  />

      
      <glyph glyph-name="uni58" unicode="&#x58;" d="M50-40C67-44 103 4 129 48L160 98L187 141C206 93 242 49 263 34C288 16 313 7 337 7C346 7 355 8 362 11C369 13 377 18 388 26C399 34 405 41 405 46C405 47 401 51 392 58C384 66 379 70 376 70C357 69 341 56 337 56C331 56 322 62 309 75C290 94 276 113 267 132C258 152 247 181 236 219C249 238 287 290 349 374C412 459 453 518 474 551C482 574 446 602 440 594L395 543C392 540 369 507 324 445L295 409C282 393 272 380 265 370C265 370 240 340 218 309C204 424 196 511 195 569C190 589 177 586 153 586C140 586 130 582 123 574C118 569 116 561 116 550C116 546 125 465 140 357C148 303 156 260 163 228C147 199 123 163 92 122C77 102 67 87 61 78C46 57 0 14 0 9C-1 5 5-4 18-19C28-33 39-40 50-40Z"  horiz-adv-x="376" vert-adv-y="1000"  />

      
      <glyph glyph-name="uni59" unicode="&#x59;" d="M344-212C369-213 373-207 357-192C343-179 336-162 336-141C336-86 344-27 360 36C376 99 408 206 457 357C472 405 487 447 503 483C507 492 524 523 529 538C536 553 537 577 524 593C488 633 471 610 454 572C435 530 383 456 298 350C214 245 162 192 143 192C126 192 140 232 145 254C156 295 170 336 187 378C216 452 241 504 261 533L264 542C266 558 259 575 242 593C225 612 212 613 204 597L182 555C171 536 162 519 155 504C148 490 143 477 138 465C136 460 129 441 116 410L91 345C83 320 70 264 70 227C70 202 76 179 89 157C102 135 120 124 143 125C163 125 195 144 239 181C283 219 320 256 349 293C341 261 331 224 318 182C306 141 298 111 293 92L286 63L277 25L268-16C261-53 262-72 261-104C261-137 270-156 281-177C293-198 315-209 344-212Z"  horiz-adv-x="468" vert-adv-y="1000"  />

      
      <glyph glyph-name="uni5a" unicode="&#x5a;" d="M120-60C136-60 162-56 199-49C274-33 322-8 397 44C407 51 417 59 427 67C466 99 488 123 491 138C494 149 480 148 451 133C324 70 226 33 158 23C149 22 141 21 136 21C111 21 99 29 99 44C99 61 115 86 146 121L394 399C439 448 476 484 507 508C529 526 540 543 540 558C540 566 539 575 536 585C529 615 515 636 496 648C481 657 463 661 440 661C410 661 376 653 345 641C334 638 309 627 301 624C293 621 266 608 262 607C227 592 190 568 150 534C110 500 88 471 85 448C84 441 86 430 93 415C100 400 106 393 113 392C121 392 129 396 138 404C145 411 156 424 171 444C186 464 200 478 211 487C294 552 369 584 434 584C447 584 458 583 468 580C461 567 441 543 407 509C374 475 336 437 293 395C251 354 209 311 167 266C126 221 91 177 62 132C34 87 20 50 20 20C20-11 35-35 66-50C83-57 101-60 120-60Z"  horiz-adv-x="438" vert-adv-y="1000"  />

      
      <glyph glyph-name="uni5b" unicode="&#x5b;" d="M-23-266C-14-266-3-264 10-259C23-255 57-253 112-252C130-252 153-238 149-230C135-209 22-206 18-204C21-189 44-113 89 23C104 67 125 77 108 87C98 101 115 99 122 112C129 125 131 134 135 150C139 167 165 236 212 344C244 441 272 511 296 554C323 559 347 563 370 565L435 583C447 587 461 597 461 601C461 618 448 627 422 627C418 627 413 627 407 626L398 625C369 620 337 617 321 614L293 612C252 608 241 606 244 594C245 592 222 534 175 419C128 304 80 179 31 43C-18-93-42-184-42-231C-42-254-36-266-23-266Z"  horiz-adv-x="311" vert-adv-y="1000"  />

      
      <glyph glyph-name="uni5c" unicode="&#x5c;" d="M317-226C326-215 329-206 326-199C304-144 266-1 212 228C158 457 119 593 95 635C92 641 87 646 82 650C69 660 54 657 38 641C32 635 30 630 31 627C56 576 87 482 124 345C161 208 193 81 222-35C251-151 271-214 281-225C294-239 306-239 317-226Z"  horiz-adv-x="476" vert-adv-y="1000"  />

      
      <glyph glyph-name="uni5d" unicode="&#x5d;" d="M-75-297C-60-297-35-290-15-290C-6-290 14-292 43-296C82-305 101-286 101-237L212 80C227 117 243 160 262 211L310 341L350 446C378 515 399 558 412 570C421 577 425 594 421 606C402 635 348 641 305 641C292 642 274 641 251 640C228 639 211 639 199 639C192 638 189 631 189 618C190 605 193 595 199 588C212 572 229 580 248 580C272 580 310 584 322 583C329 582 333 580 335 575C332 568 326 554 319 533L278 421C258 367 234 303 205 229C168 143 116 3 49-191C43-217 38-237 33-250C17-249-9-250-45-255C-57-255-68-262-77-277C-84-290-84-297-75-297Z"  horiz-adv-x="310" vert-adv-y="1000"  />

      
      <glyph glyph-name="uni5f" unicode="&#x5f;" d="M-107-113C-95-113-27-111 57-108C100-107 127-106 140-105C188-104 258-105 321-104C352-104 370-103 375-101C384-98 388-89 387-75C386-62 381-55 371-55C368-55 331-55 258-54C185-54 112-54 39-53L-91-53C-102-54-110-64-115-84C-120-103-117-113-107-113Z"  horiz-adv-x="460" vert-adv-y="1000"  />

      
      <glyph glyph-name="uni60" unicode="&#x60;" d="M315 394C320 394 325 395 329 397C336 402 340 407 340 414C340 426 331 436 303 457L276 478C265 487 245 515 229 527C221 533 212 536 201 536C188 536 176 527 165 509C156 493 172 470 211 439C251 409 286 394 315 394Z"  horiz-adv-x="600" vert-adv-y="1000"  />

      
      <glyph glyph-name="uni61" unicode="&#x61;" d="M308-21C334-18 362 2 391 37C414 66 427 86 428 99C428 103 426 103 421 99C418 97 332 29 292 30C268 29 259 43 259 67C259 93 266 125 279 163C292 202 307 235 323 264C330 278 323 290 301 301C278 314 263 314 254 301C200 339 127 300 81 248C1 160-58 15 51 4C92 1 141 30 199 93C204 18 249-28 308-21ZM55 71C93 171 198 277 223 246C223 224 200 187 154 136C112 90 81 64 62 58C54 55 52 60 55 71Z"  horiz-adv-x="377" vert-adv-y="1000"  />

      
      <glyph glyph-name="uni62" unicode="&#x62;" d="M168-20C188-20 206-13 223 2C262 33 291 75 310 126C333 185 332 231 307 265C291 287 270 298 244 298C211 298 177 273 144 223C144 244 155 282 176 339C198 396 222 455 249 517C276 579 292 617 297 630C305 655 246 694 234 668C198 593 160 501 120 392L105 353L89 310L77 271C65 234 63 219 56 187C53 172 52 157 51 144C48 107 54 85 85 73C118 61 122 77 135 104C148 132 165 163 187 197C210 232 228 250 243 252C266 255 265 226 241 165C222 118 206 87 193 72C167 41 144 28 123 31C114 32 99 42 95 42C90 39 93 28 98 19C113-7 136-20 168-20Z"  horiz-adv-x="347" vert-adv-y="1000"  />

      
      <glyph glyph-name="uni63" unicode="&#x63;" d="M124-15C156-15 183-8 204 6C235 27 256 44 267 56C285 77 294 95 294 112C294 117 293 120 290 119C209 63 147 35 104 35C91 35 81 39 74 47C68 55 65 65 65 76C65 103 80 138 111 180C134 211 150 230 159 236C168 241 174 244 178 244C182 244 193 236 205 233C212 232 216 231 219 231C232 231 239 237 239 249C239 266 230 283 213 299C198 312 182 319 166 319C146 319 123 307 96 283C49 239 6 167 6 100C6 66 17 37 40 14C59-5 87-15 124-15Z"  horiz-adv-x="250" vert-adv-y="1000"  />

      
      <glyph glyph-name="uni64" unicode="&#x64;" d="M339-12C365-9 394 9 426 42C452 69 466 88 467 99C468 103 465 103 460 100C457 99 417 70 378 53C359 44 342 40 327 40C318 40 311 41 306 44C293 49 287 66 287 95C287 124 295 163 310 212C319 241 332 272 349 306L442 533C461 581 459 600 446 619C435 634 426 641 417 641C406 641 396 629 388 605C373 562 354 517 329 460C316 431 307 409 301 394L265 299C258 282 254 273 252 273C251 273 244 278 233 288C214 305 195 313 177 313C151 313 122 293 90 253C43 196 20 144 20 98C20 83 23 70 29 57C43 27 66 12 98 12C123 12 145 21 164 38C182 54 196 68 205 80C221 103 230 116 232 120C232 28 279-17 339-12ZM82 75C78 75 76 79 76 86C76 109 93 142 126 185C159 228 185 249 202 249C209 249 221 235 221 228C221 214 201 185 162 141C123 97 97 75 82 75Z"  horiz-adv-x="410" vert-adv-y="1000"  />

      
      <glyph glyph-name="uni65" unicode="&#x65;" d="M135-15C187-15 253 19 288 60L292 65C309 86 316 105 314 120C313 123 312 124 311 123C252 64 190 35 125 35C105 35 91 39 83 48C68 64 66 90 77 125C94 114 114 108 136 108C142 108 146 108 149 109C198 120 234 162 249 207C254 222 257 238 257 254C257 261 257 267 256 271C253 288 245 300 231 308C221 314 210 317 199 317C160 317 119 294 75 249C32 204 10 156 10 104C10 67 15 43 46 18C73-4 102-15 135-15ZM100 167C124 215 207 280 210 264C213 258 206 245 188 224C171 203 158 190 149 184C130 166 113 160 100 167Z"  horiz-adv-x="269" vert-adv-y="1000"  />

      
      <glyph glyph-name="uni66" unicode="&#x66;" d="M80-149C88-150 93-147 95-139C84-91 82-44 87 9C90 36 93 57 96 72L109 139C120 178 126 201 129 206C168 216 212 225 261 232C312 240 346 250 363 261C377 271 372 278 347 281C324 284 291 284 250 282C209 280 177 277 156 273C160 288 171 319 189 365C208 411 224 447 237 474C238 475 241 482 246 494L260 522C263 529 268 538 275 549C292 580 310 606 331 612C334 613 337 613 340 613C349 613 353 606 352 593C352 578 344 553 337 537C332 521 320 494 320 493C304 460 296 441 295 436C295 428 310 423 329 424C355 429 353 433 373 463L387 489C396 505 402 516 404 521C409 532 419 562 418 585C415 607 404 628 386 647C368 667 348 678 326 679C279 687 226 611 186 534C173 510 160 480 145 443C130 407 119 377 110 353L80 267C71 264 52 263 39 259C3 250-5 248-5 237C-5 232-2 223 3 210C8 197 16 191 26 191C33 191 43 193 56 196C49 175 42 147 36 110C29 72 25 38 23 8C21-21 22-47 27-72C35-115 48-140 66-146C71-148 76-149 80-149Z"  horiz-adv-x="256" vert-adv-y="1000"  />

      
      <glyph glyph-name="uni67" unicode="&#x67;" d="M7-405C112-405 200-305 273-104C278-89 289-51 305 12C321 75 333 128 341 171C343 177 350 189 362 208C375 227 381 242 381 252C381 263 376 272 366 280C358 287 337 295 332 294C321 291 310 284 299 273C272 302 243 316 213 316C199 316 184 311 168 301C122 272 85 228 56 170C31 121 19 82 19 53C19 42 20 33 23 26C31 1 64-24 93-24C114-24 144-5 181 33C218 72 249 110 274 147C270 123 267 108 265 103C260 87 255 67 250 44C245 21 241 8 240 5C220-70 192-142 152-217C113-292 59-342 6-342C-51-342-81-299-104-219C-106-211-109-210-112-215C-119-226-122-244-122-267C-122-346-68-405 7-405ZM83 40C78 40 76 43 76 50C76 59 82 74 93 94C104 115 115 132 124 145L149 179C188 227 218 251 237 251C244 251 255 245 269 234C251 204 219 164 174 114C129 65 99 40 83 40Z"  horiz-adv-x="385" vert-adv-y="1000"  />

      
      <glyph glyph-name="uni68" unicode="&#x68;" d="M346-12C355-12 362-11 366-10C386-5 406 8 427 31C448 54 463 76 473 97C483 118 486 128 481 128C480 128 477 126 473 122C470 121 449 98 432 82C415 66 386 47 365 42C362 41 359 41 354 41C338 41 330 53 330 77C330 94 334 122 342 159C350 197 353 223 352 236C351 250 342 266 327 283C312 300 298 309 285 309C262 309 234 292 201 259C168 226 137 186 108 139C108 167 130 239 174 354C219 470 253 550 278 593C292 619 299 639 299 652C299 668 280 684 257 684C250 684 240 675 228 656C202 616 155 506 87 327C38 196 13 103 13 46C13 22 35 0 68 0C73 0 76 0 78 1C97 6 112 25 126 53C156 102 180 137 197 158C214 179 240 207 275 240C261 156 254 104 254 84C254 25 298-12 346-12Z"  horiz-adv-x="424" vert-adv-y="1000"  />

      
      <glyph glyph-name="uni69" unicode="&#x69;" d="M148 361C160 361 173 372 186 393C199 414 206 432 206 445C206 459 203 469 197 475C186 486 175 492 166 492C153 492 143 482 135 463C128 444 124 427 124 412C124 395 126 382 130 375C135 366 141 361 148 361ZM126-12C152-10 181 8 213 42C239 69 253 88 254 99C255 103 252 103 247 100L223 85C210 76 196 67 183 60C158 45 116 29 97 44C88 49 83 60 83 77C83 122 101 183 137 258C146 275 136 286 107 293C87 301 76 296 64 265C44 215 30 172 23 135C12 83 18 45 41 20C64-4 93-15 126-12Z"  horiz-adv-x="213" vert-adv-y="1000"  />

      
      <glyph glyph-name="uni6a" unicode="&#x6a;" d="M143 396C158 369 176 375 197 414L200 419C218 450 234 484 210 513C179 544 164 541 152 506C135 452 132 415 143 396ZM-201-366C-129-386-68-337-24-269C7-221 23-187 38-148C88-21 122 78 139 148C144 170 161 221 168 251C175 275 174 292 166 293C163 293 143 300 135 300C132 301 127 301 121 301C110 301 104 295 100 283C32 47-21-110-59-189C-67-205-75-219-91-246C-100-260-108-271-115-279C-141-310-171-330-196-304C-213-287-230-249-248-189C-265-231-268-269-258-302C-248-336-229-357-201-366Z"  horiz-adv-x="200" vert-adv-y="1000"  />

      
      <glyph glyph-name="uni6b" unicode="&#x6b;" d="M35-26C56-34 79 53 87 78C101 118 114 157 126 195L147 258C148 263 177 343 234 496L245 527C252 546 258 565 265 583C266 584 266 586 266 588C267 601 258 614 241 626C222 639 210 638 204 624C199 612 186 580 167 527C138 448 97 333 46 181C13 82-4 26-4 13C-4-8 6-17 35-26ZM269-19C301-19 322-3 332 28C323 31 292 34 273 37C264 39 254 42 242 46C212 59 187 80 187 122C198 141 220 162 235 173C242 179 253 187 267 197L294 215C314 231 361 254 358 271C355 300 344 315 325 315C314 315 297 309 275 297C239 277 209 251 168 207L136 172C124 160 118 146 119 130C120 123 123 111 128 94C133 77 138 66 141 61C154 39 172 20 194 4C211-8 231-15 254-18C257-18 265-19 269-19Z"  horiz-adv-x="360" vert-adv-y="1000"  />

      
      <glyph glyph-name="uni6c" unicode="&#x6c;" d="M161-22C196-22 233-3 271 35C288 52 305 89 302 101L300 105C298 108 292 104 281 94C272 85 265 78 258 73C221 40 184 24 149 24C112 24 94 47 94 93C132 120 179 175 234 260C271 314 303 375 332 444C353 493 362 542 361 593C360 629 320 652 283 652C275 652 269 651 266 650C244 643 223 624 203 594C173 550 147 503 124 454C100 401 81 351 66 304C41 225 29 164 29 121C29 61 37 22 76-1C99-15 128-22 161-22ZM97 162C108 211 124 260 145 309C171 372 201 436 235 500C270 565 293 597 304 597C308 597 310 593 310 584C310 579 310 576 309 573C306 533 286 476 270 443L250 401L233 364C216 326 192 287 163 246C143 217 121 189 97 162Z"  horiz-adv-x="276" vert-adv-y="1000"  />

      
      <glyph glyph-name="uni6d" unicode="&#x6d;" d="M69-30C74-30 78-27 81-22C101 18 137 70 189 133C232 185 266 221 292 240L271 120C264 81 260 61 260 59C260 40 268 25 284 15C291 10 298 8 306 8C325 8 351 44 395 109C418 142 437 167 452 185C430 98 437 39 474 10C497-8 524-15 557-12C583-9 612 9 644 42C670 69 684 88 685 100C686 103 683 103 678 100L654 85C640 76 626 68 613 61C586 48 544 32 524 44C515 48 512 63 513 98C514 134 516 161 523 224C524 235 518 247 505 260C492 273 478 280 462 280C452 280 435 267 411 240C387 213 362 182 337 147L340 188C341 205 342 217 342 223C343 230 343 238 342 249C339 272 323 306 298 310C279 313 260 301 240 283L205 249C194 238 177 219 152 191C128 163 113 142 106 129C141 222 160 274 163 285C170 301 166 315 138 330C125 338 115 339 110 334C105 329 97 310 84 276C31 135 5 50 5 19C5-12 33-30 69-30Z"  horiz-adv-x="634" vert-adv-y="1000"  />

      
      <glyph glyph-name="uni6e" unicode="&#x6e;" d="M337-12C346-12 355-11 363-9C386-4 412 13 439 42L445 49C460 67 468 82 468 93C468 96 467 97 465 96L428 74L388 48C376 41 356 33 343 33C320 33 308 55 308 98C308 119 312 148 321 185C329 223 333 244 333 247C333 266 304 289 287 289C277 289 262 283 243 270C224 258 209 246 197 234L102 140C122 193 152 282 154 285C161 301 157 315 129 330C102 346 92 345 84 310L46 176L18 79C12 59 9 46 9 39C9 30 13 20 22 8C31-3 40-9 49-9C61-9 77 5 97 32C112 51 136 77 169 110C170 111 249 193 260 201C237 120 236 62 257 29C274 2 310-12 337-12Z"  horiz-adv-x="421" vert-adv-y="1000"  />

      
      <glyph glyph-name="uni6f" unicode="&#x6f;" d="M110 0C142 0 181 26 228 79L255 110C258 113 261 117 266 124C279 142 288 157 290 181C291 184 291 189 291 195C291 215 281 232 270 240C259 248 235 265 224 274C216 281 212 285 212 288L212 290C212 294 210 300 206 309C198 322 172 343 157 342C137 340 111 301 92 269C80 249 64 217 61 212C36 167 23 125 23 84C23 45 39 21 71 10C84 3 97 0 110 0ZM93 58C88 58 85 62 85 70C85 79 89 94 97 115C119 175 142 212 165 225C178 232 197 228 213 224L225 221C229 217 231 213 231 208C231 192 211 163 172 121C133 79 107 58 93 58Z"  horiz-adv-x="293" vert-adv-y="1000"  />

      
      <glyph glyph-name="uni70" unicode="&#x70;" d="M-3-387C-18-362-22-326-13-279C-8-245 9-184 36-97C71 15 146 132 237 213C268 240 290 253 302 253C307 253 309 248 309 238C310 207 293 165 260 112C237 75 193 46 154 54C152 55 150 55 149 54C142 52 141 45 148 32C159 11 176 1 200 1C227 1 255 14 282 41C309 68 330 97 345 128C360 159 369 183 370 202C373 227 368 250 353 271C338 292 320 303 297 303C288 303 280 302 273 299C247 290 213 263 172 218C157 203 140 182 121 156C163 250 190 308 202 331C213 354 208 370 195 373C174 378 160 379 153 376C142 371 127 343 106 293C77 225 54 165 35 112C-12-14-46-121-68-208C-69-210-69-213-70-217C-85-276-90-319-83-345C-80-358-74-368-67-377C-51-395-33-403-13-400C-2-399 2-394-3-387Z"  horiz-adv-x="401" vert-adv-y="1000"  />

      
      <glyph glyph-name="uni71" unicode="&#x71;" d="M162-300C182-300 179-248 184-233C189-202 194-177 201-157C207-141 213-118 220-88C227-59 233-39 236-29C239-18 262 45 303 160C308 173 311 188 311 204C311 222 306 242 297 265C283 301 261 319 231 319C187 319 139 292 87 237C36 183 10 131 10 81C10 59 16 41 29 26C46 7 66-2 90-2C99-2 107 0 114 4C144 21 171 48 195 83L141-109C126-165 118-202 118-221C118-249 126-271 141-286C150-295 157-300 162-300ZM75 72C70 72 67 76 68 85C72 109 89 139 120 176C165 231 207 254 246 247C248 247 237 232 213 203C190 174 163 145 134 116C105 87 86 72 75 72Z"  horiz-adv-x="348" vert-adv-y="1000"  />

      
      <glyph glyph-name="uni72" unicode="&#x72;" d="M67-13C76-13 89 9 106 54C113 71 125 97 144 132C152 147 165 166 183 187C201 209 216 224 227 231C246 187 263 170 296 170C310 170 335 196 327 201C306 219 290 243 280 274C271 305 242 316 221 297C179 261 145 219 120 171C141 225 153 262 156 282C159 301 154 309 113 325C108 327 102 325 97 319C92 314 84 296 73 265C63 235 51 192 38 136L28 100C23 81 19 63 16 48C13 33 11 23 11 18C11-2 22-13 67-13Z"  horiz-adv-x="304" vert-adv-y="1000"  />

      
      <glyph glyph-name="uni73" unicode="&#x73;" d="M153-34C176-34 184-24 184 5C184 12 178 47 165 110C163 117 153 145 141 204C132 257 142 283 161 283C171 283 178 276 183 262C185 255 186 249 186 244C186 235 182 220 182 216C182 211 185 205 190 200C199 191 208 187 217 187C235 187 244 203 244 235C244 292 203 338 147 333C94 326 68 293 68 233C68 206 75 171 90 130C113 63 122 27 116 23C105 28 91 43 72 70C53 97 41 110 34 110C31 110 27 109 23 107C12 101 7 94 7 87C7 70 23 46 56 14C89-17 116-33 137-33C141-34 146-34 153-34Z"  horiz-adv-x="240" vert-adv-y="1000"  />

      
      <glyph glyph-name="uni74" unicode="&#x74;" d="M48-12C62-13 70-9 72 1C72 5 69 20 70 28C70 29 76 57 87 111C106 174 121 214 130 230L171 237L211 243C212 243 213 243 214 244C244 250 270 263 291 283C306 296 306 303 291 303C271 303 229 299 212 299C201 299 170 295 155 295C173 341 186 372 194 389C229 472 247 513 247 514C250 521 246 530 236 541C226 552 215 557 204 557C202 557 199 556 195 555C186 551 173 527 156 483L111 377L77 292C49 286 26 287 18 280C10 275 9 267 9 251C9 235 16 227 31 227C35 227 51 229 55 228C28 160 12 100 9 49C8 32 9 20 14 13C21-2 33-11 48-12Z"  horiz-adv-x="231" vert-adv-y="1000"  />

      
      <glyph glyph-name="uni75" unicode="&#x75;" d="M67-30C94-33 132 2 195 77C227 115 248 139 257 149C246 94 250 52 269 25C288-2 314-15 346-12C372-9 401 9 433 42C459 69 473 88 474 99C475 103 472 103 467 100L438 84C398 61 354 42 327 42C308 42 305 72 313 113C322 156 334 193 346 226C352 251 361 254 348 275C340 290 319 304 304 303C290 306 256 247 248 238C241 230 229 216 214 197L190 166C142 114 110 77 96 60C84 47 79 42 78 42L74 42C68 45 74 74 91 128C118 193 147 249 156 266C161 275 163 283 163 289C163 304 155 317 139 330C124 343 111 347 102 344C92 340 79 314 62 267C45 220 33 179 24 146C-5 39 9-20 67-30Z"  horiz-adv-x="423" vert-adv-y="1000"  />

      
      <glyph glyph-name="uni76" unicode="&#x76;" d="M113-30C124-30 137-19 154 3C171 26 185 47 196 67C207 87 216 106 225 124L264 202C285 244 299 270 305 280C312 295 326 303 326 313C326 324 306 346 293 346C279 346 266 327 254 311C245 299 210 240 167 167L123 93C122 116 121 149 121 192L121 263C121 290 118 308 112 315C107 322 93 328 71 331C67 332 62 332 57 332C48 332 43 327 43 316C43 308 43 301 44 296C49 240 52 198 53 171C57 72 63 14 71-2C79-19 102-30 113-30Z"  horiz-adv-x="315" vert-adv-y="1000"  />

      
      <glyph glyph-name="uni77" unicode="&#x77;" d="M86-10C121-9 140-5 161 16C177 32 178 32 194 55L209 75C210 77 255 140 261 147C260 100 266 67 277 46C294 15 315 0 338 0C369 0 399 23 430 70C461 117 479 158 484 193C485 208 486 219 486 226C486 262 478 290 461 309C449 325 438 333 427 333C423 333 421 331 421 327C421 324 422 320 424 315C428 305 430 293 430 278C430 256 427 232 420 207C413 184 396 136 368 92C354 71 342 62 332 65C323 69 316 108 316 145C316 190 322 213 335 216C338 230 334 245 323 262C312 279 300 285 285 282C270 279 255 260 238 232C230 219 225 210 222 207C219 204 198 175 177 148C167 135 156 122 145 107C124 79 105 59 101 59C94 59 96 75 107 107C118 139 132 175 149 215C152 222 160 235 171 255C182 275 192 292 199 307C207 322 210 332 208 335C201 344 173 364 156 364C149 364 144 362 141 357C101 293 74 243 61 208C40 155 30 109 30 72C30 24 49-3 86-10Z"  horiz-adv-x="516" vert-adv-y="1000"  />

      
      <glyph glyph-name="uni78" unicode="&#x78;" d="M190-20C210-20 229-15 247-6C266 3 274 17 272 34C269 51 263 60 254 60C249 60 238 55 222 46C206 37 194 33 186 33C180 33 175 34 172 37C163 44 155 57 149 78C144 99 142 115 143 128C225 199 277 255 300 296C307 309 311 320 311 329C311 334 311 337 310 340C303 354 298 362 293 364C241 308 186 251 161 224C148 211 140 202 136 197C139 224 144 252 152 281C160 311 164 329 164 335C164 349 153 356 132 356C128 356 114 355 90 352C83 351 78 345 74 333C65 309 61 278 61 240C61 208 63 169 68 122C63 116 54 105 39 90C24 75 14 63 8 54C3 45 0 37 0 28C0 24 0 21 1 19C8-2 15-13 22-13C37-14 56 16 89 56C104 34 116 20 123 14C149-7 171-19 190-20Z"  horiz-adv-x="307" vert-adv-y="1000"  />

      
      <glyph glyph-name="uni79" unicode="&#x79;" d="M94-394C123-394 159-352 202-267C246-182 284-94 315-2C347 89 366 156 373 197C377 224 396 261 396 276C397 301 375 317 350 317C341 317 333 315 326 311C309 300 293 285 273 262L251 238L247 234C146 133 96 90 96 107C96 126 103 151 116 183C122 198 131 219 143 244C145 248 146 251 146 254C146 259 140 267 127 277C110 290 97 295 90 293C71 289 52 242 31 153C27 137 25 122 25 107C25 56 48 21 87 21C102 21 126 35 159 63C223 117 271 165 302 206C300 185 291 149 276 100C261 51 251 18 244 2C219-63 201-108 189-133C158-198 136-242 123-265C100-302 85-322 76-324C68-325 61-323 57-319L41-300C32-288 26-282 24-282C21-282 17-287 12-296C11-301 10-307 10-313C10-317 11-324 11-325C18-365 55-398 94-394Z"  horiz-adv-x="411" vert-adv-y="1000"  />

      
      <glyph glyph-name="uni7a" unicode="&#x7a;" d="M60 0C75 0 96 3 124 8C153 14 170 17 177 18L225 24C248 27 268 29 285 29C299 29 319 27 344 24C349 23 349 28 346 37C339 56 323 69 296 74C273 79 250 81 225 81C171 81 126 77 89 69C128 91 167 117 204 146C242 176 270 201 288 220C320 255 314 272 314 301C314 334 280 365 247 365C218 365 182 354 140 332C61 291 22 259 22 235C22 224 29 214 44 203C54 195 56 191 62 191C73 191 85 201 113 222C127 233 140 243 152 251C192 278 230 296 242 296C248 297 252 297 254 296C254 278 209 235 118 166C115 163 105 157 89 146L48 118C25 102 0 77 0 62C0 41 13 12 32 4C39 1 49 0 60 0Z"  horiz-adv-x="328" vert-adv-y="1000"  />

      
      <glyph glyph-name="uni7b" unicode="&#x7b;" d="M9-317C12-317 19-316 30-315C49-313 66-308 83-299C106-288 112-279 103-272C90-264 91-248 73-250C62-253 39-265 32-265C26-265 23-259 23-248C23-241 24-232 26-220C26-206 35-181 54-144C73-107 91-68 110-26C129 16 138 50 138 77C138 104 128 124 109 136C124 142 141 168 158 215C175 262 190 311 203 362C216 414 233 460 252 500C272 540 292 558 313 554C322 549 330 547 336 547C348 547 354 554 354 567C354 588 336 613 309 617C302 619 295 620 289 620C205 623 162 466 124 336C111 292 96 252 79 216C62 181 44 159 23 150C21 149 18 149 14 149C13 149 13 149 12 148C10 145 9 141 9 135C9 114 24 90 41 90C60 90 70 87 70 82C70 81 69 75 66 66C65 62 55 39 36-2C17-43-1-88-18-136C-35-185-44-224-44-254C-44-296-26-317 9-317Z"  horiz-adv-x="323" vert-adv-y="1000"  />

      
      <glyph glyph-name="uni7c" unicode="&#x7c;" d="M61-130C77-130 91-122 91-110C91-89 139 47 236 298C333 549 384 685 387 705C388 708 388 712 388 718C388 743 376 756 353 756C328 756 307 691 279 586C265 534 253 495 243 470C214 391 186 316 158 243L100 89C77 30 55-39 40-112C39-124 48-130 61-130Z"  horiz-adv-x="249" vert-adv-y="1000"  />

      
      <glyph glyph-name="uni7d" unicode="&#x7d;" d="M52-316C81-316 108-298 136-251C164-204 187-111 196 17C205 107 336 113 331 132C331 139 326 153 326 157C326 164 323 167 316 167L306 167C297 167 289 169 282 173C273 178 268 188 268 202C268 228 289 275 332 343C375 411 400 452 405 465C420 502 428 530 428 549C428 578 417 601 395 617C373 633 350 641 326 641C301 641 281 630 281 610C281 601 285 591 293 580C298 572 305 570 329 585C341 592 350 595 355 592C366 585 371 575 371 561C371 544 363 519 346 488C329 457 311 427 290 397C270 368 252 335 235 299C218 263 210 232 210 207C210 190 219 162 222 157L224 154C224 150 216 152 187 123C170 106 155 83 144 56C133 29 127 9 125-2L122-31C101-184 77-261 49-261C38-261 13-241 5-240C-1-238-10-246-21-263C-31-273 8-316 52-316Z"  horiz-adv-x="365" vert-adv-y="1000"  />

      
      <glyph glyph-name="unia1" unicode="&#xa1;" d="M238 355C225 355 210 347 195 332C180 317 173 301 173 286C173 261 185 248 208 248C243 248 271 283 271 311C271 336 258 355 238 355ZM150 160C135 102 112 38 82-33C53-104 27-163 6-209C-15-255-25-282-25-291C-25-322 8-340 24-340C31-340 36-337 38-331C39-328 64-259 115-124C166 11 192 92 195 121C196 140 189 155 174 166C162 175 154 173 150 160Z"  horiz-adv-x="293" vert-adv-y="1000"  />

      
      <glyph glyph-name="unia2" unicode="&#xa2;" d="M308-66C320-66 331-53 340-27C346-2 352 31 357 73C368 78 385 89 406 107C427 125 444 143 456 161C458 164 459 168 459 171C459 187 440 205 427 200C421 197 410 189 395 176C380 163 366 153 355 145C304 113 267 134 267 182C267 197 270 210 275 221C291 268 332 297 364 297C381 297 390 289 390 272C390 257 398 250 414 250C434 250 452 267 452 298C452 302 451 309 450 318C445 347 421 352 415 354C423 391 434 422 447 447C451 458 447 470 435 483C424 496 412 503 401 503C392 503 387 499 384 490C361 401 353 377 351 370C335 367 317 361 298 352C235 321 204 274 204 210C204 149 239 89 286 66C285 61 281 46 274 23C268 0 265-16 265-26C265-36 268-43 273-48C287-60 299-66 308-66Z"  horiz-adv-x="600" vert-adv-y="1000"  />

      
      <glyph glyph-name="unia3" unicode="&#xa3;" d="M80-6C128-48 127-3 172 7L198 16C231 28 300 32 404 11C406 10 408 10 409 10C417 9 421 15 420 28C419 48 408 63 388 72C329 97 257 101 212 92C190 88 171 82 156 75C183 165 210 229 213 244C270 258 328 268 386 274C394 275 395 282 390 295C383 312 371 320 354 320C305 319 268 317 243 314C284 414 326 464 370 464C383 464 406 456 413 455C416 455 421 457 426 462C436 470 440 479 438 490C434 516 379 563 294 511C250 482 213 426 196 383C180 342 164 304 156 303C123 297 86 288 45 276C35 272 34 249 58 234C84 217 111 225 128 225C123 205 101 153 87 104C72 56 64 8 80-6Z"  horiz-adv-x="513" vert-adv-y="1000"  />

      
      <glyph glyph-name="unia5" unicode="&#xa5;" d="M166-31C166-32 166-34 167-36C170-49 180-53 197-48C215-43 226-33 230-17C246 50 257 91 263 108C303 118 358 129 428 141C436 148 440 158 440 171C440 187 423 189 364 185C361 185 351 184 333 182L288 179C300 206 307 221 309 224C355 225 391 229 418 235L442 245C463 257 475 269 477 280C478 288 473 291 460 290C408 285 371 284 350 286C377 307 409 344 445 397C482 450 501 482 502 492C504 504 498 516 485 529C472 542 459 544 448 534C443 528 453 496 373 391C352 363 319 327 302 306C277 434 259 507 247 526C240 534 226 536 206 531C192 527 187 522 190 515C199 495 217 416 244 279C188 280 154 279 142 277C112 272 107 252 128 219C131 213 139 218 143 218C172 218 208 219 213 219C216 220 221 220 227 219C224 211 219 185 212 164C205 163 191 161 170 160C149 159 132 156 118 152C104 149 95 143 92 135C89 124 92 112 99 99C106 87 114 82 121 83L180 96C185 97 189 98 190 97C172 36 164-6 166-31Z"  horiz-adv-x="501" vert-adv-y="1000"  />

      
      <glyph glyph-name="unia7" unicode="&#xa7;" d="M168-190C235-185 264-133 253-66C246-24 239 10 230 36C312 38 337 100 336 164C337 185 334 210 327 238C321 267 315 291 309 310C303 329 296 352 287 378L261 445C257 460 249 484 249 495C252 516 256 530 284 545C306 558 345 533 347 462C362 447 378 445 395 454C412 463 419 475 418 488C419 556 390 598 329 613C257 632 156 551 188 448C192 435 203 392 222 319C198 330 161 335 126 308C109 295 100 277 98 255C94 214 97 175 107 137C118 100 138 52 168-5C193-76 178-111 149-115C126-114 117-100 112-72C109-58 108-50 107-48C104-45 102-43 99-42C86-37 74-45 63-68C50-95 48-118 58-137C78-175 115-193 168-190ZM227 96C206 95 190 119 178 168C165 220 178 255 202 262C227 269 253 237 257 170C258 129 246 99 227 96Z"  horiz-adv-x="415" vert-adv-y="1000"  />

      
      <glyph glyph-name="unia8" unicode="&#xa8;" d="M57 401C78 401 102 437 102 472C102 502 87 519 57 524C49 526 30 485 30 450C30 434 34 420 42 408C47 403 52 401 57 401ZM190 395C205 395 222 418 239 463C240 465 240 468 240 472C240 493 210 514 197 518C191 521 186 523 181 524C167 519 160 500 160 467C160 430 171 395 190 395Z"  horiz-adv-x="293" vert-adv-y="1000"  />

      
      <glyph glyph-name="unia9" unicode="&#xa9;" d="M352-80C373-80 394-78 415-75C437-72 450-69 454-66C481-63 509-46 537-13C538-12 538-12 538-11C537-6 530-3 516-3C509-3 502-4 496-7C446-27 401-37 362-37C323-37 288-30 256-15C203 8 166 63 166 132C166 170 176 209 196 250C205 269 217 292 261 344C283 371 307 394 333 414C385 455 474 493 563 493C616 493 659 473 690 434C722 395 738 353 738 310C738 211 689 96 581-9C578-12 576-15 576-18C576-25 584-28 599-28C618-28 636-22 651-10C696 25 735 71 768 126C802 182 819 246 819 317C819 376 793 429 742 477C691 525 626 549 546 549C472 549 401 530 332 493C263 456 207 406 164 342C121 278 100 210 100 138C100 17 173-55 319-78C332-79 343-80 352-80ZM425 92C509 92 552 137 552 174C552 187 547 194 537 194C531 194 525 192 520 187C500 168 451 147 419 147C410 147 402 148 397 151C386 155 380 164 380 178C380 201 392 228 416 259C440 290 462 306 481 306C486 307 491 308 494 308C498 308 500 306 500 303C500 287 514 277 530 277C547 277 563 287 563 304C563 313 559 323 552 333C542 358 523 370 494 370C457 370 411 348 384 321C339 275 316 231 316 189C316 141 347 105 394 94C409 93 419 92 425 92Z"  horiz-adv-x="886" vert-adv-y="1000"  />

      
      <glyph glyph-name="uniab" unicode="&#xab;" d="M214 32C233 15 261 24 264 44C273 80 158 145 158 164C158 165 170 175 193 193C216 211 242 230 271 251C300 272 320 285 331 291C334 292 336 294 338 297C347 308 346 321 335 336C322 355 306 358 286 347C281 345 136 214 83 183C74 178 70 163 70 138C71 130 104 110 153 77C178 60 198 45 214 32ZM433 33C434 32 436 32 438 31C448 29 456 35 461 49C467 66 464 79 451 86C438 99 416 124 383 161C400 177 427 200 464 229C496 255 517 281 527 307C531 319 522 334 497 339C484 343 470 325 467 325L413 277C353 224 317 192 306 179C295 167 293 155 300 144C307 130 326 111 356 86C386 62 412 44 433 33Z"  horiz-adv-x="600" vert-adv-y="1000"  />

      
      <glyph glyph-name="uniae" unicode="&#xae;" d="M205 243C228 197 263 166 308 151C353 136 399 135 445 147C491 159 534 176 573 198C613 221 642 244 659 269L678 296C691 313 701 326 708 337C715 348 724 365 735 387C756 431 763 462 759 509C757 533 751 556 740 577C707 633 654 667 618 675C583 684 546 687 543 688C464 717 389 702 318 655C249 610 201 558 177 518C142 447 147 370 164 325C173 302 187 275 205 243ZM431 192C338 180 264 229 236 294C209 359 209 439 244 488C255 507 284 540 339 579C367 599 396 615 427 627C490 651 575 648 647 600C680 579 697 547 698 503C700 460 690 416 667 372C644 329 611 289 568 253C525 218 479 197 431 192ZM335 234C344 234 356 251 369 285C383 320 393 350 400 375C425 344 439 327 442 325C450 313 461 300 475 285C490 270 501 263 509 263C512 262 519 264 529 269C539 274 544 279 545 284C545 299 536 299 522 320L490 361C485 369 489 370 489 374C495 381 512 389 538 413C576 450 592 480 586 505C581 530 565 548 538 560C512 573 489 575 468 568C460 576 451 580 442 580C421 583 407 555 380 483C367 448 355 419 343 396C338 380 319 340 310 315C305 302 302 289 299 276C294 249 306 234 335 234ZM439 462L450 481C461 502 476 517 498 521C525 517 532 503 521 480C512 460 496 443 475 428C447 411 428 405 418 412Z"  horiz-adv-x="710" vert-adv-y="1000"  />

      
      <glyph glyph-name="uniaf" unicode="&#xaf;" d="M405 474C441 489 425 513 393 512L235 506C227 506 169 503 153 506C141 508 134 504 132 495C128 486 126 478 125 471C122 434 157 420 230 429C290 436 348 451 405 474Z"  horiz-adv-x="600" vert-adv-y="1000"  />

      
      <glyph glyph-name="unib0" unicode="&#xb0;" d="M152 221C169 221 190 227 215 240C240 253 258 264 269 271L295 291C304 295 316 314 316 335C316 349 311 363 301 378C274 414 252 391 252 415C252 430 241 434 233 444C228 450 221 453 214 453C192 453 167 432 139 390C112 348 98 312 98 282C98 267 102 257 111 251C118 231 131 221 152 221ZM167 283C155 283 151 289 155 301C164 326 167 332 176 348C185 365 199 373 216 374C254 374 273 367 273 353C273 340 259 325 232 308C205 291 184 283 167 283Z"  horiz-adv-x="312" vert-adv-y="1000"  />

      
      <glyph glyph-name="unib4" unicode="&#xb4;" d="M236 410C247 410 265 425 278 438C293 451 319 481 331 492L338 498C350 508 364 520 364 538C364 551 341 576 324 576C316 576 298 558 269 522C241 487 225 462 220 447C218 443 217 439 217 436C217 429 219 423 224 417C228 412 232 410 236 410Z"  horiz-adv-x="600" vert-adv-y="1000"  />

      
      <glyph glyph-name="unib6" unicode="&#xb6;" d="M514 524C496 526 482 517 471 498C461 479 443 433 416 359C379 257 346 167 315 88C294 19 285-22 288-35C288-38 294-40 305-43C316-46 323-47 326-47C342-47 346-29 355 10C360 34 373 81 390 126L436 232C447 272 461 312 479 351C497 390 512 422 524 446C536 471 542 488 542 499C542 513 533 521 514 524ZM184-38C183-27 216 63 281 232C346 401 379 489 379 496C379 503 377 507 373 510C356 521 338 526 319 526C281 526 243 505 206 462C169 419 141 372 120 321C100 270 90 228 90 194C89 144 105 119 139 119C149 119 159 120 170 123C137 43 121-11 121-40C121-60 128-70 141-70C152-69 164-64 177-53C189-43 191-38 184-38Z"  horiz-adv-x="478" vert-adv-y="1000"  />

      
      <glyph glyph-name="unib7" unicode="&#xb7;" d="M139 150C152 150 166 158 181 173C196 188 204 204 204 219C204 244 192 257 169 257C134 257 106 222 106 194C106 169 119 150 139 150Z"  horiz-adv-x="293" vert-adv-y="1000"  />

      
      <glyph glyph-name="unib8" unicode="&#xb8;" d="M255-189C278-189 301-175 325-148C350-121 362-96 362-72C362-50 350-36 326-29C332-15 337-4 342 3C347 20 328 36 313 36C309 36 306 35 304 32L290 7C281-10 273-28 265-48C258-68 255-81 258-88C261-98 267-103 277-103C280-103 283-102 286-100C291-97 295-90 299-77C304-71 309-68 312-68C317-68 319-72 319-80C319-95 312-109 299-122C278-143 263-153 252-153C237-153 237-127 235-127C224-127 213-135 213-148C213-158 219-169 232-182C239-187 246-189 255-189Z"  horiz-adv-x="600" vert-adv-y="1000"  />

      
      <glyph glyph-name="unibb" unicode="&#xbb;" d="M600 225C589 238 559 265 548 280C528 305 505 337 498 345C491 353 483 361 468 366C449 374 433 353 433 334C432 325 440 310 458 290L507 235C522 219 527 209 520 206L453 153L400 114L366 88C346 71 342 63 347 56C355 39 357 25 381 33C386 33 418 52 476 89C535 127 575 155 597 174C612 185 613 214 600 225ZM374 264C360 273 335 286 300 303C261 316 237 348 210 356C197 360 179 349 178 332C178 305 213 275 283 240C265 222 239 200 205 173C171 146 144 124 123 106C103 88 93 75 93 66C112 37 132 32 153 49C284 148 357 198 370 201C384 201 391 209 391 225C391 242 385 255 374 264Z"  horiz-adv-x="600" vert-adv-y="1000"  />

      
      <glyph glyph-name="unibf" unicode="&#xbf;" d="M260 380C247 380 232 372 217 357C202 342 195 326 195 311C195 286 207 273 230 273C265 273 293 308 293 336C293 361 280 380 260 380ZM221 209C211 220 172 205 185 187C201 164 181 139 146 108L56 28C-37-63-93-134-93-211C-93-286-55-342 14-342C54-342 95-321 136-279C177-238 198-188 198-130C198-106 186-77 167-65C149-56 122-70 127-82C141-126 134-171 106-216C79-261 45-284 5-284C-22-284-35-263-35-220C-35-187-26-157-9-130C8-103 40-65 85-17C98-3 120 17 150 42C181 67 203 89 218 107C233 125 241 143 241 160C241 175 234 192 221 209Z"  horiz-adv-x="394" vert-adv-y="1000"  />

      
      <glyph glyph-name="unic0" unicode="&#xc0;" d="M500 832C489 841 469 869 453 881C445 887 436 890 425 890C412 890 400 881 389 863C380 847 396 824 435 793C475 763 510 748 539 748C544 748 549 749 553 751C560 756 564 761 564 768C564 780 555 790 527 811ZM420 230C401 231 383 232 364 232L446 627C458 666 373 687 355 651C248 465 162 324 97 227C33 224-9 220-29 216C-58 209-33 149-10 151C-6 151 28 154 48 157C-12 72-74-5-137-74L-139-76L-142-79C-160-100-151-110-115-110C-84-110-71-102-46-81C-7-48 54 35 138 166L141 166C185 170 232 173 283 176L274 136L266 98C265 91 262 78 258 61L252 27L247-3C245-18 244-27 245-30C246-33 247-41 246-52C247-59 250-66 255-71C267-84 283-87 303-82C316-79 322-74 319-66C313-47 324 34 353 179C419 180 461 179 480 175C485 176 486 182 485 192C479 214 457 227 420 230ZM314 448L344 495C326 418 311 342 299 265L294 233C269 233 231 232 179 231Z"  horiz-adv-x="448" vert-adv-y="1000"  />

      
      <glyph glyph-name="unic1" unicode="&#xc1;" d="M515 930C507 930 489 912 460 876C432 841 416 816 411 801C409 797 408 793 408 790C408 783 410 777 415 771C419 766 423 764 427 764C438 764 456 779 469 792C484 805 510 835 522 846L529 852C541 862 555 874 555 892C555 905 532 930 515 930ZM420 230C401 231 383 232 364 232L446 627C458 666 373 687 355 651C248 465 162 324 97 227C33 224-9 220-29 216C-58 209-33 149-10 151C-6 151 28 154 48 157C-12 72-74-5-137-74L-139-76L-142-79C-160-100-151-110-115-110C-84-110-71-102-46-81C-7-48 54 35 138 166L141 166C185 170 232 173 283 176L274 136L266 98C265 91 262 78 258 61L252 27L247-3C245-18 244-27 245-30C246-33 247-41 246-52C247-59 250-66 255-71C267-84 283-87 303-82C316-79 322-74 319-66C313-47 324 34 353 179C419 180 461 179 480 175C485 176 486 182 485 192C479 214 457 227 420 230ZM314 448L344 495C326 418 311 342 299 265L294 233C269 233 231 232 179 231Z"  horiz-adv-x="448" vert-adv-y="1000"  />

      
      <glyph glyph-name="unic2" unicode="&#xc2;" d="M565 967C555 973 514 952 441 905C355 851 312 822 311 817C309 792 317 780 334 780C352 780 371 790 394 804L433 830L448 841L524 891C520 865 518 848 518 840C518 809 530 794 553 794C556 795 559 795 563 795C568 795 569 796 570 812C571 832 574 853 577 874C577 878 586 906 586 925C586 944 579 958 565 967ZM420 230C401 231 383 232 364 232L446 627C458 666 373 687 355 651C248 465 162 324 97 227C33 224-9 220-29 216C-58 209-33 149-10 151C-6 151 28 154 48 157C-12 72-74-5-137-74L-139-76L-142-79C-160-100-151-110-115-110C-84-110-71-102-46-81C-7-48 54 35 138 166L141 166C185 170 232 173 283 176L274 136L266 98C265 91 262 78 258 61L252 27L247-3C245-18 244-27 245-30C246-33 247-41 246-52C247-59 250-66 255-71C267-84 283-87 303-82C316-79 322-74 319-66C313-47 324 34 353 179C419 180 461 179 480 175C485 176 486 182 485 192C479 214 457 227 420 230ZM314 448L344 495C326 418 311 342 299 265L294 233C269 233 231 232 179 231Z"  horiz-adv-x="448" vert-adv-y="1000"  />

      
      <glyph glyph-name="unic3" unicode="&#xc3;" d="M613 880C604 899 565 825 538 824C508 821 499 913 431 913C405 913 375 896 340 861C331 850 326 837 326 824C326 804 338 787 351 787C356 787 361 791 367 800C388 832 404 847 431 847C462 847 463 772 542 772C593 772 621 813 621 852C621 864 618 873 613 880ZM420 230C401 231 383 232 364 232L446 627C458 666 373 687 355 651C248 465 162 324 97 227C33 224-9 220-29 216C-58 209-33 149-10 151C-6 151 28 154 48 157C-12 72-74-5-137-74L-139-76L-142-79C-160-100-151-110-115-110C-84-110-71-102-46-81C-7-48 54 35 138 166L141 166C185 170 232 173 283 176L274 136L266 98C265 91 262 78 258 61L252 27L247-3C245-18 244-27 245-30C246-33 247-41 246-52C247-59 250-66 255-71C267-84 283-87 303-82C316-79 322-74 319-66C313-47 324 34 353 179C419 180 461 179 480 175C485 176 486 182 485 192C479 214 457 227 420 230ZM314 448L344 495C326 418 311 342 299 265L294 233C269 233 231 232 179 231Z"  horiz-adv-x="448" vert-adv-y="1000"  />

      
      <glyph glyph-name="unic4" unicode="&#xc4;" d="M398 755C419 755 443 791 443 826C443 856 428 873 398 878C390 880 371 839 371 804C371 788 375 774 383 762C388 757 393 755 398 755ZM522 878C508 873 501 854 501 821C501 784 512 749 531 749C546 749 563 772 580 817C581 819 581 822 581 826C581 847 551 868 538 872C532 875 527 877 522 878ZM420 230C401 231 383 232 364 232L446 627C458 666 373 687 355 651C248 465 162 324 97 227C33 224-9 220-29 216C-58 209-33 149-10 151C-6 151 28 154 48 157C-12 72-74-5-137-74L-139-76L-142-79C-160-100-151-110-115-110C-84-110-71-102-46-81C-7-48 54 35 138 166L141 166C185 170 232 173 283 176L274 136L266 98C265 91 262 78 258 61L252 27L247-3C245-18 244-27 245-30C246-33 247-41 246-52C247-59 250-66 255-71C267-84 283-87 303-82C316-79 322-74 319-66C313-47 324 34 353 179C419 180 461 179 480 175C485 176 486 182 485 192C479 214 457 227 420 230ZM314 448L344 495C326 418 311 342 299 265L294 233C269 233 231 232 179 231Z"  horiz-adv-x="448" vert-adv-y="1000"  />

      
      <glyph glyph-name="unic5" unicode="&#xc5;" d="M552 952C548 951 547 949 548 945C562 930 569 918 569 907C569 892 559 876 540 859C519 838 498 828 476 828C456 828 446 836 446 851C446 865 457 880 480 896C489 901 496 903 499 903C502 903 510 897 513 902C517 904 519 909 519 916C519 941 497 975 469 975C455 975 440 967 425 952C402 932 391 908 391 880C391 853 401 828 421 805C441 782 463 771 488 771C491 771 496 772 503 773C590 790 626 828 626 871C626 894 617 914 600 931C583 949 567 956 552 952ZM420 230C401 231 383 232 364 232L446 627C458 666 373 687 355 651C248 465 162 324 97 227C33 224-9 220-29 216C-58 209-33 149-10 151C-6 151 28 154 48 157C-12 72-74-5-137-74L-139-76L-142-79C-160-100-151-110-115-110C-84-110-71-102-46-81C-7-48 54 35 138 166L141 166C185 170 232 173 283 176L274 136L266 98C265 91 262 78 258 61L252 27L247-3C245-18 244-27 245-30C246-33 247-41 246-52C247-59 250-66 255-71C267-84 283-87 303-82C316-79 322-74 319-66C313-47 324 34 353 179C419 180 461 179 480 175C485 176 486 182 485 192C479 214 457 227 420 230ZM314 448L344 495C326 418 311 342 299 265L294 233C269 233 231 232 179 231Z"  horiz-adv-x="448" vert-adv-y="1000"  />

      
      <glyph glyph-name="unic6" unicode="&#xc6;" d="M767 605C752 621 724 633 683 640C642 648 606 650 576 645C573 645 567 644 558 643C558 655 546 666 521 675C496 685 479 684 469 671C330 478 199 311 76 169C31 167-5 164-34 159C-62 152-48 86-15 88C-11 89 1 90 6 90C-39 40-84-8-131-55C-138-62-142-68-142-73C-141-81-125-84-93-82C-86-81-82-81-79-81C-53-81 9-21 108 99L209 110C228 112 261 116 306 123C297 98 291 76 286 57C275 6 291-35 332-65C373-95 418-104 467-91C491-85 517-73 545-54C574-35 590-12 593 15C593 19 583 16 562 5L534-9C491-26 457-35 432-35C420-35 409-31 398-24C395-21 382-12 377-7C373-3 366 6 363 17C360 32 376 100 411 220C422 223 450 229 493 237L536 246C594 261 631 279 647 298C656 309 652 314 635 314C559 314 495 312 442 309C444 318 458 356 484 422C511 489 528 534 535 558C600 571 667 576 736 573C747 572 757 570 765 567L777 562C784 562 787 566 786 573C784 584 778 594 767 605ZM412 449C409 438 400 412 386 372C384 361 376 336 361 299C357 283 344 242 322 175C287 175 236 174 168 173C225 246 284 323 343 405C403 488 441 541 456 565C435 521 421 482 412 449Z"  horiz-adv-x="658" vert-adv-y="1000"  />

      
      <glyph glyph-name="unic7" unicode="&#xc7;" d="M320 88L274 54C233 23 197 11 162 11C150 11 140 13 133 16C129 28 115 36 104 36C87 56 80 88 84 133C88 181 103 241 129 312C156 384 188 449 227 506C266 564 302 593 334 593C353 593 363 583 363 563C363 552 357 529 344 493C331 457 321 432 313 417C308 406 312 400 325 397C343 393 359 395 372 403C383 410 395 428 408 459C421 490 427 520 427 550C427 621 390 669 317 669C278 669 236 640 190 581C144 522 105 452 73 371C41 290 23 218 19 154C14 75 32 18 71-15C53-54 46-79 49-88C52-98 59-103 68-103C71-103 74-102 77-100C82-97 86-90 90-77C95-71 100-68 103-68C108-68 110-72 110-80C110-95 103-109 90-122C69-143 54-153 43-153C28-153 28-127 26-127C15-127 4-135 4-148C4-158 10-169 23-182C30-187 37-189 46-189C69-189 92-175 116-148C141-121 153-96 153-72C153-61 150-51 143-44L148-44C216-44 277-12 332 51C361 83 376 108 377 125C378 133 374 134 365 127Z"  horiz-adv-x="334" vert-adv-y="1000"  />

      
      <glyph glyph-name="unic8" unicode="&#xc8;" d="M463 696C468 696 473 697 477 699C484 704 488 709 488 716C488 728 479 738 451 759L424 780C413 789 393 817 377 829C369 835 360 838 349 838C336 838 324 829 313 811C304 795 320 772 359 741C399 711 434 696 463 696ZM197-51C224-44 258-31 294 1C312 18 322 36 323 55C323 59 313 56 292 45L264 31C221 14 187 5 162 5C122 5 98 29 93 57C90 70 100 116 123 193C126 205 129 214 131 220C142 223 170 229 213 237L250 245C310 260 349 278 367 298C376 309 372 314 355 314C279 314 215 312 162 309C166 326 191 392 220 472L252 558C317 571 384 576 453 573C464 572 474 570 482 567L494 562C501 562 504 566 503 573C501 584 495 594 484 605C469 621 441 633 400 640C359 648 323 650 293 645C271 643 253 639 240 632C225 642 213 647 203 647C183 647 167 632 154 602C150 591 139 578 144 567C147 560 162 553 163 544C164 539 151 501 135 461C128 441 123 429 122 424C123 426 77 299 81 299C57 295 16 285 5 285C0 284-3 278-2 267C-1 256 2 248 7 243C18 233 33 223 51 212C48 201 42 182 33 156C25 130 19 110 16 97C5 46 21 5 62-25C103-55 148-64 197-51Z"  horiz-adv-x="376" vert-adv-y="1000"  />

      
      <glyph glyph-name="unic9" unicode="&#xc9;" d="M351 712C362 712 380 727 393 740C408 753 434 783 446 794L453 800C465 810 479 822 479 840C479 853 456 878 439 878C431 878 413 860 384 824C356 789 340 764 335 749C333 745 332 741 332 738C332 731 334 725 339 719C343 714 347 712 351 712ZM197-51C224-44 258-31 294 1C312 18 322 36 323 55C323 59 313 56 292 45L264 31C221 14 187 5 162 5C122 5 98 29 93 57C90 70 100 116 123 193C126 205 129 214 131 220C142 223 170 229 213 237L250 245C310 260 349 278 367 298C376 309 372 314 355 314C279 314 215 312 162 309C166 326 191 392 220 472L252 558C317 571 384 576 453 573C464 572 474 570 482 567L494 562C501 562 504 566 503 573C501 584 495 594 484 605C469 621 441 633 400 640C359 648 323 650 293 645C271 643 253 639 240 632C225 642 213 647 203 647C183 647 167 632 154 602C150 591 139 578 144 567C147 560 162 553 163 544C164 539 151 501 135 461C128 441 123 429 122 424C123 426 77 299 81 299C57 295 16 285 5 285C0 284-3 278-2 267C-1 256 2 248 7 243C18 233 33 223 51 212C48 201 42 182 33 156C25 130 19 110 16 97C5 46 21 5 62-25C103-55 148-64 197-51Z"  horiz-adv-x="376" vert-adv-y="1000"  />

      
      <glyph glyph-name="unica" unicode="&#xca;" d="M258 728C276 728 295 738 318 752L357 778L372 789L448 839C444 813 442 796 442 788C442 757 454 742 477 742C480 743 483 743 487 743C492 743 493 744 494 760C495 780 498 801 501 822C501 826 510 854 510 873C510 892 503 906 489 915C479 921 438 900 365 853C279 799 236 770 235 765C233 740 241 728 258 728ZM197-51C224-44 258-31 294 1C312 18 322 36 323 55C323 59 313 56 292 45L264 31C221 14 187 5 162 5C122 5 98 29 93 57C90 70 100 116 123 193C126 205 129 214 131 220C142 223 170 229 213 237L250 245C310 260 349 278 367 298C376 309 372 314 355 314C279 314 215 312 162 309C166 326 191 392 220 472L252 558C317 571 384 576 453 573C464 572 474 570 482 567L494 562C501 562 504 566 503 573C501 584 495 594 484 605C469 621 441 633 400 640C359 648 323 650 293 645C271 643 253 639 240 632C225 642 213 647 203 647C183 647 167 632 154 602C150 591 139 578 144 567C147 560 162 553 163 544C164 539 151 501 135 461C128 441 123 429 122 424C123 426 77 299 81 299C57 295 16 285 5 285C0 284-3 278-2 267C-1 256 2 248 7 243C18 233 33 223 51 212C48 201 42 182 33 156C25 130 19 110 16 97C5 46 21 5 62-25C103-55 148-64 197-51Z"  horiz-adv-x="376" vert-adv-y="1000"  />

      
      <glyph glyph-name="unicb" unicode="&#xcb;" d="M322 703C343 703 367 739 367 774C367 804 352 821 322 826C314 828 295 787 295 752C295 736 299 722 307 710C312 705 317 703 322 703ZM455 697C470 697 487 720 504 765C505 767 505 770 505 774C505 795 475 816 462 820C456 823 451 825 446 826C432 821 425 802 425 769C425 732 436 697 455 697ZM197-51C224-44 258-31 294 1C312 18 322 36 323 55C323 59 313 56 292 45L264 31C221 14 187 5 162 5C122 5 98 29 93 57C90 70 100 116 123 193C126 205 129 214 131 220C142 223 170 229 213 237L250 245C310 260 349 278 367 298C376 309 372 314 355 314C279 314 215 312 162 309C166 326 191 392 220 472L252 558C317 571 384 576 453 573C464 572 474 570 482 567L494 562C501 562 504 566 503 573C501 584 495 594 484 605C469 621 441 633 400 640C359 648 323 650 293 645C271 643 253 639 240 632C225 642 213 647 203 647C183 647 167 632 154 602C150 591 139 578 144 567C147 560 162 553 163 544C164 539 151 501 135 461C128 441 123 429 122 424C123 426 77 299 81 299C57 295 16 285 5 285C0 284-3 278-2 267C-1 256 2 248 7 243C18 233 33 223 51 212C48 201 42 182 33 156C25 130 19 110 16 97C5 46 21 5 62-25C103-55 148-64 197-51Z"  horiz-adv-x="376" vert-adv-y="1000"  />

      
      <glyph glyph-name="unicc" unicode="&#xcc;" d="M444 688C449 688 454 689 458 691C465 696 469 701 469 708C469 720 460 730 432 751L405 772C394 781 374 809 358 821C350 827 341 830 330 830C317 830 305 821 294 803C285 787 301 764 340 733C380 703 415 688 444 688ZM75-40C87-52 113-34 155-19C167-25 177-28 186-29C212-30 212-20 217-8C228-3 256 3 295 10C315 13 330 16 339 18C357 23 370 28 378 35C387 44 384 51 368 56C323 68 276 71 227 66C238 119 265 211 309 343C354 475 380 555 388 582C434 597 482 609 532 618C539 619 540 623 534 630C522 645 502 653 474 654C433 656 386 654 332 649C279 644 247 635 237 623C229 615 218 595 210 571C207 559 209 551 217 547C221 544 252 549 311 562C244 359 192 190 155 56C130 50 111 44 98 37C62 18 47-5 75-40Z"  horiz-adv-x="351" vert-adv-y="1000"  />

      
      <glyph glyph-name="unicd" unicode="&#xcd;" d="M332 704C343 704 361 719 374 732C389 745 415 775 427 786L434 792C446 802 460 814 460 832C460 845 437 870 420 870C412 870 394 852 365 816C337 781 321 756 316 741C314 737 313 733 313 730C313 723 315 717 320 711C324 706 328 704 332 704ZM75-40C87-52 113-34 155-19C167-25 177-28 186-29C212-30 212-20 217-8C228-3 256 3 295 10C315 13 330 16 339 18C357 23 370 28 378 35C387 44 384 51 368 56C323 68 276 71 227 66C238 119 265 211 309 343C354 475 380 555 388 582C434 597 482 609 532 618C539 619 540 623 534 630C522 645 502 653 474 654C433 656 386 654 332 649C279 644 247 635 237 623C229 615 218 595 210 571C207 559 209 551 217 547C221 544 252 549 311 562C244 359 192 190 155 56C130 50 111 44 98 37C62 18 47-5 75-40Z"  horiz-adv-x="351" vert-adv-y="1000"  />

      
      <glyph glyph-name="unice" unicode="&#xce;" d="M239 720C257 720 276 730 299 744L338 770L353 781L429 831C425 805 423 788 423 780C423 749 435 734 458 734C461 735 464 735 468 735C473 735 474 736 475 752C476 772 479 793 482 814C482 818 491 846 491 865C491 884 484 898 470 907C460 913 419 892 346 845C260 791 217 762 216 757C214 732 222 720 239 720ZM75-40C87-52 113-34 155-19C167-25 177-28 186-29C212-30 212-20 217-8C228-3 256 3 295 10C315 13 330 16 339 18C357 23 370 28 378 35C387 44 384 51 368 56C323 68 276 71 227 66C238 119 265 211 309 343C354 475 380 555 388 582C434 597 482 609 532 618C539 619 540 623 534 630C522 645 502 653 474 654C433 656 386 654 332 649C279 644 247 635 237 623C229 615 218 595 210 571C207 559 209 551 217 547C221 544 252 549 311 562C244 359 192 190 155 56C130 50 111 44 98 37C62 18 47-5 75-40Z"  horiz-adv-x="351" vert-adv-y="1000"  />

      
      <glyph glyph-name="unicf" unicode="&#xcf;" d="M303 695C324 695 348 731 348 766C348 796 333 813 303 818C295 820 276 779 276 744C276 728 280 714 288 702C293 697 298 695 303 695ZM436 689C451 689 468 712 485 757C486 759 486 762 486 766C486 787 456 808 443 812C437 815 432 817 427 818C413 813 406 794 406 761C406 724 417 689 436 689ZM75-40C87-52 113-34 155-19C167-25 177-28 186-29C212-30 212-20 217-8C228-3 256 3 295 10C315 13 330 16 339 18C357 23 370 28 378 35C387 44 384 51 368 56C323 68 276 71 227 66C238 119 265 211 309 343C354 475 380 555 388 582C434 597 482 609 532 618C539 619 540 623 534 630C522 645 502 653 474 654C433 656 386 654 332 649C279 644 247 635 237 623C229 615 218 595 210 571C207 559 209 551 217 547C221 544 252 549 311 562C244 359 192 190 155 56C130 50 111 44 98 37C62 18 47-5 75-40Z"  horiz-adv-x="351" vert-adv-y="1000"  />

      
      <glyph glyph-name="unid0" unicode="&#xd0;" d="M227 627C188 627 162 624 148 618C136 613 126 594 126 574C126 569 138 565 163 562C152 530 143 500 136 473C134 464 125 429 108 368C91 369 74 370 57 370C36 370 26 358 29 335C29 321 32 313 38 310L91 309C54 176 29 94 16 64C-5 63-21 31-21 15C-21-9 19-30 71-30C142-30 208-9 275 39C343 88 400 181 429 308C433 325 438 362 429 429C425 462 417 493 405 521C381 578 318 627 227 627ZM348 259C325 198 288 145 235 99C183 53 134 33 87 38L163 312C207 317 231 324 234 335C238 347 214 356 177 361L181 376C191 405 210 467 239 562C352 554 374 483 374 408C374 353 365 303 348 259Z"  horiz-adv-x="423" vert-adv-y="1000"  />

      
      <glyph glyph-name="unid1" unicode="&#xd1;" d="M533 677C584 677 612 718 612 757C612 769 609 778 604 785C595 804 556 730 529 729C499 726 490 818 422 818C396 818 366 801 331 766C322 755 317 742 317 729C317 709 329 692 342 692C347 692 352 696 358 705C379 737 395 752 422 752C453 752 454 677 533 677ZM364-47C380-69 425-78 427-38C428-22 462 88 529 291C596 495 632 603 635 616C637 623 638 630 637 637C636 660 627 676 608 684C596 690 590 689 589 680C588 670 559 585 502 424C446 264 412 169 399 140C398 146 392 186 379 260C366 334 354 407 343 478C332 549 326 589 326 597C326 609 318 620 302 631C287 642 274 648 264 648C256 648 217 544 147 337C78 130 43 16 43-3C43-5 44-7 45-10C50-26 62-39 80-49C101-60 112-55 115-35C116-27 121-7 130 24C171 163 214 293 259 412C271 445 277 458 277 452C277 434 290 349 315 196C341 43 357-38 364-47Z"  horiz-adv-x="543" vert-adv-y="1000"  />

      
      <glyph glyph-name="unid2" unicode="&#xd2;" d="M470 645C475 645 480 646 484 648C491 653 495 658 495 665C495 677 486 687 458 708L431 729C420 738 400 766 384 778C376 784 367 787 356 787C343 787 331 778 320 760C311 744 327 721 366 690C406 660 441 645 470 645ZM209-49C235-49 275-28 328 15C382 58 409 90 409 111C409 118 407 124 402 129C400 132 406 152 420 189C435 226 450 271 466 325C483 380 491 427 491 468C491 509 482 543 464 568C433 615 397 638 356 638C311 638 264 610 217 555C170 500 132 434 103 355C74 277 60 204 60 137C60 25 108-49 209-49ZM196 4C191 4 188 4 186 5C153 8 125 59 125 136C125 244 169 365 258 498C309 549 350 575 379 575C412 575 428 551 428 502C428 442 416 373 393 295C370 217 339 149 302 91C265 33 230 4 196 4Z"  horiz-adv-x="448" vert-adv-y="1000"  />

      
      <glyph glyph-name="unid3" unicode="&#xd3;" d="M358 661C369 661 387 676 400 689C415 702 441 732 453 743L460 749C472 759 486 771 486 789C486 802 463 827 446 827C438 827 420 809 391 773C363 738 347 713 342 698C340 694 339 690 339 687C339 680 341 674 346 668C350 663 354 661 358 661ZM209-49C235-49 275-28 328 15C382 58 409 90 409 111C409 118 407 124 402 129C400 132 406 152 420 189C435 226 450 271 466 325C483 380 491 427 491 468C491 509 482 543 464 568C433 615 397 638 356 638C311 638 264 610 217 555C170 500 132 434 103 355C74 277 60 204 60 137C60 25 108-49 209-49ZM196 4C191 4 188 4 186 5C153 8 125 59 125 136C125 244 169 365 258 498C309 549 350 575 379 575C412 575 428 551 428 502C428 442 416 373 393 295C370 217 339 149 302 91C265 33 230 4 196 4Z"  horiz-adv-x="448" vert-adv-y="1000"  />

      
      <glyph glyph-name="unid4" unicode="&#xd4;" d="M265 677C283 677 302 687 325 701L364 727L379 738L455 788C451 762 449 745 449 737C449 706 461 691 484 691C487 692 490 692 494 692C499 692 500 693 501 709C502 729 505 750 508 771C508 775 517 803 517 822C517 841 510 855 496 864C486 870 445 849 372 802C286 748 243 719 242 714C240 689 248 677 265 677ZM209-49C235-49 275-28 328 15C382 58 409 90 409 111C409 118 407 124 402 129C400 132 406 152 420 189C435 226 450 271 466 325C483 380 491 427 491 468C491 509 482 543 464 568C433 615 397 638 356 638C311 638 264 610 217 555C170 500 132 434 103 355C74 277 60 204 60 137C60 25 108-49 209-49ZM196 4C191 4 188 4 186 5C153 8 125 59 125 136C125 244 169 365 258 498C309 549 350 575 379 575C412 575 428 551 428 502C428 442 416 373 393 295C370 217 339 149 302 91C265 33 230 4 196 4Z"  horiz-adv-x="448" vert-adv-y="1000"  />

      
      <glyph glyph-name="unid5" unicode="&#xd5;" d="M473 669C524 669 552 710 552 749C552 761 549 770 544 777C535 796 496 722 469 721C439 718 430 810 362 810C336 810 306 793 271 758C262 747 257 734 257 721C257 701 269 684 282 684C287 684 292 688 298 697C319 729 335 744 362 744C393 744 394 669 473 669ZM209-49C235-49 275-28 328 15C382 58 409 90 409 111C409 118 407 124 402 129C400 132 406 152 420 189C435 226 450 271 466 325C483 380 491 427 491 468C491 509 482 543 464 568C433 615 397 638 356 638C311 638 264 610 217 555C170 500 132 434 103 355C74 277 60 204 60 137C60 25 108-49 209-49ZM196 4C191 4 188 4 186 5C153 8 125 59 125 136C125 244 169 365 258 498C309 549 350 575 379 575C412 575 428 551 428 502C428 442 416 373 393 295C370 217 339 149 302 91C265 33 230 4 196 4Z"  horiz-adv-x="448" vert-adv-y="1000"  />

      
      <glyph glyph-name="unid6" unicode="&#xd6;" d="M329 652C350 652 374 688 374 723C374 753 359 770 329 775C321 777 302 736 302 701C302 685 306 671 314 659C319 654 324 652 329 652ZM462 646C477 646 494 669 511 714C512 716 512 719 512 723C512 744 482 765 469 769C463 772 458 774 453 775C439 770 432 751 432 718C432 681 443 646 462 646ZM209-49C235-49 275-28 328 15C382 58 409 90 409 111C409 118 407 124 402 129C400 132 406 152 420 189C435 226 450 271 466 325C483 380 491 427 491 468C491 509 482 543 464 568C433 615 397 638 356 638C311 638 264 610 217 555C170 500 132 434 103 355C74 277 60 204 60 137C60 25 108-49 209-49ZM196 4C191 4 188 4 186 5C153 8 125 59 125 136C125 244 169 365 258 498C309 549 350 575 379 575C412 575 428 551 428 502C428 442 416 373 393 295C370 217 339 149 302 91C265 33 230 4 196 4Z"  horiz-adv-x="448" vert-adv-y="1000"  />

      
      <glyph glyph-name="unid7" unicode="&#xd7;" d="M39 86C63 67 86 108 163 175C169 169 191 143 230 96C247 89 257 96 258 104C262 121 245 155 206 206C278 257 319 292 329 313C338 320 311 351 298 345C289 340 271 327 242 304C214 282 192 266 175 257C169 263 160 275 148 294C136 313 130 324 130 328C127 333 124 338 121 341C111 350 101 348 91 335C78 318 79 301 93 283C100 274 112 252 129 217L111 202C60 158 8 117 39 86Z"  horiz-adv-x="313" vert-adv-y="1000"  />

      
      <glyph glyph-name="unid8" unicode="&#xd8;" d="M530 743C522 729 491 682 437 601C412 626 385 638 356 638C311 638 264 610 217 555C170 500 132 434 103 355C74 277 60 204 60 137C60 106 63 80 70 57L13-27C4-40 4-52 13-63C22-74 30-74 38-65C48-54 66-30 93 7C118-30 157-49 209-49C235-49 275-28 328 15C382 58 409 90 409 111C409 118 407 124 402 129C400 132 406 152 420 189C435 226 450 271 466 325C483 380 491 427 491 468C491 502 485 530 473 552L555 672L561 683C569 704 567 724 554 741C545 754 537 754 530 743ZM258 498C309 549 350 575 379 575C393 575 404 571 412 563L125 138C125 244 169 364 258 498ZM196 4C191 4 188 4 186 5C163 7 146 27 134 65L428 486C425 425 412 356 389 281C366 206 336 141 300 86C264 31 229 4 196 4Z"  horiz-adv-x="448" vert-adv-y="1000"  />

      
      <glyph glyph-name="unid9" unicode="&#xd9;" d="M476 653C481 653 486 654 490 656C497 661 501 666 501 673C501 685 492 695 464 716L437 737C426 746 406 774 390 786C382 792 373 795 362 795C349 795 337 786 326 768C317 752 333 729 372 698C412 668 447 653 476 653ZM468-40C485-40 495-38 500-33C503-30 505-26 505-22C505-21 504-19 503-16C497-6 490-1 481-1L476-1C446-12 432 78 432 132C432 226 455 328 500 439C505 450 512 461 520 470C530 480 535 488 535 493C535 499 530 505 520 512C508 519 497 523 487 523C463 523 449 503 432 462C429 457 423 442 412 419L382 357C373 338 365 324 358 315C319 250 275 184 224 117C173 51 139 18 120 18C104 18 96 32 96 61C96 114 114 191 149 294C184 397 225 481 271 546C284 564 290 577 290 584C290 603 263 623 244 623C225 623 198 585 162 508C126 432 94 350 66 261C38 173 24 112 24 78C24 61 26 45 31 31C40-4 82-33 121-33C128-33 134-32 140-30C165-26 189-11 214 9C229 21 250 45 262 60C275 75 300 109 312 125L338 161L364 197C364 110 373 49 390 14C400-3 411-16 423-25C431-32 446-37 468-40Z"  horiz-adv-x="529" vert-adv-y="1000"  />

      
      <glyph glyph-name="unida" unicode="&#xda;" d="M364 669C375 669 393 684 406 697C421 710 447 740 459 751L466 757C478 767 492 779 492 797C492 810 469 835 452 835C444 835 426 817 397 781C369 746 353 721 348 706C346 702 345 698 345 695C345 688 347 682 352 676C356 671 360 669 364 669ZM468-40C485-40 495-38 500-33C503-30 505-26 505-22C505-21 504-19 503-16C497-6 490-1 481-1L476-1C446-12 432 78 432 132C432 226 455 328 500 439C505 450 512 461 520 470C530 480 535 488 535 493C535 499 530 505 520 512C508 519 497 523 487 523C463 523 449 503 432 462C429 457 423 442 412 419L382 357C373 338 365 324 358 315C319 250 275 184 224 117C173 51 139 18 120 18C104 18 96 32 96 61C96 114 114 191 149 294C184 397 225 481 271 546C284 564 290 577 290 584C290 603 263 623 244 623C225 623 198 585 162 508C126 432 94 350 66 261C38 173 24 112 24 78C24 61 26 45 31 31C40-4 82-33 121-33C128-33 134-32 140-30C165-26 189-11 214 9C229 21 250 45 262 60C275 75 300 109 312 125L338 161L364 197C364 110 373 49 390 14C400-3 411-16 423-25C431-32 446-37 468-40Z"  horiz-adv-x="529" vert-adv-y="1000"  />

      
      <glyph glyph-name="unidb" unicode="&#xdb;" d="M271 685C289 685 308 695 331 709L370 735L385 746L461 796C457 770 455 753 455 745C455 714 467 699 490 699C493 700 496 700 500 700C505 700 506 701 507 717C508 737 511 758 514 779C514 783 523 811 523 830C523 849 516 863 502 872C492 878 451 857 378 810C292 756 249 727 248 722C246 697 254 685 271 685ZM468-40C485-40 495-38 500-33C503-30 505-26 505-22C505-21 504-19 503-16C497-6 490-1 481-1L476-1C446-12 432 78 432 132C432 226 455 328 500 439C505 450 512 461 520 470C530 480 535 488 535 493C535 499 530 505 520 512C508 519 497 523 487 523C463 523 449 503 432 462C429 457 423 442 412 419L382 357C373 338 365 324 358 315C319 250 275 184 224 117C173 51 139 18 120 18C104 18 96 32 96 61C96 114 114 191 149 294C184 397 225 481 271 546C284 564 290 577 290 584C290 603 263 623 244 623C225 623 198 585 162 508C126 432 94 350 66 261C38 173 24 112 24 78C24 61 26 45 31 31C40-4 82-33 121-33C128-33 134-32 140-30C165-26 189-11 214 9C229 21 250 45 262 60C275 75 300 109 312 125L338 161L364 197C364 110 373 49 390 14C400-3 411-16 423-25C431-32 446-37 468-40Z"  horiz-adv-x="529" vert-adv-y="1000"  />

      
      <glyph glyph-name="unidc" unicode="&#xdc;" d="M335 660C356 660 380 696 380 731C380 761 365 778 335 783C327 785 308 744 308 709C308 693 312 679 320 667C325 662 330 660 335 660ZM468 654C483 654 500 677 517 722C518 724 518 727 518 731C518 752 488 773 475 777C469 780 464 782 459 783C445 778 438 759 438 726C438 689 449 654 468 654ZM468-40C485-40 495-38 500-33C503-30 505-26 505-22C505-21 504-19 503-16C497-6 490-1 481-1L476-1C446-12 432 78 432 132C432 226 455 328 500 439C505 450 512 461 520 470C530 480 535 488 535 493C535 499 530 505 520 512C508 519 497 523 487 523C463 523 449 503 432 462C429 457 423 442 412 419L382 357C373 338 365 324 358 315C319 250 275 184 224 117C173 51 139 18 120 18C104 18 96 32 96 61C96 114 114 191 149 294C184 397 225 481 271 546C284 564 290 577 290 584C290 603 263 623 244 623C225 623 198 585 162 508C126 432 94 350 66 261C38 173 24 112 24 78C24 61 26 45 31 31C40-4 82-33 121-33C128-33 134-32 140-30C165-26 189-11 214 9C229 21 250 45 262 60C275 75 300 109 312 125L338 161L364 197C364 110 373 49 390 14C400-3 411-16 423-25C431-32 446-37 468-40Z"  horiz-adv-x="529" vert-adv-y="1000"  />

      
      <glyph glyph-name="unidd" unicode="&#xdd;" d="M353 669C364 669 382 684 395 697C410 710 436 740 448 751L455 757C467 767 481 779 481 797C481 810 458 835 441 835C433 835 415 817 386 781C358 746 342 721 337 706C335 702 334 698 334 695C334 688 336 682 341 676C345 671 349 669 353 669ZM344-212C369-213 373-207 357-192C343-179 336-162 336-141C336-86 344-27 360 36C376 99 408 206 457 357C472 405 487 447 503 483C507 492 524 523 529 538C536 553 537 577 524 593C488 633 471 610 454 572C435 530 383 456 298 350C214 245 162 192 143 192C126 192 140 232 145 254C156 295 170 336 187 378C216 452 241 504 261 533L264 542C266 558 259 575 242 593C225 612 212 613 204 597L182 555C171 536 162 519 155 504C148 490 143 477 138 465C136 460 129 441 116 410L91 345C83 320 70 264 70 227C70 202 76 179 89 157C102 135 120 124 143 125C163 125 195 144 239 181C283 219 320 256 349 293C341 261 331 224 318 182C306 141 298 111 293 92L286 63L277 25L268-16C261-53 262-72 261-104C261-137 270-156 281-177C293-198 315-209 344-212Z"  horiz-adv-x="468" vert-adv-y="1000"  />

      
      <glyph glyph-name="unide" unicode="&#xde;" d="M138-98C142-98 145-98 148-97C161-93 168-89 168-85C168-82 165-67 163-51C161-22 184 80 231 254L287 459C359 494 422 512 475 512C524 512 553 493 552 452C552 412 535 373 514 342C493 313 453 279 425 259C411 250 394 239 373 228C352 217 337 208 326 203L285 184C268 177 258 173 257 172C247 167 252 158 273 145C280 140 290 138 302 138C337 138 382 154 438 187C489 216 529 253 558 298C587 343 601 389 601 434C601 519 548 580 451 580C446 580 436 579 421 578C395 575 358 566 309 551C315 581 323 628 332 692C336 720 315 735 292 735C283 735 276 732 273 727C265 714 262 692 250 624C245 590 239 557 232 524C224 519 208 511 183 498C158 486 141 475 130 466C119 457 114 447 114 435C114 410 144 390 156 387C160 385 177 396 208 420C205 401 195 361 176 300C158 239 141 177 125 114C109 51 101 2 101-33C101-76 113-98 138-98Z"  horiz-adv-x="600" vert-adv-y="1000"  />

      
      </font>
</defs>
</svg>
